G04 #@! TF.GenerationSoftware,KiCad,Pcbnew,(5.1.4)-1*
G04 #@! TF.CreationDate,2019-10-15T21:25:22-05:00*
G04 #@! TF.ProjectId,BACEE,42414345-452e-46b6-9963-61645f706362,1*
G04 #@! TF.SameCoordinates,Original*
G04 #@! TF.FileFunction,Paste,Top*
G04 #@! TF.FilePolarity,Positive*
%FSLAX46Y46*%
G04 Gerber Fmt 4.6, Leading zero omitted, Abs format (unit mm)*
G04 Created by KiCad (PCBNEW (5.1.4)-1) date 2019-10-15 21:25:22*
%MOMM*%
%LPD*%
G04 APERTURE LIST*
%ADD10C,0.100000*%
%ADD11C,1.150000*%
%ADD12R,1.700000X0.650000*%
%ADD13R,1.750000X0.550000*%
%ADD14R,0.550000X1.500000*%
%ADD15R,1.500000X0.550000*%
%ADD16R,1.000000X1.800000*%
%ADD17R,3.500000X2.400000*%
G04 APERTURE END LIST*
D10*
G36*
X89249505Y-81597204D02*
G01*
X89273773Y-81600804D01*
X89297572Y-81606765D01*
X89320671Y-81615030D01*
X89342850Y-81625520D01*
X89363893Y-81638132D01*
X89383599Y-81652747D01*
X89401777Y-81669223D01*
X89418253Y-81687401D01*
X89432868Y-81707107D01*
X89445480Y-81728150D01*
X89455970Y-81750329D01*
X89464235Y-81773428D01*
X89470196Y-81797227D01*
X89473796Y-81821495D01*
X89475000Y-81845999D01*
X89475000Y-82746001D01*
X89473796Y-82770505D01*
X89470196Y-82794773D01*
X89464235Y-82818572D01*
X89455970Y-82841671D01*
X89445480Y-82863850D01*
X89432868Y-82884893D01*
X89418253Y-82904599D01*
X89401777Y-82922777D01*
X89383599Y-82939253D01*
X89363893Y-82953868D01*
X89342850Y-82966480D01*
X89320671Y-82976970D01*
X89297572Y-82985235D01*
X89273773Y-82991196D01*
X89249505Y-82994796D01*
X89225001Y-82996000D01*
X88574999Y-82996000D01*
X88550495Y-82994796D01*
X88526227Y-82991196D01*
X88502428Y-82985235D01*
X88479329Y-82976970D01*
X88457150Y-82966480D01*
X88436107Y-82953868D01*
X88416401Y-82939253D01*
X88398223Y-82922777D01*
X88381747Y-82904599D01*
X88367132Y-82884893D01*
X88354520Y-82863850D01*
X88344030Y-82841671D01*
X88335765Y-82818572D01*
X88329804Y-82794773D01*
X88326204Y-82770505D01*
X88325000Y-82746001D01*
X88325000Y-81845999D01*
X88326204Y-81821495D01*
X88329804Y-81797227D01*
X88335765Y-81773428D01*
X88344030Y-81750329D01*
X88354520Y-81728150D01*
X88367132Y-81707107D01*
X88381747Y-81687401D01*
X88398223Y-81669223D01*
X88416401Y-81652747D01*
X88436107Y-81638132D01*
X88457150Y-81625520D01*
X88479329Y-81615030D01*
X88502428Y-81606765D01*
X88526227Y-81600804D01*
X88550495Y-81597204D01*
X88574999Y-81596000D01*
X89225001Y-81596000D01*
X89249505Y-81597204D01*
X89249505Y-81597204D01*
G37*
D11*
X88900000Y-82296000D03*
D10*
G36*
X91299505Y-81597204D02*
G01*
X91323773Y-81600804D01*
X91347572Y-81606765D01*
X91370671Y-81615030D01*
X91392850Y-81625520D01*
X91413893Y-81638132D01*
X91433599Y-81652747D01*
X91451777Y-81669223D01*
X91468253Y-81687401D01*
X91482868Y-81707107D01*
X91495480Y-81728150D01*
X91505970Y-81750329D01*
X91514235Y-81773428D01*
X91520196Y-81797227D01*
X91523796Y-81821495D01*
X91525000Y-81845999D01*
X91525000Y-82746001D01*
X91523796Y-82770505D01*
X91520196Y-82794773D01*
X91514235Y-82818572D01*
X91505970Y-82841671D01*
X91495480Y-82863850D01*
X91482868Y-82884893D01*
X91468253Y-82904599D01*
X91451777Y-82922777D01*
X91433599Y-82939253D01*
X91413893Y-82953868D01*
X91392850Y-82966480D01*
X91370671Y-82976970D01*
X91347572Y-82985235D01*
X91323773Y-82991196D01*
X91299505Y-82994796D01*
X91275001Y-82996000D01*
X90624999Y-82996000D01*
X90600495Y-82994796D01*
X90576227Y-82991196D01*
X90552428Y-82985235D01*
X90529329Y-82976970D01*
X90507150Y-82966480D01*
X90486107Y-82953868D01*
X90466401Y-82939253D01*
X90448223Y-82922777D01*
X90431747Y-82904599D01*
X90417132Y-82884893D01*
X90404520Y-82863850D01*
X90394030Y-82841671D01*
X90385765Y-82818572D01*
X90379804Y-82794773D01*
X90376204Y-82770505D01*
X90375000Y-82746001D01*
X90375000Y-81845999D01*
X90376204Y-81821495D01*
X90379804Y-81797227D01*
X90385765Y-81773428D01*
X90394030Y-81750329D01*
X90404520Y-81728150D01*
X90417132Y-81707107D01*
X90431747Y-81687401D01*
X90448223Y-81669223D01*
X90466401Y-81652747D01*
X90486107Y-81638132D01*
X90507150Y-81625520D01*
X90529329Y-81615030D01*
X90552428Y-81606765D01*
X90576227Y-81600804D01*
X90600495Y-81597204D01*
X90624999Y-81596000D01*
X91275001Y-81596000D01*
X91299505Y-81597204D01*
X91299505Y-81597204D01*
G37*
D11*
X90950000Y-82296000D03*
D10*
G36*
X91299505Y-78676204D02*
G01*
X91323773Y-78679804D01*
X91347572Y-78685765D01*
X91370671Y-78694030D01*
X91392850Y-78704520D01*
X91413893Y-78717132D01*
X91433599Y-78731747D01*
X91451777Y-78748223D01*
X91468253Y-78766401D01*
X91482868Y-78786107D01*
X91495480Y-78807150D01*
X91505970Y-78829329D01*
X91514235Y-78852428D01*
X91520196Y-78876227D01*
X91523796Y-78900495D01*
X91525000Y-78924999D01*
X91525000Y-79825001D01*
X91523796Y-79849505D01*
X91520196Y-79873773D01*
X91514235Y-79897572D01*
X91505970Y-79920671D01*
X91495480Y-79942850D01*
X91482868Y-79963893D01*
X91468253Y-79983599D01*
X91451777Y-80001777D01*
X91433599Y-80018253D01*
X91413893Y-80032868D01*
X91392850Y-80045480D01*
X91370671Y-80055970D01*
X91347572Y-80064235D01*
X91323773Y-80070196D01*
X91299505Y-80073796D01*
X91275001Y-80075000D01*
X90624999Y-80075000D01*
X90600495Y-80073796D01*
X90576227Y-80070196D01*
X90552428Y-80064235D01*
X90529329Y-80055970D01*
X90507150Y-80045480D01*
X90486107Y-80032868D01*
X90466401Y-80018253D01*
X90448223Y-80001777D01*
X90431747Y-79983599D01*
X90417132Y-79963893D01*
X90404520Y-79942850D01*
X90394030Y-79920671D01*
X90385765Y-79897572D01*
X90379804Y-79873773D01*
X90376204Y-79849505D01*
X90375000Y-79825001D01*
X90375000Y-78924999D01*
X90376204Y-78900495D01*
X90379804Y-78876227D01*
X90385765Y-78852428D01*
X90394030Y-78829329D01*
X90404520Y-78807150D01*
X90417132Y-78786107D01*
X90431747Y-78766401D01*
X90448223Y-78748223D01*
X90466401Y-78731747D01*
X90486107Y-78717132D01*
X90507150Y-78704520D01*
X90529329Y-78694030D01*
X90552428Y-78685765D01*
X90576227Y-78679804D01*
X90600495Y-78676204D01*
X90624999Y-78675000D01*
X91275001Y-78675000D01*
X91299505Y-78676204D01*
X91299505Y-78676204D01*
G37*
D11*
X90950000Y-79375000D03*
D10*
G36*
X89249505Y-78676204D02*
G01*
X89273773Y-78679804D01*
X89297572Y-78685765D01*
X89320671Y-78694030D01*
X89342850Y-78704520D01*
X89363893Y-78717132D01*
X89383599Y-78731747D01*
X89401777Y-78748223D01*
X89418253Y-78766401D01*
X89432868Y-78786107D01*
X89445480Y-78807150D01*
X89455970Y-78829329D01*
X89464235Y-78852428D01*
X89470196Y-78876227D01*
X89473796Y-78900495D01*
X89475000Y-78924999D01*
X89475000Y-79825001D01*
X89473796Y-79849505D01*
X89470196Y-79873773D01*
X89464235Y-79897572D01*
X89455970Y-79920671D01*
X89445480Y-79942850D01*
X89432868Y-79963893D01*
X89418253Y-79983599D01*
X89401777Y-80001777D01*
X89383599Y-80018253D01*
X89363893Y-80032868D01*
X89342850Y-80045480D01*
X89320671Y-80055970D01*
X89297572Y-80064235D01*
X89273773Y-80070196D01*
X89249505Y-80073796D01*
X89225001Y-80075000D01*
X88574999Y-80075000D01*
X88550495Y-80073796D01*
X88526227Y-80070196D01*
X88502428Y-80064235D01*
X88479329Y-80055970D01*
X88457150Y-80045480D01*
X88436107Y-80032868D01*
X88416401Y-80018253D01*
X88398223Y-80001777D01*
X88381747Y-79983599D01*
X88367132Y-79963893D01*
X88354520Y-79942850D01*
X88344030Y-79920671D01*
X88335765Y-79897572D01*
X88329804Y-79873773D01*
X88326204Y-79849505D01*
X88325000Y-79825001D01*
X88325000Y-78924999D01*
X88326204Y-78900495D01*
X88329804Y-78876227D01*
X88335765Y-78852428D01*
X88344030Y-78829329D01*
X88354520Y-78807150D01*
X88367132Y-78786107D01*
X88381747Y-78766401D01*
X88398223Y-78748223D01*
X88416401Y-78731747D01*
X88436107Y-78717132D01*
X88457150Y-78704520D01*
X88479329Y-78694030D01*
X88502428Y-78685765D01*
X88526227Y-78679804D01*
X88550495Y-78676204D01*
X88574999Y-78675000D01*
X89225001Y-78675000D01*
X89249505Y-78676204D01*
X89249505Y-78676204D01*
G37*
D11*
X88900000Y-79375000D03*
D10*
G36*
X106267505Y-88709204D02*
G01*
X106291773Y-88712804D01*
X106315572Y-88718765D01*
X106338671Y-88727030D01*
X106360850Y-88737520D01*
X106381893Y-88750132D01*
X106401599Y-88764747D01*
X106419777Y-88781223D01*
X106436253Y-88799401D01*
X106450868Y-88819107D01*
X106463480Y-88840150D01*
X106473970Y-88862329D01*
X106482235Y-88885428D01*
X106488196Y-88909227D01*
X106491796Y-88933495D01*
X106493000Y-88957999D01*
X106493000Y-89858001D01*
X106491796Y-89882505D01*
X106488196Y-89906773D01*
X106482235Y-89930572D01*
X106473970Y-89953671D01*
X106463480Y-89975850D01*
X106450868Y-89996893D01*
X106436253Y-90016599D01*
X106419777Y-90034777D01*
X106401599Y-90051253D01*
X106381893Y-90065868D01*
X106360850Y-90078480D01*
X106338671Y-90088970D01*
X106315572Y-90097235D01*
X106291773Y-90103196D01*
X106267505Y-90106796D01*
X106243001Y-90108000D01*
X105592999Y-90108000D01*
X105568495Y-90106796D01*
X105544227Y-90103196D01*
X105520428Y-90097235D01*
X105497329Y-90088970D01*
X105475150Y-90078480D01*
X105454107Y-90065868D01*
X105434401Y-90051253D01*
X105416223Y-90034777D01*
X105399747Y-90016599D01*
X105385132Y-89996893D01*
X105372520Y-89975850D01*
X105362030Y-89953671D01*
X105353765Y-89930572D01*
X105347804Y-89906773D01*
X105344204Y-89882505D01*
X105343000Y-89858001D01*
X105343000Y-88957999D01*
X105344204Y-88933495D01*
X105347804Y-88909227D01*
X105353765Y-88885428D01*
X105362030Y-88862329D01*
X105372520Y-88840150D01*
X105385132Y-88819107D01*
X105399747Y-88799401D01*
X105416223Y-88781223D01*
X105434401Y-88764747D01*
X105454107Y-88750132D01*
X105475150Y-88737520D01*
X105497329Y-88727030D01*
X105520428Y-88718765D01*
X105544227Y-88712804D01*
X105568495Y-88709204D01*
X105592999Y-88708000D01*
X106243001Y-88708000D01*
X106267505Y-88709204D01*
X106267505Y-88709204D01*
G37*
D11*
X105918000Y-89408000D03*
D10*
G36*
X104217505Y-88709204D02*
G01*
X104241773Y-88712804D01*
X104265572Y-88718765D01*
X104288671Y-88727030D01*
X104310850Y-88737520D01*
X104331893Y-88750132D01*
X104351599Y-88764747D01*
X104369777Y-88781223D01*
X104386253Y-88799401D01*
X104400868Y-88819107D01*
X104413480Y-88840150D01*
X104423970Y-88862329D01*
X104432235Y-88885428D01*
X104438196Y-88909227D01*
X104441796Y-88933495D01*
X104443000Y-88957999D01*
X104443000Y-89858001D01*
X104441796Y-89882505D01*
X104438196Y-89906773D01*
X104432235Y-89930572D01*
X104423970Y-89953671D01*
X104413480Y-89975850D01*
X104400868Y-89996893D01*
X104386253Y-90016599D01*
X104369777Y-90034777D01*
X104351599Y-90051253D01*
X104331893Y-90065868D01*
X104310850Y-90078480D01*
X104288671Y-90088970D01*
X104265572Y-90097235D01*
X104241773Y-90103196D01*
X104217505Y-90106796D01*
X104193001Y-90108000D01*
X103542999Y-90108000D01*
X103518495Y-90106796D01*
X103494227Y-90103196D01*
X103470428Y-90097235D01*
X103447329Y-90088970D01*
X103425150Y-90078480D01*
X103404107Y-90065868D01*
X103384401Y-90051253D01*
X103366223Y-90034777D01*
X103349747Y-90016599D01*
X103335132Y-89996893D01*
X103322520Y-89975850D01*
X103312030Y-89953671D01*
X103303765Y-89930572D01*
X103297804Y-89906773D01*
X103294204Y-89882505D01*
X103293000Y-89858001D01*
X103293000Y-88957999D01*
X103294204Y-88933495D01*
X103297804Y-88909227D01*
X103303765Y-88885428D01*
X103312030Y-88862329D01*
X103322520Y-88840150D01*
X103335132Y-88819107D01*
X103349747Y-88799401D01*
X103366223Y-88781223D01*
X103384401Y-88764747D01*
X103404107Y-88750132D01*
X103425150Y-88737520D01*
X103447329Y-88727030D01*
X103470428Y-88718765D01*
X103494227Y-88712804D01*
X103518495Y-88709204D01*
X103542999Y-88708000D01*
X104193001Y-88708000D01*
X104217505Y-88709204D01*
X104217505Y-88709204D01*
G37*
D11*
X103868000Y-89408000D03*
D10*
G36*
X109857505Y-92646204D02*
G01*
X109881773Y-92649804D01*
X109905572Y-92655765D01*
X109928671Y-92664030D01*
X109950850Y-92674520D01*
X109971893Y-92687132D01*
X109991599Y-92701747D01*
X110009777Y-92718223D01*
X110026253Y-92736401D01*
X110040868Y-92756107D01*
X110053480Y-92777150D01*
X110063970Y-92799329D01*
X110072235Y-92822428D01*
X110078196Y-92846227D01*
X110081796Y-92870495D01*
X110083000Y-92894999D01*
X110083000Y-93795001D01*
X110081796Y-93819505D01*
X110078196Y-93843773D01*
X110072235Y-93867572D01*
X110063970Y-93890671D01*
X110053480Y-93912850D01*
X110040868Y-93933893D01*
X110026253Y-93953599D01*
X110009777Y-93971777D01*
X109991599Y-93988253D01*
X109971893Y-94002868D01*
X109950850Y-94015480D01*
X109928671Y-94025970D01*
X109905572Y-94034235D01*
X109881773Y-94040196D01*
X109857505Y-94043796D01*
X109833001Y-94045000D01*
X109182999Y-94045000D01*
X109158495Y-94043796D01*
X109134227Y-94040196D01*
X109110428Y-94034235D01*
X109087329Y-94025970D01*
X109065150Y-94015480D01*
X109044107Y-94002868D01*
X109024401Y-93988253D01*
X109006223Y-93971777D01*
X108989747Y-93953599D01*
X108975132Y-93933893D01*
X108962520Y-93912850D01*
X108952030Y-93890671D01*
X108943765Y-93867572D01*
X108937804Y-93843773D01*
X108934204Y-93819505D01*
X108933000Y-93795001D01*
X108933000Y-92894999D01*
X108934204Y-92870495D01*
X108937804Y-92846227D01*
X108943765Y-92822428D01*
X108952030Y-92799329D01*
X108962520Y-92777150D01*
X108975132Y-92756107D01*
X108989747Y-92736401D01*
X109006223Y-92718223D01*
X109024401Y-92701747D01*
X109044107Y-92687132D01*
X109065150Y-92674520D01*
X109087329Y-92664030D01*
X109110428Y-92655765D01*
X109134227Y-92649804D01*
X109158495Y-92646204D01*
X109182999Y-92645000D01*
X109833001Y-92645000D01*
X109857505Y-92646204D01*
X109857505Y-92646204D01*
G37*
D11*
X109508000Y-93345000D03*
D10*
G36*
X111907505Y-92646204D02*
G01*
X111931773Y-92649804D01*
X111955572Y-92655765D01*
X111978671Y-92664030D01*
X112000850Y-92674520D01*
X112021893Y-92687132D01*
X112041599Y-92701747D01*
X112059777Y-92718223D01*
X112076253Y-92736401D01*
X112090868Y-92756107D01*
X112103480Y-92777150D01*
X112113970Y-92799329D01*
X112122235Y-92822428D01*
X112128196Y-92846227D01*
X112131796Y-92870495D01*
X112133000Y-92894999D01*
X112133000Y-93795001D01*
X112131796Y-93819505D01*
X112128196Y-93843773D01*
X112122235Y-93867572D01*
X112113970Y-93890671D01*
X112103480Y-93912850D01*
X112090868Y-93933893D01*
X112076253Y-93953599D01*
X112059777Y-93971777D01*
X112041599Y-93988253D01*
X112021893Y-94002868D01*
X112000850Y-94015480D01*
X111978671Y-94025970D01*
X111955572Y-94034235D01*
X111931773Y-94040196D01*
X111907505Y-94043796D01*
X111883001Y-94045000D01*
X111232999Y-94045000D01*
X111208495Y-94043796D01*
X111184227Y-94040196D01*
X111160428Y-94034235D01*
X111137329Y-94025970D01*
X111115150Y-94015480D01*
X111094107Y-94002868D01*
X111074401Y-93988253D01*
X111056223Y-93971777D01*
X111039747Y-93953599D01*
X111025132Y-93933893D01*
X111012520Y-93912850D01*
X111002030Y-93890671D01*
X110993765Y-93867572D01*
X110987804Y-93843773D01*
X110984204Y-93819505D01*
X110983000Y-93795001D01*
X110983000Y-92894999D01*
X110984204Y-92870495D01*
X110987804Y-92846227D01*
X110993765Y-92822428D01*
X111002030Y-92799329D01*
X111012520Y-92777150D01*
X111025132Y-92756107D01*
X111039747Y-92736401D01*
X111056223Y-92718223D01*
X111074401Y-92701747D01*
X111094107Y-92687132D01*
X111115150Y-92674520D01*
X111137329Y-92664030D01*
X111160428Y-92655765D01*
X111184227Y-92649804D01*
X111208495Y-92646204D01*
X111232999Y-92645000D01*
X111883001Y-92645000D01*
X111907505Y-92646204D01*
X111907505Y-92646204D01*
G37*
D11*
X111558000Y-93345000D03*
D10*
G36*
X106013505Y-92519204D02*
G01*
X106037773Y-92522804D01*
X106061572Y-92528765D01*
X106084671Y-92537030D01*
X106106850Y-92547520D01*
X106127893Y-92560132D01*
X106147599Y-92574747D01*
X106165777Y-92591223D01*
X106182253Y-92609401D01*
X106196868Y-92629107D01*
X106209480Y-92650150D01*
X106219970Y-92672329D01*
X106228235Y-92695428D01*
X106234196Y-92719227D01*
X106237796Y-92743495D01*
X106239000Y-92767999D01*
X106239000Y-93668001D01*
X106237796Y-93692505D01*
X106234196Y-93716773D01*
X106228235Y-93740572D01*
X106219970Y-93763671D01*
X106209480Y-93785850D01*
X106196868Y-93806893D01*
X106182253Y-93826599D01*
X106165777Y-93844777D01*
X106147599Y-93861253D01*
X106127893Y-93875868D01*
X106106850Y-93888480D01*
X106084671Y-93898970D01*
X106061572Y-93907235D01*
X106037773Y-93913196D01*
X106013505Y-93916796D01*
X105989001Y-93918000D01*
X105338999Y-93918000D01*
X105314495Y-93916796D01*
X105290227Y-93913196D01*
X105266428Y-93907235D01*
X105243329Y-93898970D01*
X105221150Y-93888480D01*
X105200107Y-93875868D01*
X105180401Y-93861253D01*
X105162223Y-93844777D01*
X105145747Y-93826599D01*
X105131132Y-93806893D01*
X105118520Y-93785850D01*
X105108030Y-93763671D01*
X105099765Y-93740572D01*
X105093804Y-93716773D01*
X105090204Y-93692505D01*
X105089000Y-93668001D01*
X105089000Y-92767999D01*
X105090204Y-92743495D01*
X105093804Y-92719227D01*
X105099765Y-92695428D01*
X105108030Y-92672329D01*
X105118520Y-92650150D01*
X105131132Y-92629107D01*
X105145747Y-92609401D01*
X105162223Y-92591223D01*
X105180401Y-92574747D01*
X105200107Y-92560132D01*
X105221150Y-92547520D01*
X105243329Y-92537030D01*
X105266428Y-92528765D01*
X105290227Y-92522804D01*
X105314495Y-92519204D01*
X105338999Y-92518000D01*
X105989001Y-92518000D01*
X106013505Y-92519204D01*
X106013505Y-92519204D01*
G37*
D11*
X105664000Y-93218000D03*
D10*
G36*
X103963505Y-92519204D02*
G01*
X103987773Y-92522804D01*
X104011572Y-92528765D01*
X104034671Y-92537030D01*
X104056850Y-92547520D01*
X104077893Y-92560132D01*
X104097599Y-92574747D01*
X104115777Y-92591223D01*
X104132253Y-92609401D01*
X104146868Y-92629107D01*
X104159480Y-92650150D01*
X104169970Y-92672329D01*
X104178235Y-92695428D01*
X104184196Y-92719227D01*
X104187796Y-92743495D01*
X104189000Y-92767999D01*
X104189000Y-93668001D01*
X104187796Y-93692505D01*
X104184196Y-93716773D01*
X104178235Y-93740572D01*
X104169970Y-93763671D01*
X104159480Y-93785850D01*
X104146868Y-93806893D01*
X104132253Y-93826599D01*
X104115777Y-93844777D01*
X104097599Y-93861253D01*
X104077893Y-93875868D01*
X104056850Y-93888480D01*
X104034671Y-93898970D01*
X104011572Y-93907235D01*
X103987773Y-93913196D01*
X103963505Y-93916796D01*
X103939001Y-93918000D01*
X103288999Y-93918000D01*
X103264495Y-93916796D01*
X103240227Y-93913196D01*
X103216428Y-93907235D01*
X103193329Y-93898970D01*
X103171150Y-93888480D01*
X103150107Y-93875868D01*
X103130401Y-93861253D01*
X103112223Y-93844777D01*
X103095747Y-93826599D01*
X103081132Y-93806893D01*
X103068520Y-93785850D01*
X103058030Y-93763671D01*
X103049765Y-93740572D01*
X103043804Y-93716773D01*
X103040204Y-93692505D01*
X103039000Y-93668001D01*
X103039000Y-92767999D01*
X103040204Y-92743495D01*
X103043804Y-92719227D01*
X103049765Y-92695428D01*
X103058030Y-92672329D01*
X103068520Y-92650150D01*
X103081132Y-92629107D01*
X103095747Y-92609401D01*
X103112223Y-92591223D01*
X103130401Y-92574747D01*
X103150107Y-92560132D01*
X103171150Y-92547520D01*
X103193329Y-92537030D01*
X103216428Y-92528765D01*
X103240227Y-92522804D01*
X103264495Y-92519204D01*
X103288999Y-92518000D01*
X103939001Y-92518000D01*
X103963505Y-92519204D01*
X103963505Y-92519204D01*
G37*
D11*
X103614000Y-93218000D03*
D10*
G36*
X80876505Y-76351204D02*
G01*
X80900773Y-76354804D01*
X80924572Y-76360765D01*
X80947671Y-76369030D01*
X80969850Y-76379520D01*
X80990893Y-76392132D01*
X81010599Y-76406747D01*
X81028777Y-76423223D01*
X81045253Y-76441401D01*
X81059868Y-76461107D01*
X81072480Y-76482150D01*
X81082970Y-76504329D01*
X81091235Y-76527428D01*
X81097196Y-76551227D01*
X81100796Y-76575495D01*
X81102000Y-76599999D01*
X81102000Y-77500001D01*
X81100796Y-77524505D01*
X81097196Y-77548773D01*
X81091235Y-77572572D01*
X81082970Y-77595671D01*
X81072480Y-77617850D01*
X81059868Y-77638893D01*
X81045253Y-77658599D01*
X81028777Y-77676777D01*
X81010599Y-77693253D01*
X80990893Y-77707868D01*
X80969850Y-77720480D01*
X80947671Y-77730970D01*
X80924572Y-77739235D01*
X80900773Y-77745196D01*
X80876505Y-77748796D01*
X80852001Y-77750000D01*
X80201999Y-77750000D01*
X80177495Y-77748796D01*
X80153227Y-77745196D01*
X80129428Y-77739235D01*
X80106329Y-77730970D01*
X80084150Y-77720480D01*
X80063107Y-77707868D01*
X80043401Y-77693253D01*
X80025223Y-77676777D01*
X80008747Y-77658599D01*
X79994132Y-77638893D01*
X79981520Y-77617850D01*
X79971030Y-77595671D01*
X79962765Y-77572572D01*
X79956804Y-77548773D01*
X79953204Y-77524505D01*
X79952000Y-77500001D01*
X79952000Y-76599999D01*
X79953204Y-76575495D01*
X79956804Y-76551227D01*
X79962765Y-76527428D01*
X79971030Y-76504329D01*
X79981520Y-76482150D01*
X79994132Y-76461107D01*
X80008747Y-76441401D01*
X80025223Y-76423223D01*
X80043401Y-76406747D01*
X80063107Y-76392132D01*
X80084150Y-76379520D01*
X80106329Y-76369030D01*
X80129428Y-76360765D01*
X80153227Y-76354804D01*
X80177495Y-76351204D01*
X80201999Y-76350000D01*
X80852001Y-76350000D01*
X80876505Y-76351204D01*
X80876505Y-76351204D01*
G37*
D11*
X80527000Y-77050000D03*
D10*
G36*
X78826505Y-76351204D02*
G01*
X78850773Y-76354804D01*
X78874572Y-76360765D01*
X78897671Y-76369030D01*
X78919850Y-76379520D01*
X78940893Y-76392132D01*
X78960599Y-76406747D01*
X78978777Y-76423223D01*
X78995253Y-76441401D01*
X79009868Y-76461107D01*
X79022480Y-76482150D01*
X79032970Y-76504329D01*
X79041235Y-76527428D01*
X79047196Y-76551227D01*
X79050796Y-76575495D01*
X79052000Y-76599999D01*
X79052000Y-77500001D01*
X79050796Y-77524505D01*
X79047196Y-77548773D01*
X79041235Y-77572572D01*
X79032970Y-77595671D01*
X79022480Y-77617850D01*
X79009868Y-77638893D01*
X78995253Y-77658599D01*
X78978777Y-77676777D01*
X78960599Y-77693253D01*
X78940893Y-77707868D01*
X78919850Y-77720480D01*
X78897671Y-77730970D01*
X78874572Y-77739235D01*
X78850773Y-77745196D01*
X78826505Y-77748796D01*
X78802001Y-77750000D01*
X78151999Y-77750000D01*
X78127495Y-77748796D01*
X78103227Y-77745196D01*
X78079428Y-77739235D01*
X78056329Y-77730970D01*
X78034150Y-77720480D01*
X78013107Y-77707868D01*
X77993401Y-77693253D01*
X77975223Y-77676777D01*
X77958747Y-77658599D01*
X77944132Y-77638893D01*
X77931520Y-77617850D01*
X77921030Y-77595671D01*
X77912765Y-77572572D01*
X77906804Y-77548773D01*
X77903204Y-77524505D01*
X77902000Y-77500001D01*
X77902000Y-76599999D01*
X77903204Y-76575495D01*
X77906804Y-76551227D01*
X77912765Y-76527428D01*
X77921030Y-76504329D01*
X77931520Y-76482150D01*
X77944132Y-76461107D01*
X77958747Y-76441401D01*
X77975223Y-76423223D01*
X77993401Y-76406747D01*
X78013107Y-76392132D01*
X78034150Y-76379520D01*
X78056329Y-76369030D01*
X78079428Y-76360765D01*
X78103227Y-76354804D01*
X78127495Y-76351204D01*
X78151999Y-76350000D01*
X78802001Y-76350000D01*
X78826505Y-76351204D01*
X78826505Y-76351204D01*
G37*
D11*
X78477000Y-77050000D03*
D12*
X93759000Y-89027000D03*
X93759000Y-90297000D03*
X93759000Y-91567000D03*
X93759000Y-92837000D03*
X101059000Y-92837000D03*
X101059000Y-91567000D03*
X101059000Y-90297000D03*
X101059000Y-89027000D03*
X101059000Y-81788000D03*
X101059000Y-83058000D03*
X101059000Y-84328000D03*
X101059000Y-85598000D03*
X93759000Y-85598000D03*
X93759000Y-84328000D03*
X93759000Y-83058000D03*
X93759000Y-81788000D03*
D13*
X103742000Y-80391000D03*
X103742000Y-81661000D03*
X103742000Y-82931000D03*
X103742000Y-84201000D03*
X111142000Y-84201000D03*
X111142000Y-82931000D03*
X111142000Y-81661000D03*
X111142000Y-80391000D03*
D14*
X82163000Y-93354000D03*
D15*
X80763000Y-86354000D03*
X80763000Y-87154000D03*
X80763000Y-87954000D03*
X80763000Y-88754000D03*
X80763000Y-89554000D03*
X80763000Y-90354000D03*
X80763000Y-91154000D03*
X80763000Y-91954000D03*
D14*
X82963000Y-93354000D03*
X83763000Y-93354000D03*
X84563000Y-93354000D03*
X85363000Y-93354000D03*
X86163000Y-93354000D03*
X86963000Y-93354000D03*
X87763000Y-93354000D03*
D15*
X89163000Y-91954000D03*
X89163000Y-91154000D03*
X89163000Y-90354000D03*
X89163000Y-89554000D03*
X89163000Y-88754000D03*
X89163000Y-87954000D03*
X89163000Y-87154000D03*
X89163000Y-86354000D03*
D14*
X87763000Y-84954000D03*
X86963000Y-84954000D03*
X86163000Y-84954000D03*
X85363000Y-84954000D03*
X84563000Y-84954000D03*
X83763000Y-84954000D03*
X82963000Y-84954000D03*
X82163000Y-84954000D03*
D16*
X109133000Y-89535000D03*
X111633000Y-89535000D03*
D17*
X79569000Y-80391000D03*
X84769000Y-80391000D03*
M02*
