G04 #@! TF.GenerationSoftware,KiCad,Pcbnew,(5.1.4)-1*
G04 #@! TF.CreationDate,2019-10-15T21:25:22-05:00*
G04 #@! TF.ProjectId,BACEE,42414345-452e-46b6-9963-61645f706362,1*
G04 #@! TF.SameCoordinates,Original*
G04 #@! TF.FileFunction,Legend,Bot*
G04 #@! TF.FilePolarity,Positive*
%FSLAX46Y46*%
G04 Gerber Fmt 4.6, Leading zero omitted, Abs format (unit mm)*
G04 Created by KiCad (PCBNEW (5.1.4)-1) date 2019-10-15 21:25:22*
%MOMM*%
%LPD*%
G04 APERTURE LIST*
%ADD10C,0.150000*%
G04 APERTURE END LIST*
D10*
X104201028Y-83311271D02*
X104201028Y-81811271D01*
X103843885Y-81811271D01*
X103629600Y-81882700D01*
X103486742Y-82025557D01*
X103415314Y-82168414D01*
X103343885Y-82454128D01*
X103343885Y-82668414D01*
X103415314Y-82954128D01*
X103486742Y-83096985D01*
X103629600Y-83239842D01*
X103843885Y-83311271D01*
X104201028Y-83311271D01*
X102129600Y-83239842D02*
X102272457Y-83311271D01*
X102558171Y-83311271D01*
X102701028Y-83239842D01*
X102772457Y-83096985D01*
X102772457Y-82525557D01*
X102701028Y-82382700D01*
X102558171Y-82311271D01*
X102272457Y-82311271D01*
X102129600Y-82382700D01*
X102058171Y-82525557D01*
X102058171Y-82668414D01*
X102772457Y-82811271D01*
X101486742Y-83239842D02*
X101343885Y-83311271D01*
X101058171Y-83311271D01*
X100915314Y-83239842D01*
X100843885Y-83096985D01*
X100843885Y-83025557D01*
X100915314Y-82882700D01*
X101058171Y-82811271D01*
X101272457Y-82811271D01*
X101415314Y-82739842D01*
X101486742Y-82596985D01*
X101486742Y-82525557D01*
X101415314Y-82382700D01*
X101272457Y-82311271D01*
X101058171Y-82311271D01*
X100915314Y-82382700D01*
X100201028Y-83311271D02*
X100201028Y-82311271D01*
X100201028Y-81811271D02*
X100272457Y-81882700D01*
X100201028Y-81954128D01*
X100129600Y-81882700D01*
X100201028Y-81811271D01*
X100201028Y-81954128D01*
X98843885Y-82311271D02*
X98843885Y-83525557D01*
X98915314Y-83668414D01*
X98986742Y-83739842D01*
X99129600Y-83811271D01*
X99343885Y-83811271D01*
X99486742Y-83739842D01*
X98843885Y-83239842D02*
X98986742Y-83311271D01*
X99272457Y-83311271D01*
X99415314Y-83239842D01*
X99486742Y-83168414D01*
X99558171Y-83025557D01*
X99558171Y-82596985D01*
X99486742Y-82454128D01*
X99415314Y-82382700D01*
X99272457Y-82311271D01*
X98986742Y-82311271D01*
X98843885Y-82382700D01*
X98129600Y-82311271D02*
X98129600Y-83311271D01*
X98129600Y-82454128D02*
X98058171Y-82382700D01*
X97915314Y-82311271D01*
X97701028Y-82311271D01*
X97558171Y-82382700D01*
X97486742Y-82525557D01*
X97486742Y-83311271D01*
X96201028Y-83239842D02*
X96343885Y-83311271D01*
X96629600Y-83311271D01*
X96772457Y-83239842D01*
X96843885Y-83096985D01*
X96843885Y-82525557D01*
X96772457Y-82382700D01*
X96629600Y-82311271D01*
X96343885Y-82311271D01*
X96201028Y-82382700D01*
X96129600Y-82525557D01*
X96129600Y-82668414D01*
X96843885Y-82811271D01*
X94843885Y-83311271D02*
X94843885Y-81811271D01*
X94843885Y-83239842D02*
X94986742Y-83311271D01*
X95272457Y-83311271D01*
X95415314Y-83239842D01*
X95486742Y-83168414D01*
X95558171Y-83025557D01*
X95558171Y-82596985D01*
X95486742Y-82454128D01*
X95415314Y-82382700D01*
X95272457Y-82311271D01*
X94986742Y-82311271D01*
X94843885Y-82382700D01*
X92986742Y-83311271D02*
X92986742Y-81811271D01*
X92986742Y-82382700D02*
X92843885Y-82311271D01*
X92558171Y-82311271D01*
X92415314Y-82382700D01*
X92343885Y-82454128D01*
X92272457Y-82596985D01*
X92272457Y-83025557D01*
X92343885Y-83168414D01*
X92415314Y-83239842D01*
X92558171Y-83311271D01*
X92843885Y-83311271D01*
X92986742Y-83239842D01*
X91772457Y-82311271D02*
X91415314Y-83311271D01*
X91058171Y-82311271D02*
X91415314Y-83311271D01*
X91558171Y-83668414D01*
X91629600Y-83739842D01*
X91772457Y-83811271D01*
X104558171Y-85711271D02*
X104558171Y-84211271D01*
X103986742Y-84211271D01*
X103843885Y-84282700D01*
X103772457Y-84354128D01*
X103701028Y-84496985D01*
X103701028Y-84711271D01*
X103772457Y-84854128D01*
X103843885Y-84925557D01*
X103986742Y-84996985D01*
X104558171Y-84996985D01*
X103058171Y-85711271D02*
X103058171Y-84711271D01*
X103058171Y-84996985D02*
X102986742Y-84854128D01*
X102915314Y-84782700D01*
X102772457Y-84711271D01*
X102629600Y-84711271D01*
X101486742Y-84711271D02*
X101486742Y-85711271D01*
X102129600Y-84711271D02*
X102129600Y-85496985D01*
X102058171Y-85639842D01*
X101915314Y-85711271D01*
X101701028Y-85711271D01*
X101558171Y-85639842D01*
X101486742Y-85568414D01*
X100129600Y-85711271D02*
X100129600Y-84211271D01*
X100129600Y-85639842D02*
X100272457Y-85711271D01*
X100558171Y-85711271D01*
X100701028Y-85639842D01*
X100772457Y-85568414D01*
X100843885Y-85425557D01*
X100843885Y-84996985D01*
X100772457Y-84854128D01*
X100701028Y-84782700D01*
X100558171Y-84711271D01*
X100272457Y-84711271D01*
X100129600Y-84782700D01*
X99415314Y-85711271D02*
X99415314Y-84211271D01*
X98772457Y-85711271D02*
X98772457Y-84925557D01*
X98843885Y-84782700D01*
X98986742Y-84711271D01*
X99201028Y-84711271D01*
X99343885Y-84782700D01*
X99415314Y-84854128D01*
X98201028Y-84711271D02*
X97843885Y-85711271D01*
X97486742Y-84711271D01*
X96915314Y-85711271D02*
X96915314Y-84711271D01*
X96915314Y-84211271D02*
X96986742Y-84282700D01*
X96915314Y-84354128D01*
X96843885Y-84282700D01*
X96915314Y-84211271D01*
X96915314Y-84354128D01*
X95272457Y-84211271D02*
X94415314Y-84211271D01*
X94843885Y-85711271D02*
X94843885Y-84211271D01*
X93915314Y-85711271D02*
X93915314Y-84211271D01*
X93272457Y-85711271D02*
X93272457Y-84925557D01*
X93343885Y-84782700D01*
X93486742Y-84711271D01*
X93701028Y-84711271D01*
X93843885Y-84782700D01*
X93915314Y-84854128D01*
X92343885Y-85711271D02*
X92486742Y-85639842D01*
X92558171Y-85568414D01*
X92629600Y-85425557D01*
X92629600Y-84996985D01*
X92558171Y-84854128D01*
X92486742Y-84782700D01*
X92343885Y-84711271D01*
X92129600Y-84711271D01*
X91986742Y-84782700D01*
X91915314Y-84854128D01*
X91843885Y-84996985D01*
X91843885Y-85425557D01*
X91915314Y-85568414D01*
X91986742Y-85639842D01*
X92129600Y-85711271D01*
X92343885Y-85711271D01*
X91415314Y-84711271D02*
X90843885Y-84711271D01*
X91201028Y-84211271D02*
X91201028Y-85496985D01*
X91129600Y-85639842D01*
X90986742Y-85711271D01*
X90843885Y-85711271D01*
X89701028Y-85711271D02*
X89701028Y-84925557D01*
X89772457Y-84782700D01*
X89915314Y-84711271D01*
X90201028Y-84711271D01*
X90343885Y-84782700D01*
X89701028Y-85639842D02*
X89843885Y-85711271D01*
X90201028Y-85711271D01*
X90343885Y-85639842D01*
X90415314Y-85496985D01*
X90415314Y-85354128D01*
X90343885Y-85211271D01*
X90201028Y-85139842D01*
X89843885Y-85139842D01*
X89701028Y-85068414D01*
M02*
