M48
; DRILL file {KiCad (5.1.4)-1} date 15-Oct-19 9:25:50 PM
; FORMAT={-:-/ absolute / inch / decimal}
; #@! TF.CreationDate,2019-10-15T21:25:50-05:00
; #@! TF.GenerationSoftware,Kicad,Pcbnew,(5.1.4)-1
; #@! TF.FileFunction,Plated,1,2,PTH
FMAT,2
INCH
T1C0.0157
T2C0.0236
T3C0.0394
%
G90
G05
T1
X3.0751Y-3.4458
X3.1734Y-3.3173
X3.1973Y-3.3642
X3.2329Y-3.3998
X3.2342Y-3.0335
X3.2371Y-3.6199
X3.2824Y-3.5601
X3.3314Y-3.3983
X3.3333Y-3.4579
X3.3672Y-3.4192
X3.5989Y-3.4425
X3.7362Y-3.1821
X4.0359Y-3.6328
X4.0478Y-3.3664
X4.0735Y-3.6038
X4.0845Y-3.4266
T2
X3.1215Y-3.4535
T3
X2.895Y-3.375
X2.895Y-3.475
X2.895Y-3.575
X2.995Y-3.375
X2.995Y-3.475
X2.995Y-3.575
X2.895Y-3.06
X2.895Y-3.16
X3.865Y-3.0
X3.965Y-3.0
X4.065Y-3.0
X4.165Y-3.0
X3.31Y-3.81
X3.41Y-3.81
X3.51Y-3.81
X3.61Y-3.81
X3.71Y-3.81
X3.81Y-3.81
X3.91Y-3.81
X4.01Y-3.81
X4.11Y-3.81
X3.355Y-3.0
X3.455Y-3.0
X3.555Y-3.0
X3.655Y-3.0
T0
M30
