G04 #@! TF.GenerationSoftware,KiCad,Pcbnew,(5.1.4)-1*
G04 #@! TF.CreationDate,2019-10-15T21:25:22-05:00*
G04 #@! TF.ProjectId,BACEE,42414345-452e-46b6-9963-61645f706362,1*
G04 #@! TF.SameCoordinates,Original*
G04 #@! TF.FileFunction,Legend,Top*
G04 #@! TF.FilePolarity,Positive*
%FSLAX46Y46*%
G04 Gerber Fmt 4.6, Leading zero omitted, Abs format (unit mm)*
G04 Created by KiCad (PCBNEW (5.1.4)-1) date 2019-10-15 21:25:22*
%MOMM*%
%LPD*%
G04 APERTURE LIST*
%ADD10C,0.125000*%
%ADD11C,0.120000*%
%ADD12C,0.150000*%
%ADD13C,0.100000*%
%ADD14C,0.080000*%
G04 APERTURE END LIST*
D10*
X98487752Y-95260290D02*
X98487752Y-94760290D01*
X98606800Y-94760290D01*
X98678228Y-94784100D01*
X98725847Y-94831719D01*
X98749657Y-94879338D01*
X98773466Y-94974576D01*
X98773466Y-95046004D01*
X98749657Y-95141242D01*
X98725847Y-95188861D01*
X98678228Y-95236480D01*
X98606800Y-95260290D01*
X98487752Y-95260290D01*
X99059180Y-94974576D02*
X99011561Y-94950766D01*
X98987752Y-94926957D01*
X98963942Y-94879338D01*
X98963942Y-94855528D01*
X98987752Y-94807909D01*
X99011561Y-94784100D01*
X99059180Y-94760290D01*
X99154419Y-94760290D01*
X99202038Y-94784100D01*
X99225847Y-94807909D01*
X99249657Y-94855528D01*
X99249657Y-94879338D01*
X99225847Y-94926957D01*
X99202038Y-94950766D01*
X99154419Y-94974576D01*
X99059180Y-94974576D01*
X99011561Y-94998385D01*
X98987752Y-95022195D01*
X98963942Y-95069814D01*
X98963942Y-95165052D01*
X98987752Y-95212671D01*
X99011561Y-95236480D01*
X99059180Y-95260290D01*
X99154419Y-95260290D01*
X99202038Y-95236480D01*
X99225847Y-95212671D01*
X99249657Y-95165052D01*
X99249657Y-95069814D01*
X99225847Y-95022195D01*
X99202038Y-94998385D01*
X99154419Y-94974576D01*
X95693752Y-95082490D02*
X95693752Y-94582490D01*
X95812800Y-94582490D01*
X95884228Y-94606300D01*
X95931847Y-94653919D01*
X95955657Y-94701538D01*
X95979466Y-94796776D01*
X95979466Y-94868204D01*
X95955657Y-94963442D01*
X95931847Y-95011061D01*
X95884228Y-95058680D01*
X95812800Y-95082490D01*
X95693752Y-95082490D01*
X96146133Y-94582490D02*
X96479466Y-94582490D01*
X96265180Y-95082490D01*
X93547452Y-95018990D02*
X93547452Y-94518990D01*
X93666500Y-94518990D01*
X93737928Y-94542800D01*
X93785547Y-94590419D01*
X93809357Y-94638038D01*
X93833166Y-94733276D01*
X93833166Y-94804704D01*
X93809357Y-94899942D01*
X93785547Y-94947561D01*
X93737928Y-94995180D01*
X93666500Y-95018990D01*
X93547452Y-95018990D01*
X94261738Y-94518990D02*
X94166500Y-94518990D01*
X94118880Y-94542800D01*
X94095071Y-94566609D01*
X94047452Y-94638038D01*
X94023642Y-94733276D01*
X94023642Y-94923752D01*
X94047452Y-94971371D01*
X94071261Y-94995180D01*
X94118880Y-95018990D01*
X94214119Y-95018990D01*
X94261738Y-94995180D01*
X94285547Y-94971371D01*
X94309357Y-94923752D01*
X94309357Y-94804704D01*
X94285547Y-94757085D01*
X94261738Y-94733276D01*
X94214119Y-94709466D01*
X94118880Y-94709466D01*
X94071261Y-94733276D01*
X94047452Y-94757085D01*
X94023642Y-94804704D01*
X93547452Y-95044390D02*
X93547452Y-94544390D01*
X93666500Y-94544390D01*
X93737928Y-94568200D01*
X93785547Y-94615819D01*
X93809357Y-94663438D01*
X93833166Y-94758676D01*
X93833166Y-94830104D01*
X93809357Y-94925342D01*
X93785547Y-94972961D01*
X93737928Y-95020580D01*
X93666500Y-95044390D01*
X93547452Y-95044390D01*
X94023642Y-94592009D02*
X94047452Y-94568200D01*
X94095071Y-94544390D01*
X94214119Y-94544390D01*
X94261738Y-94568200D01*
X94285547Y-94592009D01*
X94309357Y-94639628D01*
X94309357Y-94687247D01*
X94285547Y-94758676D01*
X93999833Y-95044390D01*
X94309357Y-95044390D01*
X90702652Y-95120590D02*
X90702652Y-94620590D01*
X90821700Y-94620590D01*
X90893128Y-94644400D01*
X90940747Y-94692019D01*
X90964557Y-94739638D01*
X90988366Y-94834876D01*
X90988366Y-94906304D01*
X90964557Y-95001542D01*
X90940747Y-95049161D01*
X90893128Y-95096780D01*
X90821700Y-95120590D01*
X90702652Y-95120590D01*
X91440747Y-94620590D02*
X91202652Y-94620590D01*
X91178842Y-94858685D01*
X91202652Y-94834876D01*
X91250271Y-94811066D01*
X91369319Y-94811066D01*
X91416938Y-94834876D01*
X91440747Y-94858685D01*
X91464557Y-94906304D01*
X91464557Y-95025352D01*
X91440747Y-95072971D01*
X91416938Y-95096780D01*
X91369319Y-95120590D01*
X91250271Y-95120590D01*
X91202652Y-95096780D01*
X91178842Y-95072971D01*
X88416652Y-95222190D02*
X88416652Y-94722190D01*
X88535700Y-94722190D01*
X88607128Y-94746000D01*
X88654747Y-94793619D01*
X88678557Y-94841238D01*
X88702366Y-94936476D01*
X88702366Y-95007904D01*
X88678557Y-95103142D01*
X88654747Y-95150761D01*
X88607128Y-95198380D01*
X88535700Y-95222190D01*
X88416652Y-95222190D01*
X89130938Y-94888857D02*
X89130938Y-95222190D01*
X89011890Y-94698380D02*
X88892842Y-95055523D01*
X89202366Y-95055523D01*
X86143352Y-95120590D02*
X86143352Y-94620590D01*
X86262400Y-94620590D01*
X86333828Y-94644400D01*
X86381447Y-94692019D01*
X86405257Y-94739638D01*
X86429066Y-94834876D01*
X86429066Y-94906304D01*
X86405257Y-95001542D01*
X86381447Y-95049161D01*
X86333828Y-95096780D01*
X86262400Y-95120590D01*
X86143352Y-95120590D01*
X86595733Y-94620590D02*
X86905257Y-94620590D01*
X86738590Y-94811066D01*
X86810019Y-94811066D01*
X86857638Y-94834876D01*
X86881447Y-94858685D01*
X86905257Y-94906304D01*
X86905257Y-95025352D01*
X86881447Y-95072971D01*
X86857638Y-95096780D01*
X86810019Y-95120590D01*
X86667161Y-95120590D01*
X86619542Y-95096780D01*
X86595733Y-95072971D01*
X83781152Y-95044390D02*
X83781152Y-94544390D01*
X83900200Y-94544390D01*
X83971628Y-94568200D01*
X84019247Y-94615819D01*
X84043057Y-94663438D01*
X84066866Y-94758676D01*
X84066866Y-94830104D01*
X84043057Y-94925342D01*
X84019247Y-94972961D01*
X83971628Y-95020580D01*
X83900200Y-95044390D01*
X83781152Y-95044390D01*
X84257342Y-94592009D02*
X84281152Y-94568200D01*
X84328771Y-94544390D01*
X84447819Y-94544390D01*
X84495438Y-94568200D01*
X84519247Y-94592009D01*
X84543057Y-94639628D01*
X84543057Y-94687247D01*
X84519247Y-94758676D01*
X84233533Y-95044390D01*
X84543057Y-95044390D01*
X103036761Y-94544390D02*
X103203428Y-95044390D01*
X103370095Y-94544390D01*
X103751047Y-95020580D02*
X103703428Y-95044390D01*
X103608190Y-95044390D01*
X103560571Y-95020580D01*
X103536761Y-94996771D01*
X103512952Y-94949152D01*
X103512952Y-94806295D01*
X103536761Y-94758676D01*
X103560571Y-94734866D01*
X103608190Y-94711057D01*
X103703428Y-94711057D01*
X103751047Y-94734866D01*
X104179619Y-95020580D02*
X104132000Y-95044390D01*
X104036761Y-95044390D01*
X103989142Y-95020580D01*
X103965333Y-94996771D01*
X103941523Y-94949152D01*
X103941523Y-94806295D01*
X103965333Y-94758676D01*
X103989142Y-94734866D01*
X104036761Y-94711057D01*
X104132000Y-94711057D01*
X104179619Y-94734866D01*
X101155547Y-94263400D02*
X101107928Y-94239590D01*
X101036500Y-94239590D01*
X100965071Y-94263400D01*
X100917452Y-94311019D01*
X100893642Y-94358638D01*
X100869833Y-94453876D01*
X100869833Y-94525304D01*
X100893642Y-94620542D01*
X100917452Y-94668161D01*
X100965071Y-94715780D01*
X101036500Y-94739590D01*
X101084119Y-94739590D01*
X101155547Y-94715780D01*
X101179357Y-94691971D01*
X101179357Y-94525304D01*
X101084119Y-94525304D01*
X101393642Y-94739590D02*
X101393642Y-94239590D01*
X101679357Y-94739590D01*
X101679357Y-94239590D01*
X101917452Y-94739590D02*
X101917452Y-94239590D01*
X102036500Y-94239590D01*
X102107928Y-94263400D01*
X102155547Y-94311019D01*
X102179357Y-94358638D01*
X102203166Y-94453876D01*
X102203166Y-94525304D01*
X102179357Y-94620542D01*
X102155547Y-94668161D01*
X102107928Y-94715780D01*
X102036500Y-94739590D01*
X101917452Y-94739590D01*
X104602042Y-78574080D02*
X104673471Y-78597890D01*
X104792519Y-78597890D01*
X104840138Y-78574080D01*
X104863947Y-78550271D01*
X104887757Y-78502652D01*
X104887757Y-78455033D01*
X104863947Y-78407414D01*
X104840138Y-78383604D01*
X104792519Y-78359795D01*
X104697280Y-78335985D01*
X104649661Y-78312176D01*
X104625852Y-78288366D01*
X104602042Y-78240747D01*
X104602042Y-78193128D01*
X104625852Y-78145509D01*
X104649661Y-78121700D01*
X104697280Y-78097890D01*
X104816328Y-78097890D01*
X104887757Y-78121700D01*
X105387757Y-78550271D02*
X105363947Y-78574080D01*
X105292519Y-78597890D01*
X105244900Y-78597890D01*
X105173471Y-78574080D01*
X105125852Y-78526461D01*
X105102042Y-78478842D01*
X105078233Y-78383604D01*
X105078233Y-78312176D01*
X105102042Y-78216938D01*
X105125852Y-78169319D01*
X105173471Y-78121700D01*
X105244900Y-78097890D01*
X105292519Y-78097890D01*
X105363947Y-78121700D01*
X105387757Y-78145509D01*
X105602042Y-78597890D02*
X105602042Y-78097890D01*
X105887757Y-78597890D02*
X105673471Y-78312176D01*
X105887757Y-78097890D02*
X105602042Y-78383604D01*
X102796257Y-78662980D02*
X102867685Y-78686790D01*
X102986733Y-78686790D01*
X103034352Y-78662980D01*
X103058161Y-78639171D01*
X103081971Y-78591552D01*
X103081971Y-78543933D01*
X103058161Y-78496314D01*
X103034352Y-78472504D01*
X102986733Y-78448695D01*
X102891495Y-78424885D01*
X102843876Y-78401076D01*
X102820066Y-78377266D01*
X102796257Y-78329647D01*
X102796257Y-78282028D01*
X102820066Y-78234409D01*
X102843876Y-78210600D01*
X102891495Y-78186790D01*
X103010542Y-78186790D01*
X103081971Y-78210600D01*
X103296257Y-78686790D02*
X103296257Y-78186790D01*
X103415304Y-78186790D01*
X103486733Y-78210600D01*
X103534352Y-78258219D01*
X103558161Y-78305838D01*
X103581971Y-78401076D01*
X103581971Y-78472504D01*
X103558161Y-78567742D01*
X103534352Y-78615361D01*
X103486733Y-78662980D01*
X103415304Y-78686790D01*
X103296257Y-78686790D01*
X103772447Y-78543933D02*
X104010542Y-78543933D01*
X103724828Y-78686790D02*
X103891495Y-78186790D01*
X104058161Y-78686790D01*
X99836361Y-78059790D02*
X100003028Y-78559790D01*
X100169695Y-78059790D01*
X100550647Y-78535980D02*
X100503028Y-78559790D01*
X100407790Y-78559790D01*
X100360171Y-78535980D01*
X100336361Y-78512171D01*
X100312552Y-78464552D01*
X100312552Y-78321695D01*
X100336361Y-78274076D01*
X100360171Y-78250266D01*
X100407790Y-78226457D01*
X100503028Y-78226457D01*
X100550647Y-78250266D01*
X100979219Y-78535980D02*
X100931600Y-78559790D01*
X100836361Y-78559790D01*
X100788742Y-78535980D01*
X100764933Y-78512171D01*
X100741123Y-78464552D01*
X100741123Y-78321695D01*
X100764933Y-78274076D01*
X100788742Y-78250266D01*
X100836361Y-78226457D01*
X100931600Y-78226457D01*
X100979219Y-78250266D01*
X97663047Y-78261400D02*
X97615428Y-78237590D01*
X97544000Y-78237590D01*
X97472571Y-78261400D01*
X97424952Y-78309019D01*
X97401142Y-78356638D01*
X97377333Y-78451876D01*
X97377333Y-78523304D01*
X97401142Y-78618542D01*
X97424952Y-78666161D01*
X97472571Y-78713780D01*
X97544000Y-78737590D01*
X97591619Y-78737590D01*
X97663047Y-78713780D01*
X97686857Y-78689971D01*
X97686857Y-78523304D01*
X97591619Y-78523304D01*
X97901142Y-78737590D02*
X97901142Y-78237590D01*
X98186857Y-78737590D01*
X98186857Y-78237590D01*
X98424952Y-78737590D02*
X98424952Y-78237590D01*
X98544000Y-78237590D01*
X98615428Y-78261400D01*
X98663047Y-78309019D01*
X98686857Y-78356638D01*
X98710666Y-78451876D01*
X98710666Y-78523304D01*
X98686857Y-78618542D01*
X98663047Y-78666161D01*
X98615428Y-78713780D01*
X98544000Y-78737590D01*
X98424952Y-78737590D01*
X92773547Y-78085190D02*
X93059261Y-78085190D01*
X92916404Y-78585190D02*
X92916404Y-78085190D01*
X93178309Y-78085190D02*
X93511642Y-78585190D01*
X93511642Y-78085190D02*
X93178309Y-78585190D01*
X89883466Y-78305790D02*
X89716800Y-78067695D01*
X89597752Y-78305790D02*
X89597752Y-77805790D01*
X89788228Y-77805790D01*
X89835847Y-77829600D01*
X89859657Y-77853409D01*
X89883466Y-77901028D01*
X89883466Y-77972457D01*
X89859657Y-78020076D01*
X89835847Y-78043885D01*
X89788228Y-78067695D01*
X89597752Y-78067695D01*
X90050133Y-77805790D02*
X90383466Y-78305790D01*
X90383466Y-77805790D02*
X90050133Y-78305790D01*
X86641061Y-77805790D02*
X86807728Y-78305790D01*
X86974395Y-77805790D01*
X87355347Y-78281980D02*
X87307728Y-78305790D01*
X87212490Y-78305790D01*
X87164871Y-78281980D01*
X87141061Y-78258171D01*
X87117252Y-78210552D01*
X87117252Y-78067695D01*
X87141061Y-78020076D01*
X87164871Y-77996266D01*
X87212490Y-77972457D01*
X87307728Y-77972457D01*
X87355347Y-77996266D01*
X87783919Y-78281980D02*
X87736300Y-78305790D01*
X87641061Y-78305790D01*
X87593442Y-78281980D01*
X87569633Y-78258171D01*
X87545823Y-78210552D01*
X87545823Y-78067695D01*
X87569633Y-78020076D01*
X87593442Y-77996266D01*
X87641061Y-77972457D01*
X87736300Y-77972457D01*
X87783919Y-77996266D01*
X84645547Y-77855000D02*
X84597928Y-77831190D01*
X84526500Y-77831190D01*
X84455071Y-77855000D01*
X84407452Y-77902619D01*
X84383642Y-77950238D01*
X84359833Y-78045476D01*
X84359833Y-78116904D01*
X84383642Y-78212142D01*
X84407452Y-78259761D01*
X84455071Y-78307380D01*
X84526500Y-78331190D01*
X84574119Y-78331190D01*
X84645547Y-78307380D01*
X84669357Y-78283571D01*
X84669357Y-78116904D01*
X84574119Y-78116904D01*
X84883642Y-78331190D02*
X84883642Y-77831190D01*
X85169357Y-78331190D01*
X85169357Y-77831190D01*
X85407452Y-78331190D02*
X85407452Y-77831190D01*
X85526500Y-77831190D01*
X85597928Y-77855000D01*
X85645547Y-77902619D01*
X85669357Y-77950238D01*
X85693166Y-78045476D01*
X85693166Y-78116904D01*
X85669357Y-78212142D01*
X85645547Y-78259761D01*
X85597928Y-78307380D01*
X85526500Y-78331190D01*
X85407452Y-78331190D01*
D11*
X72203000Y-78994000D02*
X74863000Y-78994000D01*
X72203000Y-78994000D02*
X72203000Y-81594000D01*
X72203000Y-81594000D02*
X74863000Y-81594000D01*
X74863000Y-78994000D02*
X74863000Y-81594000D01*
X74863000Y-76394000D02*
X74863000Y-77724000D01*
X73533000Y-76394000D02*
X74863000Y-76394000D01*
X89663748Y-81586000D02*
X90186252Y-81586000D01*
X89663748Y-83006000D02*
X90186252Y-83006000D01*
X89663748Y-80085000D02*
X90186252Y-80085000D01*
X89663748Y-78665000D02*
X90186252Y-78665000D01*
X105154252Y-90118000D02*
X104631748Y-90118000D01*
X105154252Y-88698000D02*
X104631748Y-88698000D01*
X111533000Y-92385000D02*
X108673000Y-92385000D01*
X108673000Y-92385000D02*
X108673000Y-94305000D01*
X108673000Y-94305000D02*
X111533000Y-94305000D01*
X85344000Y-98104000D02*
X85344000Y-95444000D01*
X85344000Y-98104000D02*
X105724000Y-98104000D01*
X105724000Y-98104000D02*
X105724000Y-95444000D01*
X85344000Y-95444000D02*
X105724000Y-95444000D01*
X82744000Y-95444000D02*
X84074000Y-95444000D01*
X82744000Y-96774000D02*
X82744000Y-95444000D01*
X86487000Y-77530000D02*
X86487000Y-74870000D01*
X86487000Y-77530000D02*
X94167000Y-77530000D01*
X94167000Y-77530000D02*
X94167000Y-74870000D01*
X86487000Y-74870000D02*
X94167000Y-74870000D01*
X83887000Y-74870000D02*
X85217000Y-74870000D01*
X83887000Y-76200000D02*
X83887000Y-74870000D01*
X72203000Y-84395000D02*
X74803000Y-84395000D01*
X72203000Y-84395000D02*
X72203000Y-92135000D01*
X72203000Y-92135000D02*
X77403000Y-92135000D01*
X77403000Y-86995000D02*
X77403000Y-92135000D01*
X74803000Y-86995000D02*
X77403000Y-86995000D01*
X74803000Y-84395000D02*
X74803000Y-86995000D01*
X77403000Y-84395000D02*
X77403000Y-85725000D01*
X76073000Y-84395000D02*
X77403000Y-84395000D01*
X96841000Y-76200000D02*
X96841000Y-74870000D01*
X96841000Y-74870000D02*
X98171000Y-74870000D01*
X99441000Y-74870000D02*
X107121000Y-74870000D01*
X107121000Y-77530000D02*
X107121000Y-74870000D01*
X99441000Y-77530000D02*
X107121000Y-77530000D01*
X99441000Y-77530000D02*
X99441000Y-74870000D01*
X104377748Y-93928000D02*
X104900252Y-93928000D01*
X104377748Y-92508000D02*
X104900252Y-92508000D01*
X79763252Y-77760000D02*
X79240748Y-77760000D01*
X79763252Y-76340000D02*
X79240748Y-76340000D01*
D12*
X94659000Y-88177000D02*
X94659000Y-88382000D01*
X100159000Y-88177000D02*
X100159000Y-88477000D01*
X100159000Y-93687000D02*
X100159000Y-93387000D01*
X94659000Y-93687000D02*
X94659000Y-93387000D01*
X94659000Y-88177000D02*
X100159000Y-88177000D01*
X94659000Y-93687000D02*
X100159000Y-93687000D01*
X94659000Y-88382000D02*
X92909000Y-88382000D01*
X94659000Y-81143000D02*
X92909000Y-81143000D01*
X94659000Y-86448000D02*
X100159000Y-86448000D01*
X94659000Y-80938000D02*
X100159000Y-80938000D01*
X94659000Y-86448000D02*
X94659000Y-86148000D01*
X100159000Y-86448000D02*
X100159000Y-86148000D01*
X100159000Y-80938000D02*
X100159000Y-81238000D01*
X94659000Y-80938000D02*
X94659000Y-81143000D01*
X104692000Y-79091000D02*
X104692000Y-79746000D01*
X110192000Y-79091000D02*
X110192000Y-79841000D01*
X110192000Y-85501000D02*
X110192000Y-84751000D01*
X104692000Y-85501000D02*
X104692000Y-84751000D01*
X104692000Y-79091000D02*
X110192000Y-79091000D01*
X104692000Y-85501000D02*
X110192000Y-85501000D01*
X104692000Y-79746000D02*
X102942000Y-79746000D01*
D13*
X81813000Y-85554000D02*
X81713000Y-85554000D01*
X81713000Y-85554000D02*
X81363000Y-85904000D01*
X81363000Y-85904000D02*
X81363000Y-86004000D01*
X81363000Y-86004000D02*
X80063000Y-86004000D01*
X88563000Y-85554000D02*
X88113000Y-85554000D01*
X88563000Y-85554000D02*
X88563000Y-86004000D01*
X88563000Y-92754000D02*
X88563000Y-92304000D01*
X88563000Y-92754000D02*
X88113000Y-92754000D01*
X81363000Y-92754000D02*
X81813000Y-92754000D01*
X81363000Y-92754000D02*
X81363000Y-92304000D01*
D11*
X109833000Y-88585000D02*
X110933000Y-88585000D01*
X109833000Y-90485000D02*
X110933000Y-90485000D01*
X108433000Y-88635000D02*
X108433000Y-90435000D01*
X84869000Y-78591000D02*
X77619000Y-78591000D01*
X77619000Y-78591000D02*
X77619000Y-82191000D01*
X77619000Y-82191000D02*
X84869000Y-82191000D01*
D10*
X73140142Y-74918285D02*
X73211571Y-74942095D01*
X73235380Y-74965904D01*
X73259190Y-75013523D01*
X73259190Y-75084952D01*
X73235380Y-75132571D01*
X73211571Y-75156380D01*
X73163952Y-75180190D01*
X72973476Y-75180190D01*
X72973476Y-74680190D01*
X73140142Y-74680190D01*
X73187761Y-74704000D01*
X73211571Y-74727809D01*
X73235380Y-74775428D01*
X73235380Y-74823047D01*
X73211571Y-74870666D01*
X73187761Y-74894476D01*
X73140142Y-74918285D01*
X72973476Y-74918285D01*
X73402047Y-74680190D02*
X73687761Y-74680190D01*
X73544904Y-75180190D02*
X73544904Y-74680190D01*
X74116333Y-75180190D02*
X73830619Y-75180190D01*
X73973476Y-75180190D02*
X73973476Y-74680190D01*
X73925857Y-74751619D01*
X73878238Y-74799238D01*
X73830619Y-74823047D01*
X72184604Y-82311085D02*
X72256033Y-82334895D01*
X72279842Y-82358704D01*
X72303652Y-82406323D01*
X72303652Y-82477752D01*
X72279842Y-82525371D01*
X72256033Y-82549180D01*
X72208414Y-82572990D01*
X72017938Y-82572990D01*
X72017938Y-82072990D01*
X72184604Y-82072990D01*
X72232223Y-82096800D01*
X72256033Y-82120609D01*
X72279842Y-82168228D01*
X72279842Y-82215847D01*
X72256033Y-82263466D01*
X72232223Y-82287276D01*
X72184604Y-82311085D01*
X72017938Y-82311085D01*
X72732223Y-82572990D02*
X72732223Y-82311085D01*
X72708414Y-82263466D01*
X72660795Y-82239657D01*
X72565557Y-82239657D01*
X72517938Y-82263466D01*
X72732223Y-82549180D02*
X72684604Y-82572990D01*
X72565557Y-82572990D01*
X72517938Y-82549180D01*
X72494128Y-82501561D01*
X72494128Y-82453942D01*
X72517938Y-82406323D01*
X72565557Y-82382514D01*
X72684604Y-82382514D01*
X72732223Y-82358704D01*
X72898890Y-82239657D02*
X73089366Y-82239657D01*
X72970319Y-82072990D02*
X72970319Y-82501561D01*
X72994128Y-82549180D01*
X73041747Y-82572990D01*
X73089366Y-82572990D01*
X73184604Y-82239657D02*
X73375080Y-82239657D01*
X73256033Y-82072990D02*
X73256033Y-82501561D01*
X73279842Y-82549180D01*
X73327461Y-82572990D01*
X73375080Y-82572990D01*
X73732223Y-82549180D02*
X73684604Y-82572990D01*
X73589366Y-82572990D01*
X73541747Y-82549180D01*
X73517938Y-82501561D01*
X73517938Y-82311085D01*
X73541747Y-82263466D01*
X73589366Y-82239657D01*
X73684604Y-82239657D01*
X73732223Y-82263466D01*
X73756033Y-82311085D01*
X73756033Y-82358704D01*
X73517938Y-82406323D01*
X73970319Y-82572990D02*
X73970319Y-82239657D01*
X73970319Y-82334895D02*
X73994128Y-82287276D01*
X74017938Y-82263466D01*
X74065557Y-82239657D01*
X74113176Y-82239657D01*
X74232223Y-82239657D02*
X74351271Y-82572990D01*
X74470319Y-82239657D02*
X74351271Y-82572990D01*
X74303652Y-82692038D01*
X74279842Y-82715847D01*
X74232223Y-82739657D01*
X74613176Y-82072990D02*
X74922700Y-82072990D01*
X74756033Y-82263466D01*
X74827461Y-82263466D01*
X74875080Y-82287276D01*
X74898890Y-82311085D01*
X74922700Y-82358704D01*
X74922700Y-82477752D01*
X74898890Y-82525371D01*
X74875080Y-82549180D01*
X74827461Y-82572990D01*
X74684604Y-82572990D01*
X74636985Y-82549180D01*
X74613176Y-82525371D01*
X75065557Y-82072990D02*
X75232223Y-82572990D01*
X75398890Y-82072990D01*
X87483166Y-81229971D02*
X87459357Y-81253780D01*
X87387928Y-81277590D01*
X87340309Y-81277590D01*
X87268880Y-81253780D01*
X87221261Y-81206161D01*
X87197452Y-81158542D01*
X87173642Y-81063304D01*
X87173642Y-80991876D01*
X87197452Y-80896638D01*
X87221261Y-80849019D01*
X87268880Y-80801400D01*
X87340309Y-80777590D01*
X87387928Y-80777590D01*
X87459357Y-80801400D01*
X87483166Y-80825209D01*
X87959357Y-81277590D02*
X87673642Y-81277590D01*
X87816500Y-81277590D02*
X87816500Y-80777590D01*
X87768880Y-80849019D01*
X87721261Y-80896638D01*
X87673642Y-80920447D01*
X88650071Y-80622009D02*
X88673880Y-80598200D01*
X88721500Y-80574390D01*
X88840547Y-80574390D01*
X88888166Y-80598200D01*
X88911976Y-80622009D01*
X88935785Y-80669628D01*
X88935785Y-80717247D01*
X88911976Y-80788676D01*
X88626261Y-81074390D01*
X88935785Y-81074390D01*
X89126261Y-80622009D02*
X89150071Y-80598200D01*
X89197690Y-80574390D01*
X89316738Y-80574390D01*
X89364357Y-80598200D01*
X89388166Y-80622009D01*
X89411976Y-80669628D01*
X89411976Y-80717247D01*
X89388166Y-80788676D01*
X89102452Y-81074390D01*
X89411976Y-81074390D01*
X89626261Y-80741057D02*
X89626261Y-81241057D01*
X89626261Y-80764866D02*
X89673880Y-80741057D01*
X89769119Y-80741057D01*
X89816738Y-80764866D01*
X89840547Y-80788676D01*
X89864357Y-80836295D01*
X89864357Y-80979152D01*
X89840547Y-81026771D01*
X89816738Y-81050580D01*
X89769119Y-81074390D01*
X89673880Y-81074390D01*
X89626261Y-81050580D01*
X90245309Y-80812485D02*
X90078642Y-80812485D01*
X90078642Y-81074390D02*
X90078642Y-80574390D01*
X90316738Y-80574390D01*
X92271066Y-79350371D02*
X92247257Y-79374180D01*
X92175828Y-79397990D01*
X92128209Y-79397990D01*
X92056780Y-79374180D01*
X92009161Y-79326561D01*
X91985352Y-79278942D01*
X91961542Y-79183704D01*
X91961542Y-79112276D01*
X91985352Y-79017038D01*
X92009161Y-78969419D01*
X92056780Y-78921800D01*
X92128209Y-78897990D01*
X92175828Y-78897990D01*
X92247257Y-78921800D01*
X92271066Y-78945609D01*
X92461542Y-78945609D02*
X92485352Y-78921800D01*
X92532971Y-78897990D01*
X92652019Y-78897990D01*
X92699638Y-78921800D01*
X92723447Y-78945609D01*
X92747257Y-78993228D01*
X92747257Y-79040847D01*
X92723447Y-79112276D01*
X92437733Y-79397990D01*
X92747257Y-79397990D01*
X91634571Y-79796509D02*
X91658380Y-79772700D01*
X91706000Y-79748890D01*
X91825047Y-79748890D01*
X91872666Y-79772700D01*
X91896476Y-79796509D01*
X91920285Y-79844128D01*
X91920285Y-79891747D01*
X91896476Y-79963176D01*
X91610761Y-80248890D01*
X91920285Y-80248890D01*
X92110761Y-79796509D02*
X92134571Y-79772700D01*
X92182190Y-79748890D01*
X92301238Y-79748890D01*
X92348857Y-79772700D01*
X92372666Y-79796509D01*
X92396476Y-79844128D01*
X92396476Y-79891747D01*
X92372666Y-79963176D01*
X92086952Y-80248890D01*
X92396476Y-80248890D01*
X92610761Y-79915557D02*
X92610761Y-80415557D01*
X92610761Y-79939366D02*
X92658380Y-79915557D01*
X92753619Y-79915557D01*
X92801238Y-79939366D01*
X92825047Y-79963176D01*
X92848857Y-80010795D01*
X92848857Y-80153652D01*
X92825047Y-80201271D01*
X92801238Y-80225080D01*
X92753619Y-80248890D01*
X92658380Y-80248890D01*
X92610761Y-80225080D01*
X93229809Y-79986985D02*
X93063142Y-79986985D01*
X93063142Y-80248890D02*
X93063142Y-79748890D01*
X93301238Y-79748890D01*
X105186966Y-87884771D02*
X105163157Y-87908580D01*
X105091728Y-87932390D01*
X105044109Y-87932390D01*
X104972680Y-87908580D01*
X104925061Y-87860961D01*
X104901252Y-87813342D01*
X104877442Y-87718104D01*
X104877442Y-87646676D01*
X104901252Y-87551438D01*
X104925061Y-87503819D01*
X104972680Y-87456200D01*
X105044109Y-87432390D01*
X105091728Y-87432390D01*
X105163157Y-87456200D01*
X105186966Y-87480009D01*
X105353633Y-87432390D02*
X105663157Y-87432390D01*
X105496490Y-87622866D01*
X105567919Y-87622866D01*
X105615538Y-87646676D01*
X105639347Y-87670485D01*
X105663157Y-87718104D01*
X105663157Y-87837152D01*
X105639347Y-87884771D01*
X105615538Y-87908580D01*
X105567919Y-87932390D01*
X105425061Y-87932390D01*
X105377442Y-87908580D01*
X105353633Y-87884771D01*
X106334785Y-87894290D02*
X106049071Y-87894290D01*
X106191928Y-87894290D02*
X106191928Y-87394290D01*
X106144309Y-87465719D01*
X106096690Y-87513338D01*
X106049071Y-87537147D01*
X106644309Y-87394290D02*
X106691928Y-87394290D01*
X106739547Y-87418100D01*
X106763357Y-87441909D01*
X106787166Y-87489528D01*
X106810976Y-87584766D01*
X106810976Y-87703814D01*
X106787166Y-87799052D01*
X106763357Y-87846671D01*
X106739547Y-87870480D01*
X106691928Y-87894290D01*
X106644309Y-87894290D01*
X106596690Y-87870480D01*
X106572880Y-87846671D01*
X106549071Y-87799052D01*
X106525261Y-87703814D01*
X106525261Y-87584766D01*
X106549071Y-87489528D01*
X106572880Y-87441909D01*
X106596690Y-87418100D01*
X106644309Y-87394290D01*
X107239547Y-87560957D02*
X107239547Y-87894290D01*
X107025261Y-87560957D02*
X107025261Y-87822861D01*
X107049071Y-87870480D01*
X107096690Y-87894290D01*
X107168119Y-87894290D01*
X107215738Y-87870480D01*
X107239547Y-87846671D01*
X107644309Y-87632385D02*
X107477642Y-87632385D01*
X107477642Y-87894290D02*
X107477642Y-87394290D01*
X107715738Y-87394290D01*
X110438452Y-96009590D02*
X110438452Y-95509590D01*
X110557500Y-95509590D01*
X110628928Y-95533400D01*
X110676547Y-95581019D01*
X110700357Y-95628638D01*
X110724166Y-95723876D01*
X110724166Y-95795304D01*
X110700357Y-95890542D01*
X110676547Y-95938161D01*
X110628928Y-95985780D01*
X110557500Y-96009590D01*
X110438452Y-96009590D01*
X111200357Y-96009590D02*
X110914642Y-96009590D01*
X111057500Y-96009590D02*
X111057500Y-95509590D01*
X111009880Y-95581019D01*
X110962261Y-95628638D01*
X110914642Y-95652447D01*
X110211571Y-95221190D02*
X109973476Y-95221190D01*
X109973476Y-94721190D01*
X110378238Y-94959285D02*
X110544904Y-94959285D01*
X110616333Y-95221190D02*
X110378238Y-95221190D01*
X110378238Y-94721190D01*
X110616333Y-94721190D01*
X110830619Y-95221190D02*
X110830619Y-94721190D01*
X110949666Y-94721190D01*
X111021095Y-94745000D01*
X111068714Y-94792619D01*
X111092523Y-94840238D01*
X111116333Y-94935476D01*
X111116333Y-95006904D01*
X111092523Y-95102142D01*
X111068714Y-95149761D01*
X111021095Y-95197380D01*
X110949666Y-95221190D01*
X110830619Y-95221190D01*
D12*
X80756380Y-97107333D02*
X81470666Y-97107333D01*
X81613523Y-97154952D01*
X81708761Y-97250190D01*
X81756380Y-97393047D01*
X81756380Y-97488285D01*
X81756380Y-96107333D02*
X81756380Y-96678761D01*
X81756380Y-96393047D02*
X80756380Y-96393047D01*
X80899238Y-96488285D01*
X80994476Y-96583523D01*
X81042095Y-96678761D01*
D10*
X107390190Y-98833523D02*
X106890190Y-98833523D01*
X106890190Y-98714476D01*
X106914000Y-98643047D01*
X106961619Y-98595428D01*
X107009238Y-98571619D01*
X107104476Y-98547809D01*
X107175904Y-98547809D01*
X107271142Y-98571619D01*
X107318761Y-98595428D01*
X107366380Y-98643047D01*
X107390190Y-98714476D01*
X107390190Y-98833523D01*
X107390190Y-98333523D02*
X107056857Y-98333523D01*
X106890190Y-98333523D02*
X106914000Y-98357333D01*
X106937809Y-98333523D01*
X106914000Y-98309714D01*
X106890190Y-98333523D01*
X106937809Y-98333523D01*
X107056857Y-97881142D02*
X107461619Y-97881142D01*
X107509238Y-97904952D01*
X107533047Y-97928761D01*
X107556857Y-97976380D01*
X107556857Y-98047809D01*
X107533047Y-98095428D01*
X107366380Y-97881142D02*
X107390190Y-97928761D01*
X107390190Y-98024000D01*
X107366380Y-98071619D01*
X107342571Y-98095428D01*
X107294952Y-98119238D01*
X107152095Y-98119238D01*
X107104476Y-98095428D01*
X107080666Y-98071619D01*
X107056857Y-98024000D01*
X107056857Y-97928761D01*
X107080666Y-97881142D01*
X107390190Y-97643047D02*
X107056857Y-97643047D01*
X106890190Y-97643047D02*
X106914000Y-97666857D01*
X106937809Y-97643047D01*
X106914000Y-97619238D01*
X106890190Y-97643047D01*
X106937809Y-97643047D01*
X107056857Y-97476380D02*
X107056857Y-97285904D01*
X106890190Y-97404952D02*
X107318761Y-97404952D01*
X107366380Y-97381142D01*
X107390190Y-97333523D01*
X107390190Y-97285904D01*
X107390190Y-96904952D02*
X107128285Y-96904952D01*
X107080666Y-96928761D01*
X107056857Y-96976380D01*
X107056857Y-97071619D01*
X107080666Y-97119238D01*
X107366380Y-96904952D02*
X107390190Y-96952571D01*
X107390190Y-97071619D01*
X107366380Y-97119238D01*
X107318761Y-97143047D01*
X107271142Y-97143047D01*
X107223523Y-97119238D01*
X107199714Y-97071619D01*
X107199714Y-96952571D01*
X107175904Y-96904952D01*
X107390190Y-96595428D02*
X107366380Y-96643047D01*
X107318761Y-96666857D01*
X106890190Y-96666857D01*
X107056857Y-96024000D02*
X107556857Y-96024000D01*
X107080666Y-96024000D02*
X107056857Y-95976380D01*
X107056857Y-95881142D01*
X107080666Y-95833523D01*
X107104476Y-95809714D01*
X107152095Y-95785904D01*
X107294952Y-95785904D01*
X107342571Y-95809714D01*
X107366380Y-95833523D01*
X107390190Y-95881142D01*
X107390190Y-95976380D01*
X107366380Y-96024000D01*
X107390190Y-95571619D02*
X107056857Y-95571619D01*
X106890190Y-95571619D02*
X106914000Y-95595428D01*
X106937809Y-95571619D01*
X106914000Y-95547809D01*
X106890190Y-95571619D01*
X106937809Y-95571619D01*
X107056857Y-95333523D02*
X107390190Y-95333523D01*
X107104476Y-95333523D02*
X107080666Y-95309714D01*
X107056857Y-95262095D01*
X107056857Y-95190666D01*
X107080666Y-95143047D01*
X107128285Y-95119238D01*
X107390190Y-95119238D01*
X107366380Y-94904952D02*
X107390190Y-94857333D01*
X107390190Y-94762095D01*
X107366380Y-94714476D01*
X107318761Y-94690666D01*
X107294952Y-94690666D01*
X107247333Y-94714476D01*
X107223523Y-94762095D01*
X107223523Y-94833523D01*
X107199714Y-94881142D01*
X107152095Y-94904952D01*
X107128285Y-94904952D01*
X107080666Y-94881142D01*
X107056857Y-94833523D01*
X107056857Y-94762095D01*
X107080666Y-94714476D01*
D12*
X82118428Y-76615900D02*
X82547000Y-76615900D01*
X82632714Y-76644471D01*
X82689857Y-76701614D01*
X82718428Y-76787328D01*
X82718428Y-76844471D01*
X82175571Y-76358757D02*
X82147000Y-76330185D01*
X82118428Y-76273042D01*
X82118428Y-76130185D01*
X82147000Y-76073042D01*
X82175571Y-76044471D01*
X82232714Y-76015900D01*
X82289857Y-76015900D01*
X82375571Y-76044471D01*
X82718428Y-76387328D01*
X82718428Y-76015900D01*
D10*
X95809380Y-77188095D02*
X95833190Y-77116666D01*
X95833190Y-76997619D01*
X95809380Y-76950000D01*
X95785571Y-76926190D01*
X95737952Y-76902380D01*
X95690333Y-76902380D01*
X95642714Y-76926190D01*
X95618904Y-76950000D01*
X95595095Y-76997619D01*
X95571285Y-77092857D01*
X95547476Y-77140476D01*
X95523666Y-77164285D01*
X95476047Y-77188095D01*
X95428428Y-77188095D01*
X95380809Y-77164285D01*
X95357000Y-77140476D01*
X95333190Y-77092857D01*
X95333190Y-76973809D01*
X95357000Y-76902380D01*
X95809380Y-76497619D02*
X95833190Y-76545238D01*
X95833190Y-76640476D01*
X95809380Y-76688095D01*
X95761761Y-76711904D01*
X95571285Y-76711904D01*
X95523666Y-76688095D01*
X95499857Y-76640476D01*
X95499857Y-76545238D01*
X95523666Y-76497619D01*
X95571285Y-76473809D01*
X95618904Y-76473809D01*
X95666523Y-76711904D01*
X95833190Y-76259523D02*
X95499857Y-76259523D01*
X95595095Y-76259523D02*
X95547476Y-76235714D01*
X95523666Y-76211904D01*
X95499857Y-76164285D01*
X95499857Y-76116666D01*
X95833190Y-75950000D02*
X95499857Y-75950000D01*
X95333190Y-75950000D02*
X95357000Y-75973809D01*
X95380809Y-75950000D01*
X95357000Y-75926190D01*
X95333190Y-75950000D01*
X95380809Y-75950000D01*
X95833190Y-75497619D02*
X95571285Y-75497619D01*
X95523666Y-75521428D01*
X95499857Y-75569047D01*
X95499857Y-75664285D01*
X95523666Y-75711904D01*
X95809380Y-75497619D02*
X95833190Y-75545238D01*
X95833190Y-75664285D01*
X95809380Y-75711904D01*
X95761761Y-75735714D01*
X95714142Y-75735714D01*
X95666523Y-75711904D01*
X95642714Y-75664285D01*
X95642714Y-75545238D01*
X95618904Y-75497619D01*
X95833190Y-75188095D02*
X95809380Y-75235714D01*
X95761761Y-75259523D01*
X95333190Y-75259523D01*
X74636333Y-82681190D02*
X74636333Y-83038333D01*
X74612523Y-83109761D01*
X74564904Y-83157380D01*
X74493476Y-83181190D01*
X74445857Y-83181190D01*
X74826809Y-82681190D02*
X75136333Y-82681190D01*
X74969666Y-82871666D01*
X75041095Y-82871666D01*
X75088714Y-82895476D01*
X75112523Y-82919285D01*
X75136333Y-82966904D01*
X75136333Y-83085952D01*
X75112523Y-83133571D01*
X75088714Y-83157380D01*
X75041095Y-83181190D01*
X74898238Y-83181190D01*
X74850619Y-83157380D01*
X74826809Y-83133571D01*
X74064904Y-93801190D02*
X74064904Y-93301190D01*
X74588714Y-93753571D02*
X74564904Y-93777380D01*
X74493476Y-93801190D01*
X74445857Y-93801190D01*
X74374428Y-93777380D01*
X74326809Y-93729761D01*
X74303000Y-93682142D01*
X74279190Y-93586904D01*
X74279190Y-93515476D01*
X74303000Y-93420238D01*
X74326809Y-93372619D01*
X74374428Y-93325000D01*
X74445857Y-93301190D01*
X74493476Y-93301190D01*
X74564904Y-93325000D01*
X74588714Y-93348809D01*
X74779190Y-93777380D02*
X74850619Y-93801190D01*
X74969666Y-93801190D01*
X75017285Y-93777380D01*
X75041095Y-93753571D01*
X75064904Y-93705952D01*
X75064904Y-93658333D01*
X75041095Y-93610714D01*
X75017285Y-93586904D01*
X74969666Y-93563095D01*
X74874428Y-93539285D01*
X74826809Y-93515476D01*
X74803000Y-93491666D01*
X74779190Y-93444047D01*
X74779190Y-93396428D01*
X74803000Y-93348809D01*
X74826809Y-93325000D01*
X74874428Y-93301190D01*
X74993476Y-93301190D01*
X75064904Y-93325000D01*
X75279190Y-93801190D02*
X75279190Y-93301190D01*
X75469666Y-93301190D01*
X75517285Y-93325000D01*
X75541095Y-93348809D01*
X75564904Y-93396428D01*
X75564904Y-93467857D01*
X75541095Y-93515476D01*
X75517285Y-93539285D01*
X75469666Y-93563095D01*
X75279190Y-93563095D01*
X108787190Y-76688095D02*
X108287190Y-76688095D01*
X108334809Y-76473809D02*
X108311000Y-76450000D01*
X108287190Y-76402380D01*
X108287190Y-76283333D01*
X108311000Y-76235714D01*
X108334809Y-76211904D01*
X108382428Y-76188095D01*
X108430047Y-76188095D01*
X108501476Y-76211904D01*
X108787190Y-76497619D01*
X108787190Y-76188095D01*
X108739571Y-75688095D02*
X108763380Y-75711904D01*
X108787190Y-75783333D01*
X108787190Y-75830952D01*
X108763380Y-75902380D01*
X108715761Y-75950000D01*
X108668142Y-75973809D01*
X108572904Y-75997619D01*
X108501476Y-75997619D01*
X108406238Y-75973809D01*
X108358619Y-75950000D01*
X108311000Y-75902380D01*
X108287190Y-75830952D01*
X108287190Y-75783333D01*
X108311000Y-75711904D01*
X108334809Y-75688095D01*
X103154966Y-91882090D02*
X102988300Y-91643995D01*
X102869252Y-91882090D02*
X102869252Y-91382090D01*
X103059728Y-91382090D01*
X103107347Y-91405900D01*
X103131157Y-91429709D01*
X103154966Y-91477328D01*
X103154966Y-91548757D01*
X103131157Y-91596376D01*
X103107347Y-91620185D01*
X103059728Y-91643995D01*
X102869252Y-91643995D01*
X103631157Y-91882090D02*
X103345442Y-91882090D01*
X103488300Y-91882090D02*
X103488300Y-91382090D01*
X103440680Y-91453519D01*
X103393061Y-91501138D01*
X103345442Y-91524947D01*
X104021914Y-91559890D02*
X104331438Y-91559890D01*
X104164771Y-91750366D01*
X104236200Y-91750366D01*
X104283819Y-91774176D01*
X104307628Y-91797985D01*
X104331438Y-91845604D01*
X104331438Y-91964652D01*
X104307628Y-92012271D01*
X104283819Y-92036080D01*
X104236200Y-92059890D01*
X104093342Y-92059890D01*
X104045723Y-92036080D01*
X104021914Y-92012271D01*
X104498104Y-91559890D02*
X104807628Y-91559890D01*
X104640961Y-91750366D01*
X104712390Y-91750366D01*
X104760009Y-91774176D01*
X104783819Y-91797985D01*
X104807628Y-91845604D01*
X104807628Y-91964652D01*
X104783819Y-92012271D01*
X104760009Y-92036080D01*
X104712390Y-92059890D01*
X104569533Y-92059890D01*
X104521914Y-92036080D01*
X104498104Y-92012271D01*
X105117152Y-91559890D02*
X105164771Y-91559890D01*
X105212390Y-91583700D01*
X105236200Y-91607509D01*
X105260009Y-91655128D01*
X105283819Y-91750366D01*
X105283819Y-91869414D01*
X105260009Y-91964652D01*
X105236200Y-92012271D01*
X105212390Y-92036080D01*
X105164771Y-92059890D01*
X105117152Y-92059890D01*
X105069533Y-92036080D01*
X105045723Y-92012271D01*
X105021914Y-91964652D01*
X104998104Y-91869414D01*
X104998104Y-91750366D01*
X105021914Y-91655128D01*
X105045723Y-91607509D01*
X105069533Y-91583700D01*
X105117152Y-91559890D01*
X105593342Y-91559890D02*
X105688580Y-91559890D01*
X105736200Y-91583700D01*
X105783819Y-91631319D01*
X105807628Y-91726557D01*
X105807628Y-91893223D01*
X105783819Y-91988461D01*
X105736200Y-92036080D01*
X105688580Y-92059890D01*
X105593342Y-92059890D01*
X105545723Y-92036080D01*
X105498104Y-91988461D01*
X105474295Y-91893223D01*
X105474295Y-91726557D01*
X105498104Y-91631319D01*
X105545723Y-91583700D01*
X105593342Y-91559890D01*
X106021914Y-92059890D02*
X106021914Y-91559890D01*
X106236200Y-92059890D02*
X106236200Y-91797985D01*
X106212390Y-91750366D01*
X106164771Y-91726557D01*
X106093342Y-91726557D01*
X106045723Y-91750366D01*
X106021914Y-91774176D01*
X106474295Y-92059890D02*
X106474295Y-91726557D01*
X106474295Y-91774176D02*
X106498104Y-91750366D01*
X106545723Y-91726557D01*
X106617152Y-91726557D01*
X106664771Y-91750366D01*
X106688580Y-91797985D01*
X106688580Y-92059890D01*
X106688580Y-91797985D02*
X106712390Y-91750366D01*
X106760009Y-91726557D01*
X106831438Y-91726557D01*
X106879057Y-91750366D01*
X106902866Y-91797985D01*
X106902866Y-92059890D01*
X79418666Y-78926190D02*
X79252000Y-78688095D01*
X79132952Y-78926190D02*
X79132952Y-78426190D01*
X79323428Y-78426190D01*
X79371047Y-78450000D01*
X79394857Y-78473809D01*
X79418666Y-78521428D01*
X79418666Y-78592857D01*
X79394857Y-78640476D01*
X79371047Y-78664285D01*
X79323428Y-78688095D01*
X79132952Y-78688095D01*
X79609142Y-78473809D02*
X79632952Y-78450000D01*
X79680571Y-78426190D01*
X79799619Y-78426190D01*
X79847238Y-78450000D01*
X79871047Y-78473809D01*
X79894857Y-78521428D01*
X79894857Y-78569047D01*
X79871047Y-78640476D01*
X79585333Y-78926190D01*
X79894857Y-78926190D01*
X78335333Y-75626190D02*
X78049619Y-75626190D01*
X78192476Y-75626190D02*
X78192476Y-75126190D01*
X78144857Y-75197619D01*
X78097238Y-75245238D01*
X78049619Y-75269047D01*
X78644857Y-75126190D02*
X78692476Y-75126190D01*
X78740095Y-75150000D01*
X78763904Y-75173809D01*
X78787714Y-75221428D01*
X78811523Y-75316666D01*
X78811523Y-75435714D01*
X78787714Y-75530952D01*
X78763904Y-75578571D01*
X78740095Y-75602380D01*
X78692476Y-75626190D01*
X78644857Y-75626190D01*
X78597238Y-75602380D01*
X78573428Y-75578571D01*
X78549619Y-75530952D01*
X78525809Y-75435714D01*
X78525809Y-75316666D01*
X78549619Y-75221428D01*
X78573428Y-75173809D01*
X78597238Y-75150000D01*
X78644857Y-75126190D01*
X79025809Y-75626190D02*
X79025809Y-75126190D01*
X79311523Y-75626190D02*
X79097238Y-75340476D01*
X79311523Y-75126190D02*
X79025809Y-75411904D01*
X79621047Y-75126190D02*
X79716285Y-75126190D01*
X79763904Y-75150000D01*
X79811523Y-75197619D01*
X79835333Y-75292857D01*
X79835333Y-75459523D01*
X79811523Y-75554761D01*
X79763904Y-75602380D01*
X79716285Y-75626190D01*
X79621047Y-75626190D01*
X79573428Y-75602380D01*
X79525809Y-75554761D01*
X79502000Y-75459523D01*
X79502000Y-75292857D01*
X79525809Y-75197619D01*
X79573428Y-75150000D01*
X79621047Y-75126190D01*
X80049619Y-75626190D02*
X80049619Y-75126190D01*
X80263904Y-75626190D02*
X80263904Y-75364285D01*
X80240095Y-75316666D01*
X80192476Y-75292857D01*
X80121047Y-75292857D01*
X80073428Y-75316666D01*
X80049619Y-75340476D01*
X80502000Y-75626190D02*
X80502000Y-75292857D01*
X80502000Y-75340476D02*
X80525809Y-75316666D01*
X80573428Y-75292857D01*
X80644857Y-75292857D01*
X80692476Y-75316666D01*
X80716285Y-75364285D01*
X80716285Y-75626190D01*
X80716285Y-75364285D02*
X80740095Y-75316666D01*
X80787714Y-75292857D01*
X80859142Y-75292857D01*
X80906761Y-75316666D01*
X80930571Y-75364285D01*
X80930571Y-75626190D01*
D14*
X77221566Y-77086590D02*
X77054900Y-76848495D01*
X76935852Y-77086590D02*
X76935852Y-76586590D01*
X77126328Y-76586590D01*
X77173947Y-76610400D01*
X77197757Y-76634209D01*
X77221566Y-76681828D01*
X77221566Y-76753257D01*
X77197757Y-76800876D01*
X77173947Y-76824685D01*
X77126328Y-76848495D01*
X76935852Y-76848495D01*
X77412042Y-76634209D02*
X77435852Y-76610400D01*
X77483471Y-76586590D01*
X77602519Y-76586590D01*
X77650138Y-76610400D01*
X77673947Y-76634209D01*
X77697757Y-76681828D01*
X77697757Y-76729447D01*
X77673947Y-76800876D01*
X77388233Y-77086590D01*
X77697757Y-77086590D01*
D10*
X97028047Y-86978190D02*
X97028047Y-87382952D01*
X97051857Y-87430571D01*
X97075666Y-87454380D01*
X97123285Y-87478190D01*
X97218523Y-87478190D01*
X97266142Y-87454380D01*
X97289952Y-87430571D01*
X97313761Y-87382952D01*
X97313761Y-86978190D01*
X97813761Y-87478190D02*
X97528047Y-87478190D01*
X97670904Y-87478190D02*
X97670904Y-86978190D01*
X97623285Y-87049619D01*
X97575666Y-87097238D01*
X97528047Y-87121047D01*
X91851385Y-87048209D02*
X91875195Y-87024400D01*
X91922814Y-87000590D01*
X92041861Y-87000590D01*
X92089480Y-87024400D01*
X92113290Y-87048209D01*
X92137100Y-87095828D01*
X92137100Y-87143447D01*
X92113290Y-87214876D01*
X91827576Y-87500590D01*
X92137100Y-87500590D01*
X92565671Y-87167257D02*
X92565671Y-87500590D01*
X92446623Y-86976780D02*
X92327576Y-87333923D01*
X92637100Y-87333923D01*
X93065671Y-87500590D02*
X92827576Y-87500590D01*
X92827576Y-87000590D01*
X93518052Y-87452971D02*
X93494242Y-87476780D01*
X93422814Y-87500590D01*
X93375195Y-87500590D01*
X93303766Y-87476780D01*
X93256147Y-87429161D01*
X93232338Y-87381542D01*
X93208528Y-87286304D01*
X93208528Y-87214876D01*
X93232338Y-87119638D01*
X93256147Y-87072019D01*
X93303766Y-87024400D01*
X93375195Y-87000590D01*
X93422814Y-87000590D01*
X93494242Y-87024400D01*
X93518052Y-87048209D01*
X93994242Y-87500590D02*
X93708528Y-87500590D01*
X93851385Y-87500590D02*
X93851385Y-87000590D01*
X93803766Y-87072019D01*
X93756147Y-87119638D01*
X93708528Y-87143447D01*
X94303766Y-87000590D02*
X94351385Y-87000590D01*
X94399004Y-87024400D01*
X94422814Y-87048209D01*
X94446623Y-87095828D01*
X94470433Y-87191066D01*
X94470433Y-87310114D01*
X94446623Y-87405352D01*
X94422814Y-87452971D01*
X94399004Y-87476780D01*
X94351385Y-87500590D01*
X94303766Y-87500590D01*
X94256147Y-87476780D01*
X94232338Y-87452971D01*
X94208528Y-87405352D01*
X94184719Y-87310114D01*
X94184719Y-87191066D01*
X94208528Y-87095828D01*
X94232338Y-87048209D01*
X94256147Y-87024400D01*
X94303766Y-87000590D01*
X94660909Y-87048209D02*
X94684719Y-87024400D01*
X94732338Y-87000590D01*
X94851385Y-87000590D01*
X94899004Y-87024400D01*
X94922814Y-87048209D01*
X94946623Y-87095828D01*
X94946623Y-87143447D01*
X94922814Y-87214876D01*
X94637100Y-87500590D01*
X94946623Y-87500590D01*
X95399004Y-87000590D02*
X95160909Y-87000590D01*
X95137100Y-87238685D01*
X95160909Y-87214876D01*
X95208528Y-87191066D01*
X95327576Y-87191066D01*
X95375195Y-87214876D01*
X95399004Y-87238685D01*
X95422814Y-87286304D01*
X95422814Y-87405352D01*
X95399004Y-87452971D01*
X95375195Y-87476780D01*
X95327576Y-87500590D01*
X95208528Y-87500590D01*
X95160909Y-87476780D01*
X95137100Y-87452971D01*
X95643747Y-78694790D02*
X95643747Y-79099552D01*
X95667557Y-79147171D01*
X95691366Y-79170980D01*
X95738985Y-79194790D01*
X95834223Y-79194790D01*
X95881842Y-79170980D01*
X95905652Y-79147171D01*
X95929461Y-79099552D01*
X95929461Y-78694790D01*
X96143747Y-78742409D02*
X96167557Y-78718600D01*
X96215176Y-78694790D01*
X96334223Y-78694790D01*
X96381842Y-78718600D01*
X96405652Y-78742409D01*
X96429461Y-78790028D01*
X96429461Y-78837647D01*
X96405652Y-78909076D01*
X96119938Y-79194790D01*
X96429461Y-79194790D01*
X95267685Y-79860009D02*
X95291495Y-79836200D01*
X95339114Y-79812390D01*
X95458161Y-79812390D01*
X95505780Y-79836200D01*
X95529590Y-79860009D01*
X95553400Y-79907628D01*
X95553400Y-79955247D01*
X95529590Y-80026676D01*
X95243876Y-80312390D01*
X95553400Y-80312390D01*
X95981971Y-79979057D02*
X95981971Y-80312390D01*
X95862923Y-79788580D02*
X95743876Y-80145723D01*
X96053400Y-80145723D01*
X96481971Y-80312390D02*
X96243876Y-80312390D01*
X96243876Y-79812390D01*
X96934352Y-80264771D02*
X96910542Y-80288580D01*
X96839114Y-80312390D01*
X96791495Y-80312390D01*
X96720066Y-80288580D01*
X96672447Y-80240961D01*
X96648638Y-80193342D01*
X96624828Y-80098104D01*
X96624828Y-80026676D01*
X96648638Y-79931438D01*
X96672447Y-79883819D01*
X96720066Y-79836200D01*
X96791495Y-79812390D01*
X96839114Y-79812390D01*
X96910542Y-79836200D01*
X96934352Y-79860009D01*
X97410542Y-80312390D02*
X97124828Y-80312390D01*
X97267685Y-80312390D02*
X97267685Y-79812390D01*
X97220066Y-79883819D01*
X97172447Y-79931438D01*
X97124828Y-79955247D01*
X97720066Y-79812390D02*
X97767685Y-79812390D01*
X97815304Y-79836200D01*
X97839114Y-79860009D01*
X97862923Y-79907628D01*
X97886733Y-80002866D01*
X97886733Y-80121914D01*
X97862923Y-80217152D01*
X97839114Y-80264771D01*
X97815304Y-80288580D01*
X97767685Y-80312390D01*
X97720066Y-80312390D01*
X97672447Y-80288580D01*
X97648638Y-80264771D01*
X97624828Y-80217152D01*
X97601019Y-80121914D01*
X97601019Y-80002866D01*
X97624828Y-79907628D01*
X97648638Y-79860009D01*
X97672447Y-79836200D01*
X97720066Y-79812390D01*
X98077209Y-79860009D02*
X98101019Y-79836200D01*
X98148638Y-79812390D01*
X98267685Y-79812390D01*
X98315304Y-79836200D01*
X98339114Y-79860009D01*
X98362923Y-79907628D01*
X98362923Y-79955247D01*
X98339114Y-80026676D01*
X98053400Y-80312390D01*
X98362923Y-80312390D01*
X98815304Y-79812390D02*
X98577209Y-79812390D01*
X98553400Y-80050485D01*
X98577209Y-80026676D01*
X98624828Y-80002866D01*
X98743876Y-80002866D01*
X98791495Y-80026676D01*
X98815304Y-80050485D01*
X98839114Y-80098104D01*
X98839114Y-80217152D01*
X98815304Y-80264771D01*
X98791495Y-80288580D01*
X98743876Y-80312390D01*
X98624828Y-80312390D01*
X98577209Y-80288580D01*
X98553400Y-80264771D01*
X107061047Y-77892190D02*
X107061047Y-78296952D01*
X107084857Y-78344571D01*
X107108666Y-78368380D01*
X107156285Y-78392190D01*
X107251523Y-78392190D01*
X107299142Y-78368380D01*
X107322952Y-78344571D01*
X107346761Y-78296952D01*
X107346761Y-77892190D01*
X107537238Y-77892190D02*
X107846761Y-77892190D01*
X107680095Y-78082666D01*
X107751523Y-78082666D01*
X107799142Y-78106476D01*
X107822952Y-78130285D01*
X107846761Y-78177904D01*
X107846761Y-78296952D01*
X107822952Y-78344571D01*
X107799142Y-78368380D01*
X107751523Y-78392190D01*
X107608666Y-78392190D01*
X107561047Y-78368380D01*
X107537238Y-78344571D01*
X105572952Y-86652190D02*
X105572952Y-86152190D01*
X105692000Y-86152190D01*
X105763428Y-86176000D01*
X105811047Y-86223619D01*
X105834857Y-86271238D01*
X105858666Y-86366476D01*
X105858666Y-86437904D01*
X105834857Y-86533142D01*
X105811047Y-86580761D01*
X105763428Y-86628380D01*
X105692000Y-86652190D01*
X105572952Y-86652190D01*
X106049142Y-86628380D02*
X106120571Y-86652190D01*
X106239619Y-86652190D01*
X106287238Y-86628380D01*
X106311047Y-86604571D01*
X106334857Y-86556952D01*
X106334857Y-86509333D01*
X106311047Y-86461714D01*
X106287238Y-86437904D01*
X106239619Y-86414095D01*
X106144380Y-86390285D01*
X106096761Y-86366476D01*
X106072952Y-86342666D01*
X106049142Y-86295047D01*
X106049142Y-86247428D01*
X106072952Y-86199809D01*
X106096761Y-86176000D01*
X106144380Y-86152190D01*
X106263428Y-86152190D01*
X106334857Y-86176000D01*
X106811047Y-86652190D02*
X106525333Y-86652190D01*
X106668190Y-86652190D02*
X106668190Y-86152190D01*
X106620571Y-86223619D01*
X106572952Y-86271238D01*
X106525333Y-86295047D01*
X106977714Y-86152190D02*
X107287238Y-86152190D01*
X107120571Y-86342666D01*
X107192000Y-86342666D01*
X107239619Y-86366476D01*
X107263428Y-86390285D01*
X107287238Y-86437904D01*
X107287238Y-86556952D01*
X107263428Y-86604571D01*
X107239619Y-86628380D01*
X107192000Y-86652190D01*
X107049142Y-86652190D01*
X107001523Y-86628380D01*
X106977714Y-86604571D01*
X107453904Y-86152190D02*
X107763428Y-86152190D01*
X107596761Y-86342666D01*
X107668190Y-86342666D01*
X107715809Y-86366476D01*
X107739619Y-86390285D01*
X107763428Y-86437904D01*
X107763428Y-86556952D01*
X107739619Y-86604571D01*
X107715809Y-86628380D01*
X107668190Y-86652190D01*
X107525333Y-86652190D01*
X107477714Y-86628380D01*
X107453904Y-86604571D01*
X107930095Y-86152190D02*
X108263428Y-86152190D01*
X108049142Y-86652190D01*
X108430095Y-86628380D02*
X108501523Y-86652190D01*
X108620571Y-86652190D01*
X108668190Y-86628380D01*
X108692000Y-86604571D01*
X108715809Y-86556952D01*
X108715809Y-86509333D01*
X108692000Y-86461714D01*
X108668190Y-86437904D01*
X108620571Y-86414095D01*
X108525333Y-86390285D01*
X108477714Y-86366476D01*
X108453904Y-86342666D01*
X108430095Y-86295047D01*
X108430095Y-86247428D01*
X108453904Y-86199809D01*
X108477714Y-86176000D01*
X108525333Y-86152190D01*
X108644380Y-86152190D01*
X108715809Y-86176000D01*
X108930095Y-86461714D02*
X109311047Y-86461714D01*
X109120571Y-86652190D02*
X109120571Y-86271238D01*
X84582047Y-82630190D02*
X84582047Y-83034952D01*
X84605857Y-83082571D01*
X84629666Y-83106380D01*
X84677285Y-83130190D01*
X84772523Y-83130190D01*
X84820142Y-83106380D01*
X84843952Y-83082571D01*
X84867761Y-83034952D01*
X84867761Y-82630190D01*
X85320142Y-82796857D02*
X85320142Y-83130190D01*
X85201095Y-82606380D02*
X85082047Y-82963523D01*
X85391571Y-82963523D01*
X75831285Y-94520533D02*
X76069380Y-94520533D01*
X75783666Y-94663390D02*
X75950333Y-94163390D01*
X76117000Y-94663390D01*
X76212238Y-94163390D02*
X76497952Y-94163390D01*
X76355095Y-94663390D02*
X76355095Y-94163390D01*
X76664619Y-94663390D02*
X76664619Y-94163390D01*
X76831285Y-94520533D01*
X76997952Y-94163390D01*
X76997952Y-94663390D01*
X77236047Y-94401485D02*
X77402714Y-94401485D01*
X77474142Y-94663390D02*
X77236047Y-94663390D01*
X77236047Y-94163390D01*
X77474142Y-94163390D01*
X77950333Y-94187200D02*
X77902714Y-94163390D01*
X77831285Y-94163390D01*
X77759857Y-94187200D01*
X77712238Y-94234819D01*
X77688428Y-94282438D01*
X77664619Y-94377676D01*
X77664619Y-94449104D01*
X77688428Y-94544342D01*
X77712238Y-94591961D01*
X77759857Y-94639580D01*
X77831285Y-94663390D01*
X77878904Y-94663390D01*
X77950333Y-94639580D01*
X77974142Y-94615771D01*
X77974142Y-94449104D01*
X77878904Y-94449104D01*
X78164619Y-94520533D02*
X78402714Y-94520533D01*
X78117000Y-94663390D02*
X78283666Y-94163390D01*
X78450333Y-94663390D01*
X78569380Y-94163390D02*
X78878904Y-94163390D01*
X78712238Y-94353866D01*
X78783666Y-94353866D01*
X78831285Y-94377676D01*
X78855095Y-94401485D01*
X78878904Y-94449104D01*
X78878904Y-94568152D01*
X78855095Y-94615771D01*
X78831285Y-94639580D01*
X78783666Y-94663390D01*
X78640809Y-94663390D01*
X78593190Y-94639580D01*
X78569380Y-94615771D01*
X79069380Y-94211009D02*
X79093190Y-94187200D01*
X79140809Y-94163390D01*
X79259857Y-94163390D01*
X79307476Y-94187200D01*
X79331285Y-94211009D01*
X79355095Y-94258628D01*
X79355095Y-94306247D01*
X79331285Y-94377676D01*
X79045571Y-94663390D01*
X79355095Y-94663390D01*
X79640809Y-94377676D02*
X79593190Y-94353866D01*
X79569380Y-94330057D01*
X79545571Y-94282438D01*
X79545571Y-94258628D01*
X79569380Y-94211009D01*
X79593190Y-94187200D01*
X79640809Y-94163390D01*
X79736047Y-94163390D01*
X79783666Y-94187200D01*
X79807476Y-94211009D01*
X79831285Y-94258628D01*
X79831285Y-94282438D01*
X79807476Y-94330057D01*
X79783666Y-94353866D01*
X79736047Y-94377676D01*
X79640809Y-94377676D01*
X79593190Y-94401485D01*
X79569380Y-94425295D01*
X79545571Y-94472914D01*
X79545571Y-94568152D01*
X79569380Y-94615771D01*
X79593190Y-94639580D01*
X79640809Y-94663390D01*
X79736047Y-94663390D01*
X79783666Y-94639580D01*
X79807476Y-94615771D01*
X79831285Y-94568152D01*
X79831285Y-94472914D01*
X79807476Y-94425295D01*
X79783666Y-94401485D01*
X79736047Y-94377676D01*
X80045571Y-94663390D02*
X80045571Y-94163390D01*
X80236047Y-94163390D01*
X80283666Y-94187200D01*
X80307476Y-94211009D01*
X80331285Y-94258628D01*
X80331285Y-94330057D01*
X80307476Y-94377676D01*
X80283666Y-94401485D01*
X80236047Y-94425295D01*
X80045571Y-94425295D01*
X80545571Y-94472914D02*
X80926523Y-94472914D01*
X81140809Y-94520533D02*
X81378904Y-94520533D01*
X81093190Y-94663390D02*
X81259857Y-94163390D01*
X81426523Y-94663390D01*
X81593190Y-94163390D02*
X81593190Y-94568152D01*
X81617000Y-94615771D01*
X81640809Y-94639580D01*
X81688428Y-94663390D01*
X81783666Y-94663390D01*
X81831285Y-94639580D01*
X81855095Y-94615771D01*
X81878904Y-94568152D01*
X81878904Y-94163390D01*
X110144904Y-87573095D02*
X110144904Y-87811190D01*
X109978238Y-87311190D02*
X110144904Y-87573095D01*
X110311571Y-87311190D01*
X110740142Y-87811190D02*
X110454428Y-87811190D01*
X110597285Y-87811190D02*
X110597285Y-87311190D01*
X110549666Y-87382619D01*
X110502047Y-87430238D01*
X110454428Y-87454047D01*
X107354976Y-91605871D02*
X107331166Y-91629680D01*
X107259738Y-91653490D01*
X107212119Y-91653490D01*
X107140690Y-91629680D01*
X107093071Y-91582061D01*
X107069261Y-91534442D01*
X107045452Y-91439204D01*
X107045452Y-91367776D01*
X107069261Y-91272538D01*
X107093071Y-91224919D01*
X107140690Y-91177300D01*
X107212119Y-91153490D01*
X107259738Y-91153490D01*
X107331166Y-91177300D01*
X107354976Y-91201109D01*
X107569261Y-91653490D02*
X107569261Y-91320157D01*
X107569261Y-91415395D02*
X107593071Y-91367776D01*
X107616880Y-91343966D01*
X107664500Y-91320157D01*
X107712119Y-91320157D01*
X107831166Y-91320157D02*
X107950214Y-91653490D01*
X108069261Y-91320157D02*
X107950214Y-91653490D01*
X107902595Y-91772538D01*
X107878785Y-91796347D01*
X107831166Y-91820157D01*
X108235928Y-91629680D02*
X108283547Y-91653490D01*
X108378785Y-91653490D01*
X108426404Y-91629680D01*
X108450214Y-91582061D01*
X108450214Y-91558252D01*
X108426404Y-91510633D01*
X108378785Y-91486823D01*
X108307357Y-91486823D01*
X108259738Y-91463014D01*
X108235928Y-91415395D01*
X108235928Y-91391585D01*
X108259738Y-91343966D01*
X108307357Y-91320157D01*
X108378785Y-91320157D01*
X108426404Y-91343966D01*
X108593071Y-91320157D02*
X108783547Y-91320157D01*
X108664500Y-91153490D02*
X108664500Y-91582061D01*
X108688309Y-91629680D01*
X108735928Y-91653490D01*
X108783547Y-91653490D01*
X109164500Y-91653490D02*
X109164500Y-91391585D01*
X109140690Y-91343966D01*
X109093071Y-91320157D01*
X108997833Y-91320157D01*
X108950214Y-91343966D01*
X109164500Y-91629680D02*
X109116880Y-91653490D01*
X108997833Y-91653490D01*
X108950214Y-91629680D01*
X108926404Y-91582061D01*
X108926404Y-91534442D01*
X108950214Y-91486823D01*
X108997833Y-91463014D01*
X109116880Y-91463014D01*
X109164500Y-91439204D01*
X109474023Y-91653490D02*
X109426404Y-91629680D01*
X109402595Y-91582061D01*
X109402595Y-91153490D01*
X109997833Y-91153490D02*
X110307357Y-91153490D01*
X110140690Y-91343966D01*
X110212119Y-91343966D01*
X110259738Y-91367776D01*
X110283547Y-91391585D01*
X110307357Y-91439204D01*
X110307357Y-91558252D01*
X110283547Y-91605871D01*
X110259738Y-91629680D01*
X110212119Y-91653490D01*
X110069261Y-91653490D01*
X110021642Y-91629680D01*
X109997833Y-91605871D01*
X110497833Y-91201109D02*
X110521642Y-91177300D01*
X110569261Y-91153490D01*
X110688309Y-91153490D01*
X110735928Y-91177300D01*
X110759738Y-91201109D01*
X110783547Y-91248728D01*
X110783547Y-91296347D01*
X110759738Y-91367776D01*
X110474023Y-91653490D01*
X110783547Y-91653490D01*
X110997833Y-91653490D02*
X110997833Y-91153490D01*
X111164500Y-91510633D01*
X111331166Y-91153490D01*
X111331166Y-91653490D01*
X111569261Y-91653490D02*
X111569261Y-91153490D01*
X111569261Y-91391585D02*
X111854976Y-91391585D01*
X111854976Y-91653490D02*
X111854976Y-91153490D01*
X112045452Y-91320157D02*
X112307357Y-91320157D01*
X112045452Y-91653490D01*
X112307357Y-91653490D01*
X78652976Y-83071471D02*
X78629166Y-83095280D01*
X78557738Y-83119090D01*
X78510119Y-83119090D01*
X78438690Y-83095280D01*
X78391071Y-83047661D01*
X78367261Y-83000042D01*
X78343452Y-82904804D01*
X78343452Y-82833376D01*
X78367261Y-82738138D01*
X78391071Y-82690519D01*
X78438690Y-82642900D01*
X78510119Y-82619090D01*
X78557738Y-82619090D01*
X78629166Y-82642900D01*
X78652976Y-82666709D01*
X78867261Y-83119090D02*
X78867261Y-82785757D01*
X78867261Y-82880995D02*
X78891071Y-82833376D01*
X78914880Y-82809566D01*
X78962500Y-82785757D01*
X79010119Y-82785757D01*
X79129166Y-82785757D02*
X79248214Y-83119090D01*
X79367261Y-82785757D02*
X79248214Y-83119090D01*
X79200595Y-83238138D01*
X79176785Y-83261947D01*
X79129166Y-83285757D01*
X79533928Y-83095280D02*
X79581547Y-83119090D01*
X79676785Y-83119090D01*
X79724404Y-83095280D01*
X79748214Y-83047661D01*
X79748214Y-83023852D01*
X79724404Y-82976233D01*
X79676785Y-82952423D01*
X79605357Y-82952423D01*
X79557738Y-82928614D01*
X79533928Y-82880995D01*
X79533928Y-82857185D01*
X79557738Y-82809566D01*
X79605357Y-82785757D01*
X79676785Y-82785757D01*
X79724404Y-82809566D01*
X79891071Y-82785757D02*
X80081547Y-82785757D01*
X79962500Y-82619090D02*
X79962500Y-83047661D01*
X79986309Y-83095280D01*
X80033928Y-83119090D01*
X80081547Y-83119090D01*
X80462500Y-83119090D02*
X80462500Y-82857185D01*
X80438690Y-82809566D01*
X80391071Y-82785757D01*
X80295833Y-82785757D01*
X80248214Y-82809566D01*
X80462500Y-83095280D02*
X80414880Y-83119090D01*
X80295833Y-83119090D01*
X80248214Y-83095280D01*
X80224404Y-83047661D01*
X80224404Y-83000042D01*
X80248214Y-82952423D01*
X80295833Y-82928614D01*
X80414880Y-82928614D01*
X80462500Y-82904804D01*
X80772023Y-83119090D02*
X80724404Y-83095280D01*
X80700595Y-83047661D01*
X80700595Y-82619090D01*
X81605357Y-83119090D02*
X81319642Y-83119090D01*
X81462500Y-83119090D02*
X81462500Y-82619090D01*
X81414880Y-82690519D01*
X81367261Y-82738138D01*
X81319642Y-82761947D01*
X82033928Y-82619090D02*
X81938690Y-82619090D01*
X81891071Y-82642900D01*
X81867261Y-82666709D01*
X81819642Y-82738138D01*
X81795833Y-82833376D01*
X81795833Y-83023852D01*
X81819642Y-83071471D01*
X81843452Y-83095280D01*
X81891071Y-83119090D01*
X81986309Y-83119090D01*
X82033928Y-83095280D01*
X82057738Y-83071471D01*
X82081547Y-83023852D01*
X82081547Y-82904804D01*
X82057738Y-82857185D01*
X82033928Y-82833376D01*
X81986309Y-82809566D01*
X81891071Y-82809566D01*
X81843452Y-82833376D01*
X81819642Y-82857185D01*
X81795833Y-82904804D01*
X82295833Y-83119090D02*
X82295833Y-82619090D01*
X82462500Y-82976233D01*
X82629166Y-82619090D01*
X82629166Y-83119090D01*
X82867261Y-83119090D02*
X82867261Y-82619090D01*
X82867261Y-82857185D02*
X83152976Y-82857185D01*
X83152976Y-83119090D02*
X83152976Y-82619090D01*
X83343452Y-82785757D02*
X83605357Y-82785757D01*
X83343452Y-83119090D01*
X83605357Y-83119090D01*
M02*
