G04 #@! TF.GenerationSoftware,KiCad,Pcbnew,(5.1.4)-1*
G04 #@! TF.CreationDate,2019-10-15T21:25:22-05:00*
G04 #@! TF.ProjectId,BACEE,42414345-452e-46b6-9963-61645f706362,1*
G04 #@! TF.SameCoordinates,Original*
G04 #@! TF.FileFunction,Soldermask,Bot*
G04 #@! TF.FilePolarity,Negative*
%FSLAX46Y46*%
G04 Gerber Fmt 4.6, Leading zero omitted, Abs format (unit mm)*
G04 Created by KiCad (PCBNEW (5.1.4)-1) date 2019-10-15 21:25:22*
%MOMM*%
%LPD*%
G04 APERTURE LIST*
%ADD10C,0.100000*%
G04 APERTURE END LIST*
D10*
G36*
X96884442Y-95879518D02*
G01*
X96950627Y-95886037D01*
X97120466Y-95937557D01*
X97276991Y-96021222D01*
X97312729Y-96050552D01*
X97414186Y-96133814D01*
X97497448Y-96235271D01*
X97526778Y-96271009D01*
X97610443Y-96427534D01*
X97661963Y-96597373D01*
X97679359Y-96774000D01*
X97661963Y-96950627D01*
X97610443Y-97120466D01*
X97526778Y-97276991D01*
X97497448Y-97312729D01*
X97414186Y-97414186D01*
X97312729Y-97497448D01*
X97276991Y-97526778D01*
X97120466Y-97610443D01*
X96950627Y-97661963D01*
X96884443Y-97668481D01*
X96818260Y-97675000D01*
X96729740Y-97675000D01*
X96663557Y-97668481D01*
X96597373Y-97661963D01*
X96427534Y-97610443D01*
X96271009Y-97526778D01*
X96235271Y-97497448D01*
X96133814Y-97414186D01*
X96050552Y-97312729D01*
X96021222Y-97276991D01*
X95937557Y-97120466D01*
X95886037Y-96950627D01*
X95868641Y-96774000D01*
X95886037Y-96597373D01*
X95937557Y-96427534D01*
X96021222Y-96271009D01*
X96050552Y-96235271D01*
X96133814Y-96133814D01*
X96235271Y-96050552D01*
X96271009Y-96021222D01*
X96427534Y-95937557D01*
X96597373Y-95886037D01*
X96663558Y-95879518D01*
X96729740Y-95873000D01*
X96818260Y-95873000D01*
X96884442Y-95879518D01*
X96884442Y-95879518D01*
G37*
G36*
X94344442Y-95879518D02*
G01*
X94410627Y-95886037D01*
X94580466Y-95937557D01*
X94736991Y-96021222D01*
X94772729Y-96050552D01*
X94874186Y-96133814D01*
X94957448Y-96235271D01*
X94986778Y-96271009D01*
X95070443Y-96427534D01*
X95121963Y-96597373D01*
X95139359Y-96774000D01*
X95121963Y-96950627D01*
X95070443Y-97120466D01*
X94986778Y-97276991D01*
X94957448Y-97312729D01*
X94874186Y-97414186D01*
X94772729Y-97497448D01*
X94736991Y-97526778D01*
X94580466Y-97610443D01*
X94410627Y-97661963D01*
X94344443Y-97668481D01*
X94278260Y-97675000D01*
X94189740Y-97675000D01*
X94123557Y-97668481D01*
X94057373Y-97661963D01*
X93887534Y-97610443D01*
X93731009Y-97526778D01*
X93695271Y-97497448D01*
X93593814Y-97414186D01*
X93510552Y-97312729D01*
X93481222Y-97276991D01*
X93397557Y-97120466D01*
X93346037Y-96950627D01*
X93328641Y-96774000D01*
X93346037Y-96597373D01*
X93397557Y-96427534D01*
X93481222Y-96271009D01*
X93510552Y-96235271D01*
X93593814Y-96133814D01*
X93695271Y-96050552D01*
X93731009Y-96021222D01*
X93887534Y-95937557D01*
X94057373Y-95886037D01*
X94123558Y-95879518D01*
X94189740Y-95873000D01*
X94278260Y-95873000D01*
X94344442Y-95879518D01*
X94344442Y-95879518D01*
G37*
G36*
X91804442Y-95879518D02*
G01*
X91870627Y-95886037D01*
X92040466Y-95937557D01*
X92196991Y-96021222D01*
X92232729Y-96050552D01*
X92334186Y-96133814D01*
X92417448Y-96235271D01*
X92446778Y-96271009D01*
X92530443Y-96427534D01*
X92581963Y-96597373D01*
X92599359Y-96774000D01*
X92581963Y-96950627D01*
X92530443Y-97120466D01*
X92446778Y-97276991D01*
X92417448Y-97312729D01*
X92334186Y-97414186D01*
X92232729Y-97497448D01*
X92196991Y-97526778D01*
X92040466Y-97610443D01*
X91870627Y-97661963D01*
X91804443Y-97668481D01*
X91738260Y-97675000D01*
X91649740Y-97675000D01*
X91583557Y-97668481D01*
X91517373Y-97661963D01*
X91347534Y-97610443D01*
X91191009Y-97526778D01*
X91155271Y-97497448D01*
X91053814Y-97414186D01*
X90970552Y-97312729D01*
X90941222Y-97276991D01*
X90857557Y-97120466D01*
X90806037Y-96950627D01*
X90788641Y-96774000D01*
X90806037Y-96597373D01*
X90857557Y-96427534D01*
X90941222Y-96271009D01*
X90970552Y-96235271D01*
X91053814Y-96133814D01*
X91155271Y-96050552D01*
X91191009Y-96021222D01*
X91347534Y-95937557D01*
X91517373Y-95886037D01*
X91583558Y-95879518D01*
X91649740Y-95873000D01*
X91738260Y-95873000D01*
X91804442Y-95879518D01*
X91804442Y-95879518D01*
G37*
G36*
X89264442Y-95879518D02*
G01*
X89330627Y-95886037D01*
X89500466Y-95937557D01*
X89656991Y-96021222D01*
X89692729Y-96050552D01*
X89794186Y-96133814D01*
X89877448Y-96235271D01*
X89906778Y-96271009D01*
X89990443Y-96427534D01*
X90041963Y-96597373D01*
X90059359Y-96774000D01*
X90041963Y-96950627D01*
X89990443Y-97120466D01*
X89906778Y-97276991D01*
X89877448Y-97312729D01*
X89794186Y-97414186D01*
X89692729Y-97497448D01*
X89656991Y-97526778D01*
X89500466Y-97610443D01*
X89330627Y-97661963D01*
X89264443Y-97668481D01*
X89198260Y-97675000D01*
X89109740Y-97675000D01*
X89043557Y-97668481D01*
X88977373Y-97661963D01*
X88807534Y-97610443D01*
X88651009Y-97526778D01*
X88615271Y-97497448D01*
X88513814Y-97414186D01*
X88430552Y-97312729D01*
X88401222Y-97276991D01*
X88317557Y-97120466D01*
X88266037Y-96950627D01*
X88248641Y-96774000D01*
X88266037Y-96597373D01*
X88317557Y-96427534D01*
X88401222Y-96271009D01*
X88430552Y-96235271D01*
X88513814Y-96133814D01*
X88615271Y-96050552D01*
X88651009Y-96021222D01*
X88807534Y-95937557D01*
X88977373Y-95886037D01*
X89043558Y-95879518D01*
X89109740Y-95873000D01*
X89198260Y-95873000D01*
X89264442Y-95879518D01*
X89264442Y-95879518D01*
G37*
G36*
X86724442Y-95879518D02*
G01*
X86790627Y-95886037D01*
X86960466Y-95937557D01*
X87116991Y-96021222D01*
X87152729Y-96050552D01*
X87254186Y-96133814D01*
X87337448Y-96235271D01*
X87366778Y-96271009D01*
X87450443Y-96427534D01*
X87501963Y-96597373D01*
X87519359Y-96774000D01*
X87501963Y-96950627D01*
X87450443Y-97120466D01*
X87366778Y-97276991D01*
X87337448Y-97312729D01*
X87254186Y-97414186D01*
X87152729Y-97497448D01*
X87116991Y-97526778D01*
X86960466Y-97610443D01*
X86790627Y-97661963D01*
X86724443Y-97668481D01*
X86658260Y-97675000D01*
X86569740Y-97675000D01*
X86503557Y-97668481D01*
X86437373Y-97661963D01*
X86267534Y-97610443D01*
X86111009Y-97526778D01*
X86075271Y-97497448D01*
X85973814Y-97414186D01*
X85890552Y-97312729D01*
X85861222Y-97276991D01*
X85777557Y-97120466D01*
X85726037Y-96950627D01*
X85708641Y-96774000D01*
X85726037Y-96597373D01*
X85777557Y-96427534D01*
X85861222Y-96271009D01*
X85890552Y-96235271D01*
X85973814Y-96133814D01*
X86075271Y-96050552D01*
X86111009Y-96021222D01*
X86267534Y-95937557D01*
X86437373Y-95886037D01*
X86503558Y-95879518D01*
X86569740Y-95873000D01*
X86658260Y-95873000D01*
X86724442Y-95879518D01*
X86724442Y-95879518D01*
G37*
G36*
X84975000Y-97675000D02*
G01*
X83173000Y-97675000D01*
X83173000Y-95873000D01*
X84975000Y-95873000D01*
X84975000Y-97675000D01*
X84975000Y-97675000D01*
G37*
G36*
X104504442Y-95879518D02*
G01*
X104570627Y-95886037D01*
X104740466Y-95937557D01*
X104896991Y-96021222D01*
X104932729Y-96050552D01*
X105034186Y-96133814D01*
X105117448Y-96235271D01*
X105146778Y-96271009D01*
X105230443Y-96427534D01*
X105281963Y-96597373D01*
X105299359Y-96774000D01*
X105281963Y-96950627D01*
X105230443Y-97120466D01*
X105146778Y-97276991D01*
X105117448Y-97312729D01*
X105034186Y-97414186D01*
X104932729Y-97497448D01*
X104896991Y-97526778D01*
X104740466Y-97610443D01*
X104570627Y-97661963D01*
X104504443Y-97668481D01*
X104438260Y-97675000D01*
X104349740Y-97675000D01*
X104283557Y-97668481D01*
X104217373Y-97661963D01*
X104047534Y-97610443D01*
X103891009Y-97526778D01*
X103855271Y-97497448D01*
X103753814Y-97414186D01*
X103670552Y-97312729D01*
X103641222Y-97276991D01*
X103557557Y-97120466D01*
X103506037Y-96950627D01*
X103488641Y-96774000D01*
X103506037Y-96597373D01*
X103557557Y-96427534D01*
X103641222Y-96271009D01*
X103670552Y-96235271D01*
X103753814Y-96133814D01*
X103855271Y-96050552D01*
X103891009Y-96021222D01*
X104047534Y-95937557D01*
X104217373Y-95886037D01*
X104283557Y-95879519D01*
X104349740Y-95873000D01*
X104438260Y-95873000D01*
X104504442Y-95879518D01*
X104504442Y-95879518D01*
G37*
G36*
X99424442Y-95879518D02*
G01*
X99490627Y-95886037D01*
X99660466Y-95937557D01*
X99816991Y-96021222D01*
X99852729Y-96050552D01*
X99954186Y-96133814D01*
X100037448Y-96235271D01*
X100066778Y-96271009D01*
X100150443Y-96427534D01*
X100201963Y-96597373D01*
X100219359Y-96774000D01*
X100201963Y-96950627D01*
X100150443Y-97120466D01*
X100066778Y-97276991D01*
X100037448Y-97312729D01*
X99954186Y-97414186D01*
X99852729Y-97497448D01*
X99816991Y-97526778D01*
X99660466Y-97610443D01*
X99490627Y-97661963D01*
X99424443Y-97668481D01*
X99358260Y-97675000D01*
X99269740Y-97675000D01*
X99203557Y-97668481D01*
X99137373Y-97661963D01*
X98967534Y-97610443D01*
X98811009Y-97526778D01*
X98775271Y-97497448D01*
X98673814Y-97414186D01*
X98590552Y-97312729D01*
X98561222Y-97276991D01*
X98477557Y-97120466D01*
X98426037Y-96950627D01*
X98408641Y-96774000D01*
X98426037Y-96597373D01*
X98477557Y-96427534D01*
X98561222Y-96271009D01*
X98590552Y-96235271D01*
X98673814Y-96133814D01*
X98775271Y-96050552D01*
X98811009Y-96021222D01*
X98967534Y-95937557D01*
X99137373Y-95886037D01*
X99203558Y-95879518D01*
X99269740Y-95873000D01*
X99358260Y-95873000D01*
X99424442Y-95879518D01*
X99424442Y-95879518D01*
G37*
G36*
X101964442Y-95879518D02*
G01*
X102030627Y-95886037D01*
X102200466Y-95937557D01*
X102356991Y-96021222D01*
X102392729Y-96050552D01*
X102494186Y-96133814D01*
X102577448Y-96235271D01*
X102606778Y-96271009D01*
X102690443Y-96427534D01*
X102741963Y-96597373D01*
X102759359Y-96774000D01*
X102741963Y-96950627D01*
X102690443Y-97120466D01*
X102606778Y-97276991D01*
X102577448Y-97312729D01*
X102494186Y-97414186D01*
X102392729Y-97497448D01*
X102356991Y-97526778D01*
X102200466Y-97610443D01*
X102030627Y-97661963D01*
X101964443Y-97668481D01*
X101898260Y-97675000D01*
X101809740Y-97675000D01*
X101743557Y-97668481D01*
X101677373Y-97661963D01*
X101507534Y-97610443D01*
X101351009Y-97526778D01*
X101315271Y-97497448D01*
X101213814Y-97414186D01*
X101130552Y-97312729D01*
X101101222Y-97276991D01*
X101017557Y-97120466D01*
X100966037Y-96950627D01*
X100948641Y-96774000D01*
X100966037Y-96597373D01*
X101017557Y-96427534D01*
X101101222Y-96271009D01*
X101130552Y-96235271D01*
X101213814Y-96133814D01*
X101315271Y-96050552D01*
X101351009Y-96021222D01*
X101507534Y-95937557D01*
X101677373Y-95886037D01*
X101743557Y-95879519D01*
X101809740Y-95873000D01*
X101898260Y-95873000D01*
X101964442Y-95879518D01*
X101964442Y-95879518D01*
G37*
G36*
X73643442Y-89910518D02*
G01*
X73709627Y-89917037D01*
X73879466Y-89968557D01*
X74035991Y-90052222D01*
X74071729Y-90081552D01*
X74173186Y-90164814D01*
X74256448Y-90266271D01*
X74285778Y-90302009D01*
X74369443Y-90458534D01*
X74420963Y-90628373D01*
X74438359Y-90805000D01*
X74420963Y-90981627D01*
X74369443Y-91151466D01*
X74285778Y-91307991D01*
X74256448Y-91343729D01*
X74173186Y-91445186D01*
X74071729Y-91528448D01*
X74035991Y-91557778D01*
X73879466Y-91641443D01*
X73709627Y-91692963D01*
X73643442Y-91699482D01*
X73577260Y-91706000D01*
X73488740Y-91706000D01*
X73422558Y-91699482D01*
X73356373Y-91692963D01*
X73186534Y-91641443D01*
X73030009Y-91557778D01*
X72994271Y-91528448D01*
X72892814Y-91445186D01*
X72809552Y-91343729D01*
X72780222Y-91307991D01*
X72696557Y-91151466D01*
X72645037Y-90981627D01*
X72627641Y-90805000D01*
X72645037Y-90628373D01*
X72696557Y-90458534D01*
X72780222Y-90302009D01*
X72809552Y-90266271D01*
X72892814Y-90164814D01*
X72994271Y-90081552D01*
X73030009Y-90052222D01*
X73186534Y-89968557D01*
X73356373Y-89917037D01*
X73422558Y-89910518D01*
X73488740Y-89904000D01*
X73577260Y-89904000D01*
X73643442Y-89910518D01*
X73643442Y-89910518D01*
G37*
G36*
X76183442Y-89910518D02*
G01*
X76249627Y-89917037D01*
X76419466Y-89968557D01*
X76575991Y-90052222D01*
X76611729Y-90081552D01*
X76713186Y-90164814D01*
X76796448Y-90266271D01*
X76825778Y-90302009D01*
X76909443Y-90458534D01*
X76960963Y-90628373D01*
X76978359Y-90805000D01*
X76960963Y-90981627D01*
X76909443Y-91151466D01*
X76825778Y-91307991D01*
X76796448Y-91343729D01*
X76713186Y-91445186D01*
X76611729Y-91528448D01*
X76575991Y-91557778D01*
X76419466Y-91641443D01*
X76249627Y-91692963D01*
X76183442Y-91699482D01*
X76117260Y-91706000D01*
X76028740Y-91706000D01*
X75962558Y-91699482D01*
X75896373Y-91692963D01*
X75726534Y-91641443D01*
X75570009Y-91557778D01*
X75534271Y-91528448D01*
X75432814Y-91445186D01*
X75349552Y-91343729D01*
X75320222Y-91307991D01*
X75236557Y-91151466D01*
X75185037Y-90981627D01*
X75167641Y-90805000D01*
X75185037Y-90628373D01*
X75236557Y-90458534D01*
X75320222Y-90302009D01*
X75349552Y-90266271D01*
X75432814Y-90164814D01*
X75534271Y-90081552D01*
X75570009Y-90052222D01*
X75726534Y-89968557D01*
X75896373Y-89917037D01*
X75962558Y-89910518D01*
X76028740Y-89904000D01*
X76117260Y-89904000D01*
X76183442Y-89910518D01*
X76183442Y-89910518D01*
G37*
G36*
X76183443Y-87370519D02*
G01*
X76249627Y-87377037D01*
X76419466Y-87428557D01*
X76575991Y-87512222D01*
X76611729Y-87541552D01*
X76713186Y-87624814D01*
X76796448Y-87726271D01*
X76825778Y-87762009D01*
X76909443Y-87918534D01*
X76960963Y-88088373D01*
X76978359Y-88265000D01*
X76960963Y-88441627D01*
X76909443Y-88611466D01*
X76825778Y-88767991D01*
X76796448Y-88803729D01*
X76713186Y-88905186D01*
X76611729Y-88988448D01*
X76575991Y-89017778D01*
X76419466Y-89101443D01*
X76249627Y-89152963D01*
X76183443Y-89159481D01*
X76117260Y-89166000D01*
X76028740Y-89166000D01*
X75962557Y-89159481D01*
X75896373Y-89152963D01*
X75726534Y-89101443D01*
X75570009Y-89017778D01*
X75534271Y-88988448D01*
X75432814Y-88905186D01*
X75349552Y-88803729D01*
X75320222Y-88767991D01*
X75236557Y-88611466D01*
X75185037Y-88441627D01*
X75167641Y-88265000D01*
X75185037Y-88088373D01*
X75236557Y-87918534D01*
X75320222Y-87762009D01*
X75349552Y-87726271D01*
X75432814Y-87624814D01*
X75534271Y-87541552D01*
X75570009Y-87512222D01*
X75726534Y-87428557D01*
X75896373Y-87377037D01*
X75962557Y-87370519D01*
X76028740Y-87364000D01*
X76117260Y-87364000D01*
X76183443Y-87370519D01*
X76183443Y-87370519D01*
G37*
G36*
X73643443Y-87370519D02*
G01*
X73709627Y-87377037D01*
X73879466Y-87428557D01*
X74035991Y-87512222D01*
X74071729Y-87541552D01*
X74173186Y-87624814D01*
X74256448Y-87726271D01*
X74285778Y-87762009D01*
X74369443Y-87918534D01*
X74420963Y-88088373D01*
X74438359Y-88265000D01*
X74420963Y-88441627D01*
X74369443Y-88611466D01*
X74285778Y-88767991D01*
X74256448Y-88803729D01*
X74173186Y-88905186D01*
X74071729Y-88988448D01*
X74035991Y-89017778D01*
X73879466Y-89101443D01*
X73709627Y-89152963D01*
X73643443Y-89159481D01*
X73577260Y-89166000D01*
X73488740Y-89166000D01*
X73422557Y-89159481D01*
X73356373Y-89152963D01*
X73186534Y-89101443D01*
X73030009Y-89017778D01*
X72994271Y-88988448D01*
X72892814Y-88905186D01*
X72809552Y-88803729D01*
X72780222Y-88767991D01*
X72696557Y-88611466D01*
X72645037Y-88441627D01*
X72627641Y-88265000D01*
X72645037Y-88088373D01*
X72696557Y-87918534D01*
X72780222Y-87762009D01*
X72809552Y-87726271D01*
X72892814Y-87624814D01*
X72994271Y-87541552D01*
X73030009Y-87512222D01*
X73186534Y-87428557D01*
X73356373Y-87377037D01*
X73422557Y-87370519D01*
X73488740Y-87364000D01*
X73577260Y-87364000D01*
X73643443Y-87370519D01*
X73643443Y-87370519D01*
G37*
G36*
X76974000Y-86626000D02*
G01*
X75172000Y-86626000D01*
X75172000Y-84824000D01*
X76974000Y-84824000D01*
X76974000Y-86626000D01*
X76974000Y-86626000D01*
G37*
G36*
X73643443Y-84830519D02*
G01*
X73709627Y-84837037D01*
X73879466Y-84888557D01*
X74035991Y-84972222D01*
X74071729Y-85001552D01*
X74173186Y-85084814D01*
X74256448Y-85186271D01*
X74285778Y-85222009D01*
X74369443Y-85378534D01*
X74420963Y-85548373D01*
X74438359Y-85725000D01*
X74420963Y-85901627D01*
X74369443Y-86071466D01*
X74285778Y-86227991D01*
X74256448Y-86263729D01*
X74173186Y-86365186D01*
X74071729Y-86448448D01*
X74035991Y-86477778D01*
X73879466Y-86561443D01*
X73709627Y-86612963D01*
X73643442Y-86619482D01*
X73577260Y-86626000D01*
X73488740Y-86626000D01*
X73422558Y-86619482D01*
X73356373Y-86612963D01*
X73186534Y-86561443D01*
X73030009Y-86477778D01*
X72994271Y-86448448D01*
X72892814Y-86365186D01*
X72809552Y-86263729D01*
X72780222Y-86227991D01*
X72696557Y-86071466D01*
X72645037Y-85901627D01*
X72627641Y-85725000D01*
X72645037Y-85548373D01*
X72696557Y-85378534D01*
X72780222Y-85222009D01*
X72809552Y-85186271D01*
X72892814Y-85084814D01*
X72994271Y-85001552D01*
X73030009Y-84972222D01*
X73186534Y-84888557D01*
X73356373Y-84837037D01*
X73422557Y-84830519D01*
X73488740Y-84824000D01*
X73577260Y-84824000D01*
X73643443Y-84830519D01*
X73643443Y-84830519D01*
G37*
G36*
X73643442Y-79369518D02*
G01*
X73709627Y-79376037D01*
X73879466Y-79427557D01*
X74035991Y-79511222D01*
X74071729Y-79540552D01*
X74173186Y-79623814D01*
X74256448Y-79725271D01*
X74285778Y-79761009D01*
X74369443Y-79917534D01*
X74420963Y-80087373D01*
X74438359Y-80264000D01*
X74420963Y-80440627D01*
X74369443Y-80610466D01*
X74285778Y-80766991D01*
X74256448Y-80802729D01*
X74173186Y-80904186D01*
X74071729Y-80987448D01*
X74035991Y-81016778D01*
X73879466Y-81100443D01*
X73709627Y-81151963D01*
X73643443Y-81158481D01*
X73577260Y-81165000D01*
X73488740Y-81165000D01*
X73422557Y-81158481D01*
X73356373Y-81151963D01*
X73186534Y-81100443D01*
X73030009Y-81016778D01*
X72994271Y-80987448D01*
X72892814Y-80904186D01*
X72809552Y-80802729D01*
X72780222Y-80766991D01*
X72696557Y-80610466D01*
X72645037Y-80440627D01*
X72627641Y-80264000D01*
X72645037Y-80087373D01*
X72696557Y-79917534D01*
X72780222Y-79761009D01*
X72809552Y-79725271D01*
X72892814Y-79623814D01*
X72994271Y-79540552D01*
X73030009Y-79511222D01*
X73186534Y-79427557D01*
X73356373Y-79376037D01*
X73422558Y-79369518D01*
X73488740Y-79363000D01*
X73577260Y-79363000D01*
X73643442Y-79369518D01*
X73643442Y-79369518D01*
G37*
G36*
X74434000Y-78625000D02*
G01*
X72632000Y-78625000D01*
X72632000Y-76823000D01*
X74434000Y-76823000D01*
X74434000Y-78625000D01*
X74434000Y-78625000D01*
G37*
G36*
X99072000Y-77101000D02*
G01*
X97270000Y-77101000D01*
X97270000Y-75299000D01*
X99072000Y-75299000D01*
X99072000Y-77101000D01*
X99072000Y-77101000D01*
G37*
G36*
X100821442Y-75305518D02*
G01*
X100887627Y-75312037D01*
X101057466Y-75363557D01*
X101213991Y-75447222D01*
X101249729Y-75476552D01*
X101351186Y-75559814D01*
X101434448Y-75661271D01*
X101463778Y-75697009D01*
X101547443Y-75853534D01*
X101598963Y-76023373D01*
X101616359Y-76200000D01*
X101598963Y-76376627D01*
X101547443Y-76546466D01*
X101463778Y-76702991D01*
X101434448Y-76738729D01*
X101351186Y-76840186D01*
X101249729Y-76923448D01*
X101213991Y-76952778D01*
X101057466Y-77036443D01*
X100887627Y-77087963D01*
X100821442Y-77094482D01*
X100755260Y-77101000D01*
X100666740Y-77101000D01*
X100600558Y-77094482D01*
X100534373Y-77087963D01*
X100364534Y-77036443D01*
X100208009Y-76952778D01*
X100172271Y-76923448D01*
X100070814Y-76840186D01*
X99987552Y-76738729D01*
X99958222Y-76702991D01*
X99874557Y-76546466D01*
X99823037Y-76376627D01*
X99805641Y-76200000D01*
X99823037Y-76023373D01*
X99874557Y-75853534D01*
X99958222Y-75697009D01*
X99987552Y-75661271D01*
X100070814Y-75559814D01*
X100172271Y-75476552D01*
X100208009Y-75447222D01*
X100364534Y-75363557D01*
X100534373Y-75312037D01*
X100600558Y-75305518D01*
X100666740Y-75299000D01*
X100755260Y-75299000D01*
X100821442Y-75305518D01*
X100821442Y-75305518D01*
G37*
G36*
X103361442Y-75305518D02*
G01*
X103427627Y-75312037D01*
X103597466Y-75363557D01*
X103753991Y-75447222D01*
X103789729Y-75476552D01*
X103891186Y-75559814D01*
X103974448Y-75661271D01*
X104003778Y-75697009D01*
X104087443Y-75853534D01*
X104138963Y-76023373D01*
X104156359Y-76200000D01*
X104138963Y-76376627D01*
X104087443Y-76546466D01*
X104003778Y-76702991D01*
X103974448Y-76738729D01*
X103891186Y-76840186D01*
X103789729Y-76923448D01*
X103753991Y-76952778D01*
X103597466Y-77036443D01*
X103427627Y-77087963D01*
X103361442Y-77094482D01*
X103295260Y-77101000D01*
X103206740Y-77101000D01*
X103140558Y-77094482D01*
X103074373Y-77087963D01*
X102904534Y-77036443D01*
X102748009Y-76952778D01*
X102712271Y-76923448D01*
X102610814Y-76840186D01*
X102527552Y-76738729D01*
X102498222Y-76702991D01*
X102414557Y-76546466D01*
X102363037Y-76376627D01*
X102345641Y-76200000D01*
X102363037Y-76023373D01*
X102414557Y-75853534D01*
X102498222Y-75697009D01*
X102527552Y-75661271D01*
X102610814Y-75559814D01*
X102712271Y-75476552D01*
X102748009Y-75447222D01*
X102904534Y-75363557D01*
X103074373Y-75312037D01*
X103140558Y-75305518D01*
X103206740Y-75299000D01*
X103295260Y-75299000D01*
X103361442Y-75305518D01*
X103361442Y-75305518D01*
G37*
G36*
X105901442Y-75305518D02*
G01*
X105967627Y-75312037D01*
X106137466Y-75363557D01*
X106293991Y-75447222D01*
X106329729Y-75476552D01*
X106431186Y-75559814D01*
X106514448Y-75661271D01*
X106543778Y-75697009D01*
X106627443Y-75853534D01*
X106678963Y-76023373D01*
X106696359Y-76200000D01*
X106678963Y-76376627D01*
X106627443Y-76546466D01*
X106543778Y-76702991D01*
X106514448Y-76738729D01*
X106431186Y-76840186D01*
X106329729Y-76923448D01*
X106293991Y-76952778D01*
X106137466Y-77036443D01*
X105967627Y-77087963D01*
X105901442Y-77094482D01*
X105835260Y-77101000D01*
X105746740Y-77101000D01*
X105680558Y-77094482D01*
X105614373Y-77087963D01*
X105444534Y-77036443D01*
X105288009Y-76952778D01*
X105252271Y-76923448D01*
X105150814Y-76840186D01*
X105067552Y-76738729D01*
X105038222Y-76702991D01*
X104954557Y-76546466D01*
X104903037Y-76376627D01*
X104885641Y-76200000D01*
X104903037Y-76023373D01*
X104954557Y-75853534D01*
X105038222Y-75697009D01*
X105067552Y-75661271D01*
X105150814Y-75559814D01*
X105252271Y-75476552D01*
X105288009Y-75447222D01*
X105444534Y-75363557D01*
X105614373Y-75312037D01*
X105680558Y-75305518D01*
X105746740Y-75299000D01*
X105835260Y-75299000D01*
X105901442Y-75305518D01*
X105901442Y-75305518D01*
G37*
G36*
X86118000Y-77101000D02*
G01*
X84316000Y-77101000D01*
X84316000Y-75299000D01*
X86118000Y-75299000D01*
X86118000Y-77101000D01*
X86118000Y-77101000D01*
G37*
G36*
X92947442Y-75305518D02*
G01*
X93013627Y-75312037D01*
X93183466Y-75363557D01*
X93339991Y-75447222D01*
X93375729Y-75476552D01*
X93477186Y-75559814D01*
X93560448Y-75661271D01*
X93589778Y-75697009D01*
X93673443Y-75853534D01*
X93724963Y-76023373D01*
X93742359Y-76200000D01*
X93724963Y-76376627D01*
X93673443Y-76546466D01*
X93589778Y-76702991D01*
X93560448Y-76738729D01*
X93477186Y-76840186D01*
X93375729Y-76923448D01*
X93339991Y-76952778D01*
X93183466Y-77036443D01*
X93013627Y-77087963D01*
X92947442Y-77094482D01*
X92881260Y-77101000D01*
X92792740Y-77101000D01*
X92726558Y-77094482D01*
X92660373Y-77087963D01*
X92490534Y-77036443D01*
X92334009Y-76952778D01*
X92298271Y-76923448D01*
X92196814Y-76840186D01*
X92113552Y-76738729D01*
X92084222Y-76702991D01*
X92000557Y-76546466D01*
X91949037Y-76376627D01*
X91931641Y-76200000D01*
X91949037Y-76023373D01*
X92000557Y-75853534D01*
X92084222Y-75697009D01*
X92113552Y-75661271D01*
X92196814Y-75559814D01*
X92298271Y-75476552D01*
X92334009Y-75447222D01*
X92490534Y-75363557D01*
X92660373Y-75312037D01*
X92726558Y-75305518D01*
X92792740Y-75299000D01*
X92881260Y-75299000D01*
X92947442Y-75305518D01*
X92947442Y-75305518D01*
G37*
G36*
X90407442Y-75305518D02*
G01*
X90473627Y-75312037D01*
X90643466Y-75363557D01*
X90799991Y-75447222D01*
X90835729Y-75476552D01*
X90937186Y-75559814D01*
X91020448Y-75661271D01*
X91049778Y-75697009D01*
X91133443Y-75853534D01*
X91184963Y-76023373D01*
X91202359Y-76200000D01*
X91184963Y-76376627D01*
X91133443Y-76546466D01*
X91049778Y-76702991D01*
X91020448Y-76738729D01*
X90937186Y-76840186D01*
X90835729Y-76923448D01*
X90799991Y-76952778D01*
X90643466Y-77036443D01*
X90473627Y-77087963D01*
X90407442Y-77094482D01*
X90341260Y-77101000D01*
X90252740Y-77101000D01*
X90186558Y-77094482D01*
X90120373Y-77087963D01*
X89950534Y-77036443D01*
X89794009Y-76952778D01*
X89758271Y-76923448D01*
X89656814Y-76840186D01*
X89573552Y-76738729D01*
X89544222Y-76702991D01*
X89460557Y-76546466D01*
X89409037Y-76376627D01*
X89391641Y-76200000D01*
X89409037Y-76023373D01*
X89460557Y-75853534D01*
X89544222Y-75697009D01*
X89573552Y-75661271D01*
X89656814Y-75559814D01*
X89758271Y-75476552D01*
X89794009Y-75447222D01*
X89950534Y-75363557D01*
X90120373Y-75312037D01*
X90186558Y-75305518D01*
X90252740Y-75299000D01*
X90341260Y-75299000D01*
X90407442Y-75305518D01*
X90407442Y-75305518D01*
G37*
G36*
X87867442Y-75305518D02*
G01*
X87933627Y-75312037D01*
X88103466Y-75363557D01*
X88259991Y-75447222D01*
X88295729Y-75476552D01*
X88397186Y-75559814D01*
X88480448Y-75661271D01*
X88509778Y-75697009D01*
X88593443Y-75853534D01*
X88644963Y-76023373D01*
X88662359Y-76200000D01*
X88644963Y-76376627D01*
X88593443Y-76546466D01*
X88509778Y-76702991D01*
X88480448Y-76738729D01*
X88397186Y-76840186D01*
X88295729Y-76923448D01*
X88259991Y-76952778D01*
X88103466Y-77036443D01*
X87933627Y-77087963D01*
X87867442Y-77094482D01*
X87801260Y-77101000D01*
X87712740Y-77101000D01*
X87646558Y-77094482D01*
X87580373Y-77087963D01*
X87410534Y-77036443D01*
X87254009Y-76952778D01*
X87218271Y-76923448D01*
X87116814Y-76840186D01*
X87033552Y-76738729D01*
X87004222Y-76702991D01*
X86920557Y-76546466D01*
X86869037Y-76376627D01*
X86851641Y-76200000D01*
X86869037Y-76023373D01*
X86920557Y-75853534D01*
X87004222Y-75697009D01*
X87033552Y-75661271D01*
X87116814Y-75559814D01*
X87218271Y-75476552D01*
X87254009Y-75447222D01*
X87410534Y-75363557D01*
X87580373Y-75312037D01*
X87646558Y-75305518D01*
X87712740Y-75299000D01*
X87801260Y-75299000D01*
X87867442Y-75305518D01*
X87867442Y-75305518D01*
G37*
M02*
