G04 #@! TF.GenerationSoftware,KiCad,Pcbnew,(5.1.4)-1*
G04 #@! TF.CreationDate,2019-10-15T21:25:22-05:00*
G04 #@! TF.ProjectId,BACEE,42414345-452e-46b6-9963-61645f706362,1*
G04 #@! TF.SameCoordinates,Original*
G04 #@! TF.FileFunction,Soldermask,Top*
G04 #@! TF.FilePolarity,Negative*
%FSLAX46Y46*%
G04 Gerber Fmt 4.6, Leading zero omitted, Abs format (unit mm)*
G04 Created by KiCad (PCBNEW (5.1.4)-1) date 2019-10-15 21:25:22*
%MOMM*%
%LPD*%
G04 APERTURE LIST*
%ADD10C,0.100000*%
G04 APERTURE END LIST*
D10*
G36*
X104504442Y-95879518D02*
G01*
X104570627Y-95886037D01*
X104740466Y-95937557D01*
X104896991Y-96021222D01*
X104932729Y-96050552D01*
X105034186Y-96133814D01*
X105117448Y-96235271D01*
X105146778Y-96271009D01*
X105230443Y-96427534D01*
X105281963Y-96597373D01*
X105299359Y-96774000D01*
X105281963Y-96950627D01*
X105230443Y-97120466D01*
X105146778Y-97276991D01*
X105117448Y-97312729D01*
X105034186Y-97414186D01*
X104932729Y-97497448D01*
X104896991Y-97526778D01*
X104740466Y-97610443D01*
X104570627Y-97661963D01*
X104504443Y-97668481D01*
X104438260Y-97675000D01*
X104349740Y-97675000D01*
X104283557Y-97668481D01*
X104217373Y-97661963D01*
X104047534Y-97610443D01*
X103891009Y-97526778D01*
X103855271Y-97497448D01*
X103753814Y-97414186D01*
X103670552Y-97312729D01*
X103641222Y-97276991D01*
X103557557Y-97120466D01*
X103506037Y-96950627D01*
X103488641Y-96774000D01*
X103506037Y-96597373D01*
X103557557Y-96427534D01*
X103641222Y-96271009D01*
X103670552Y-96235271D01*
X103753814Y-96133814D01*
X103855271Y-96050552D01*
X103891009Y-96021222D01*
X104047534Y-95937557D01*
X104217373Y-95886037D01*
X104283557Y-95879519D01*
X104349740Y-95873000D01*
X104438260Y-95873000D01*
X104504442Y-95879518D01*
X104504442Y-95879518D01*
G37*
G36*
X101964442Y-95879518D02*
G01*
X102030627Y-95886037D01*
X102200466Y-95937557D01*
X102356991Y-96021222D01*
X102392729Y-96050552D01*
X102494186Y-96133814D01*
X102577448Y-96235271D01*
X102606778Y-96271009D01*
X102690443Y-96427534D01*
X102741963Y-96597373D01*
X102759359Y-96774000D01*
X102741963Y-96950627D01*
X102690443Y-97120466D01*
X102606778Y-97276991D01*
X102577448Y-97312729D01*
X102494186Y-97414186D01*
X102392729Y-97497448D01*
X102356991Y-97526778D01*
X102200466Y-97610443D01*
X102030627Y-97661963D01*
X101964443Y-97668481D01*
X101898260Y-97675000D01*
X101809740Y-97675000D01*
X101743557Y-97668481D01*
X101677373Y-97661963D01*
X101507534Y-97610443D01*
X101351009Y-97526778D01*
X101315271Y-97497448D01*
X101213814Y-97414186D01*
X101130552Y-97312729D01*
X101101222Y-97276991D01*
X101017557Y-97120466D01*
X100966037Y-96950627D01*
X100948641Y-96774000D01*
X100966037Y-96597373D01*
X101017557Y-96427534D01*
X101101222Y-96271009D01*
X101130552Y-96235271D01*
X101213814Y-96133814D01*
X101315271Y-96050552D01*
X101351009Y-96021222D01*
X101507534Y-95937557D01*
X101677373Y-95886037D01*
X101743557Y-95879519D01*
X101809740Y-95873000D01*
X101898260Y-95873000D01*
X101964442Y-95879518D01*
X101964442Y-95879518D01*
G37*
G36*
X84975000Y-97675000D02*
G01*
X83173000Y-97675000D01*
X83173000Y-95873000D01*
X84975000Y-95873000D01*
X84975000Y-97675000D01*
X84975000Y-97675000D01*
G37*
G36*
X86724442Y-95879518D02*
G01*
X86790627Y-95886037D01*
X86960466Y-95937557D01*
X87116991Y-96021222D01*
X87152729Y-96050552D01*
X87254186Y-96133814D01*
X87337448Y-96235271D01*
X87366778Y-96271009D01*
X87450443Y-96427534D01*
X87501963Y-96597373D01*
X87519359Y-96774000D01*
X87501963Y-96950627D01*
X87450443Y-97120466D01*
X87366778Y-97276991D01*
X87337448Y-97312729D01*
X87254186Y-97414186D01*
X87152729Y-97497448D01*
X87116991Y-97526778D01*
X86960466Y-97610443D01*
X86790627Y-97661963D01*
X86724443Y-97668481D01*
X86658260Y-97675000D01*
X86569740Y-97675000D01*
X86503557Y-97668481D01*
X86437373Y-97661963D01*
X86267534Y-97610443D01*
X86111009Y-97526778D01*
X86075271Y-97497448D01*
X85973814Y-97414186D01*
X85890552Y-97312729D01*
X85861222Y-97276991D01*
X85777557Y-97120466D01*
X85726037Y-96950627D01*
X85708641Y-96774000D01*
X85726037Y-96597373D01*
X85777557Y-96427534D01*
X85861222Y-96271009D01*
X85890552Y-96235271D01*
X85973814Y-96133814D01*
X86075271Y-96050552D01*
X86111009Y-96021222D01*
X86267534Y-95937557D01*
X86437373Y-95886037D01*
X86503558Y-95879518D01*
X86569740Y-95873000D01*
X86658260Y-95873000D01*
X86724442Y-95879518D01*
X86724442Y-95879518D01*
G37*
G36*
X89264442Y-95879518D02*
G01*
X89330627Y-95886037D01*
X89500466Y-95937557D01*
X89656991Y-96021222D01*
X89692729Y-96050552D01*
X89794186Y-96133814D01*
X89877448Y-96235271D01*
X89906778Y-96271009D01*
X89990443Y-96427534D01*
X90041963Y-96597373D01*
X90059359Y-96774000D01*
X90041963Y-96950627D01*
X89990443Y-97120466D01*
X89906778Y-97276991D01*
X89877448Y-97312729D01*
X89794186Y-97414186D01*
X89692729Y-97497448D01*
X89656991Y-97526778D01*
X89500466Y-97610443D01*
X89330627Y-97661963D01*
X89264443Y-97668481D01*
X89198260Y-97675000D01*
X89109740Y-97675000D01*
X89043557Y-97668481D01*
X88977373Y-97661963D01*
X88807534Y-97610443D01*
X88651009Y-97526778D01*
X88615271Y-97497448D01*
X88513814Y-97414186D01*
X88430552Y-97312729D01*
X88401222Y-97276991D01*
X88317557Y-97120466D01*
X88266037Y-96950627D01*
X88248641Y-96774000D01*
X88266037Y-96597373D01*
X88317557Y-96427534D01*
X88401222Y-96271009D01*
X88430552Y-96235271D01*
X88513814Y-96133814D01*
X88615271Y-96050552D01*
X88651009Y-96021222D01*
X88807534Y-95937557D01*
X88977373Y-95886037D01*
X89043558Y-95879518D01*
X89109740Y-95873000D01*
X89198260Y-95873000D01*
X89264442Y-95879518D01*
X89264442Y-95879518D01*
G37*
G36*
X94344442Y-95879518D02*
G01*
X94410627Y-95886037D01*
X94580466Y-95937557D01*
X94736991Y-96021222D01*
X94772729Y-96050552D01*
X94874186Y-96133814D01*
X94957448Y-96235271D01*
X94986778Y-96271009D01*
X95070443Y-96427534D01*
X95121963Y-96597373D01*
X95139359Y-96774000D01*
X95121963Y-96950627D01*
X95070443Y-97120466D01*
X94986778Y-97276991D01*
X94957448Y-97312729D01*
X94874186Y-97414186D01*
X94772729Y-97497448D01*
X94736991Y-97526778D01*
X94580466Y-97610443D01*
X94410627Y-97661963D01*
X94344443Y-97668481D01*
X94278260Y-97675000D01*
X94189740Y-97675000D01*
X94123557Y-97668481D01*
X94057373Y-97661963D01*
X93887534Y-97610443D01*
X93731009Y-97526778D01*
X93695271Y-97497448D01*
X93593814Y-97414186D01*
X93510552Y-97312729D01*
X93481222Y-97276991D01*
X93397557Y-97120466D01*
X93346037Y-96950627D01*
X93328641Y-96774000D01*
X93346037Y-96597373D01*
X93397557Y-96427534D01*
X93481222Y-96271009D01*
X93510552Y-96235271D01*
X93593814Y-96133814D01*
X93695271Y-96050552D01*
X93731009Y-96021222D01*
X93887534Y-95937557D01*
X94057373Y-95886037D01*
X94123558Y-95879518D01*
X94189740Y-95873000D01*
X94278260Y-95873000D01*
X94344442Y-95879518D01*
X94344442Y-95879518D01*
G37*
G36*
X96884442Y-95879518D02*
G01*
X96950627Y-95886037D01*
X97120466Y-95937557D01*
X97276991Y-96021222D01*
X97312729Y-96050552D01*
X97414186Y-96133814D01*
X97497448Y-96235271D01*
X97526778Y-96271009D01*
X97610443Y-96427534D01*
X97661963Y-96597373D01*
X97679359Y-96774000D01*
X97661963Y-96950627D01*
X97610443Y-97120466D01*
X97526778Y-97276991D01*
X97497448Y-97312729D01*
X97414186Y-97414186D01*
X97312729Y-97497448D01*
X97276991Y-97526778D01*
X97120466Y-97610443D01*
X96950627Y-97661963D01*
X96884443Y-97668481D01*
X96818260Y-97675000D01*
X96729740Y-97675000D01*
X96663557Y-97668481D01*
X96597373Y-97661963D01*
X96427534Y-97610443D01*
X96271009Y-97526778D01*
X96235271Y-97497448D01*
X96133814Y-97414186D01*
X96050552Y-97312729D01*
X96021222Y-97276991D01*
X95937557Y-97120466D01*
X95886037Y-96950627D01*
X95868641Y-96774000D01*
X95886037Y-96597373D01*
X95937557Y-96427534D01*
X96021222Y-96271009D01*
X96050552Y-96235271D01*
X96133814Y-96133814D01*
X96235271Y-96050552D01*
X96271009Y-96021222D01*
X96427534Y-95937557D01*
X96597373Y-95886037D01*
X96663558Y-95879518D01*
X96729740Y-95873000D01*
X96818260Y-95873000D01*
X96884442Y-95879518D01*
X96884442Y-95879518D01*
G37*
G36*
X99424442Y-95879518D02*
G01*
X99490627Y-95886037D01*
X99660466Y-95937557D01*
X99816991Y-96021222D01*
X99852729Y-96050552D01*
X99954186Y-96133814D01*
X100037448Y-96235271D01*
X100066778Y-96271009D01*
X100150443Y-96427534D01*
X100201963Y-96597373D01*
X100219359Y-96774000D01*
X100201963Y-96950627D01*
X100150443Y-97120466D01*
X100066778Y-97276991D01*
X100037448Y-97312729D01*
X99954186Y-97414186D01*
X99852729Y-97497448D01*
X99816991Y-97526778D01*
X99660466Y-97610443D01*
X99490627Y-97661963D01*
X99424443Y-97668481D01*
X99358260Y-97675000D01*
X99269740Y-97675000D01*
X99203557Y-97668481D01*
X99137373Y-97661963D01*
X98967534Y-97610443D01*
X98811009Y-97526778D01*
X98775271Y-97497448D01*
X98673814Y-97414186D01*
X98590552Y-97312729D01*
X98561222Y-97276991D01*
X98477557Y-97120466D01*
X98426037Y-96950627D01*
X98408641Y-96774000D01*
X98426037Y-96597373D01*
X98477557Y-96427534D01*
X98561222Y-96271009D01*
X98590552Y-96235271D01*
X98673814Y-96133814D01*
X98775271Y-96050552D01*
X98811009Y-96021222D01*
X98967534Y-95937557D01*
X99137373Y-95886037D01*
X99203558Y-95879518D01*
X99269740Y-95873000D01*
X99358260Y-95873000D01*
X99424442Y-95879518D01*
X99424442Y-95879518D01*
G37*
G36*
X91804442Y-95879518D02*
G01*
X91870627Y-95886037D01*
X92040466Y-95937557D01*
X92196991Y-96021222D01*
X92232729Y-96050552D01*
X92334186Y-96133814D01*
X92417448Y-96235271D01*
X92446778Y-96271009D01*
X92530443Y-96427534D01*
X92581963Y-96597373D01*
X92599359Y-96774000D01*
X92581963Y-96950627D01*
X92530443Y-97120466D01*
X92446778Y-97276991D01*
X92417448Y-97312729D01*
X92334186Y-97414186D01*
X92232729Y-97497448D01*
X92196991Y-97526778D01*
X92040466Y-97610443D01*
X91870627Y-97661963D01*
X91804443Y-97668481D01*
X91738260Y-97675000D01*
X91649740Y-97675000D01*
X91583557Y-97668481D01*
X91517373Y-97661963D01*
X91347534Y-97610443D01*
X91191009Y-97526778D01*
X91155271Y-97497448D01*
X91053814Y-97414186D01*
X90970552Y-97312729D01*
X90941222Y-97276991D01*
X90857557Y-97120466D01*
X90806037Y-96950627D01*
X90788641Y-96774000D01*
X90806037Y-96597373D01*
X90857557Y-96427534D01*
X90941222Y-96271009D01*
X90970552Y-96235271D01*
X91053814Y-96133814D01*
X91155271Y-96050552D01*
X91191009Y-96021222D01*
X91347534Y-95937557D01*
X91517373Y-95886037D01*
X91583558Y-95879518D01*
X91649740Y-95873000D01*
X91738260Y-95873000D01*
X91804442Y-95879518D01*
X91804442Y-95879518D01*
G37*
G36*
X88089000Y-94155000D02*
G01*
X81837000Y-94155000D01*
X81837000Y-92553000D01*
X88089000Y-92553000D01*
X88089000Y-94155000D01*
X88089000Y-94155000D01*
G37*
G36*
X112021674Y-92598465D02*
G01*
X112059367Y-92609899D01*
X112094103Y-92628466D01*
X112124548Y-92653452D01*
X112149534Y-92683897D01*
X112168101Y-92718633D01*
X112179535Y-92756326D01*
X112184000Y-92801661D01*
X112184000Y-93888339D01*
X112179535Y-93933674D01*
X112168101Y-93971367D01*
X112149534Y-94006103D01*
X112124548Y-94036548D01*
X112094103Y-94061534D01*
X112059367Y-94080101D01*
X112021674Y-94091535D01*
X111976339Y-94096000D01*
X111139661Y-94096000D01*
X111094326Y-94091535D01*
X111056633Y-94080101D01*
X111021897Y-94061534D01*
X110991452Y-94036548D01*
X110966466Y-94006103D01*
X110947899Y-93971367D01*
X110936465Y-93933674D01*
X110932000Y-93888339D01*
X110932000Y-92801661D01*
X110936465Y-92756326D01*
X110947899Y-92718633D01*
X110966466Y-92683897D01*
X110991452Y-92653452D01*
X111021897Y-92628466D01*
X111056633Y-92609899D01*
X111094326Y-92598465D01*
X111139661Y-92594000D01*
X111976339Y-92594000D01*
X112021674Y-92598465D01*
X112021674Y-92598465D01*
G37*
G36*
X109971674Y-92598465D02*
G01*
X110009367Y-92609899D01*
X110044103Y-92628466D01*
X110074548Y-92653452D01*
X110099534Y-92683897D01*
X110118101Y-92718633D01*
X110129535Y-92756326D01*
X110134000Y-92801661D01*
X110134000Y-93888339D01*
X110129535Y-93933674D01*
X110118101Y-93971367D01*
X110099534Y-94006103D01*
X110074548Y-94036548D01*
X110044103Y-94061534D01*
X110009367Y-94080101D01*
X109971674Y-94091535D01*
X109926339Y-94096000D01*
X109089661Y-94096000D01*
X109044326Y-94091535D01*
X109006633Y-94080101D01*
X108971897Y-94061534D01*
X108941452Y-94036548D01*
X108916466Y-94006103D01*
X108897899Y-93971367D01*
X108886465Y-93933674D01*
X108882000Y-93888339D01*
X108882000Y-92801661D01*
X108886465Y-92756326D01*
X108897899Y-92718633D01*
X108916466Y-92683897D01*
X108941452Y-92653452D01*
X108971897Y-92628466D01*
X109006633Y-92609899D01*
X109044326Y-92598465D01*
X109089661Y-92594000D01*
X109926339Y-92594000D01*
X109971674Y-92598465D01*
X109971674Y-92598465D01*
G37*
G36*
X106127674Y-92471465D02*
G01*
X106165367Y-92482899D01*
X106200103Y-92501466D01*
X106230548Y-92526452D01*
X106255534Y-92556897D01*
X106274101Y-92591633D01*
X106285535Y-92629326D01*
X106290000Y-92674661D01*
X106290000Y-93761339D01*
X106285535Y-93806674D01*
X106274101Y-93844367D01*
X106255534Y-93879103D01*
X106230548Y-93909548D01*
X106200103Y-93934534D01*
X106165367Y-93953101D01*
X106127674Y-93964535D01*
X106082339Y-93969000D01*
X105245661Y-93969000D01*
X105200326Y-93964535D01*
X105162633Y-93953101D01*
X105127897Y-93934534D01*
X105097452Y-93909548D01*
X105072466Y-93879103D01*
X105053899Y-93844367D01*
X105042465Y-93806674D01*
X105038000Y-93761339D01*
X105038000Y-92674661D01*
X105042465Y-92629326D01*
X105053899Y-92591633D01*
X105072466Y-92556897D01*
X105097452Y-92526452D01*
X105127897Y-92501466D01*
X105162633Y-92482899D01*
X105200326Y-92471465D01*
X105245661Y-92467000D01*
X106082339Y-92467000D01*
X106127674Y-92471465D01*
X106127674Y-92471465D01*
G37*
G36*
X104077674Y-92471465D02*
G01*
X104115367Y-92482899D01*
X104150103Y-92501466D01*
X104180548Y-92526452D01*
X104205534Y-92556897D01*
X104224101Y-92591633D01*
X104235535Y-92629326D01*
X104240000Y-92674661D01*
X104240000Y-93761339D01*
X104235535Y-93806674D01*
X104224101Y-93844367D01*
X104205534Y-93879103D01*
X104180548Y-93909548D01*
X104150103Y-93934534D01*
X104115367Y-93953101D01*
X104077674Y-93964535D01*
X104032339Y-93969000D01*
X103195661Y-93969000D01*
X103150326Y-93964535D01*
X103112633Y-93953101D01*
X103077897Y-93934534D01*
X103047452Y-93909548D01*
X103022466Y-93879103D01*
X103003899Y-93844367D01*
X102992465Y-93806674D01*
X102988000Y-93761339D01*
X102988000Y-92674661D01*
X102992465Y-92629326D01*
X103003899Y-92591633D01*
X103022466Y-92556897D01*
X103047452Y-92526452D01*
X103077897Y-92501466D01*
X103112633Y-92482899D01*
X103150326Y-92471465D01*
X103195661Y-92467000D01*
X104032339Y-92467000D01*
X104077674Y-92471465D01*
X104077674Y-92471465D01*
G37*
G36*
X101960000Y-93213000D02*
G01*
X100158000Y-93213000D01*
X100158000Y-92461000D01*
X101960000Y-92461000D01*
X101960000Y-93213000D01*
X101960000Y-93213000D01*
G37*
G36*
X94660000Y-93213000D02*
G01*
X92858000Y-93213000D01*
X92858000Y-92461000D01*
X94660000Y-92461000D01*
X94660000Y-93213000D01*
X94660000Y-93213000D01*
G37*
G36*
X89964000Y-92280000D02*
G01*
X88362000Y-92280000D01*
X88362000Y-86028000D01*
X89964000Y-86028000D01*
X89964000Y-92280000D01*
X89964000Y-92280000D01*
G37*
G36*
X81564000Y-92280000D02*
G01*
X79962000Y-92280000D01*
X79962000Y-86028000D01*
X81564000Y-86028000D01*
X81564000Y-92280000D01*
X81564000Y-92280000D01*
G37*
G36*
X94660000Y-91943000D02*
G01*
X92858000Y-91943000D01*
X92858000Y-91191000D01*
X94660000Y-91191000D01*
X94660000Y-91943000D01*
X94660000Y-91943000D01*
G37*
G36*
X101960000Y-91943000D02*
G01*
X100158000Y-91943000D01*
X100158000Y-91191000D01*
X101960000Y-91191000D01*
X101960000Y-91943000D01*
X101960000Y-91943000D01*
G37*
G36*
X76183442Y-89910518D02*
G01*
X76249627Y-89917037D01*
X76419466Y-89968557D01*
X76575991Y-90052222D01*
X76596560Y-90069103D01*
X76713186Y-90164814D01*
X76796448Y-90266271D01*
X76825778Y-90302009D01*
X76909443Y-90458534D01*
X76960963Y-90628373D01*
X76978359Y-90805000D01*
X76960963Y-90981627D01*
X76909443Y-91151466D01*
X76909442Y-91151468D01*
X76867610Y-91229729D01*
X76825778Y-91307991D01*
X76796448Y-91343729D01*
X76713186Y-91445186D01*
X76611729Y-91528448D01*
X76575991Y-91557778D01*
X76419466Y-91641443D01*
X76249627Y-91692963D01*
X76183442Y-91699482D01*
X76117260Y-91706000D01*
X76028740Y-91706000D01*
X75962558Y-91699482D01*
X75896373Y-91692963D01*
X75726534Y-91641443D01*
X75570009Y-91557778D01*
X75534271Y-91528448D01*
X75432814Y-91445186D01*
X75349552Y-91343729D01*
X75320222Y-91307991D01*
X75278390Y-91229729D01*
X75236558Y-91151468D01*
X75236557Y-91151466D01*
X75185037Y-90981627D01*
X75167641Y-90805000D01*
X75185037Y-90628373D01*
X75236557Y-90458534D01*
X75320222Y-90302009D01*
X75349552Y-90266271D01*
X75432814Y-90164814D01*
X75549440Y-90069103D01*
X75570009Y-90052222D01*
X75726534Y-89968557D01*
X75896373Y-89917037D01*
X75962558Y-89910518D01*
X76028740Y-89904000D01*
X76117260Y-89904000D01*
X76183442Y-89910518D01*
X76183442Y-89910518D01*
G37*
G36*
X73643442Y-89910518D02*
G01*
X73709627Y-89917037D01*
X73879466Y-89968557D01*
X74035991Y-90052222D01*
X74056560Y-90069103D01*
X74173186Y-90164814D01*
X74256448Y-90266271D01*
X74285778Y-90302009D01*
X74369443Y-90458534D01*
X74420963Y-90628373D01*
X74438359Y-90805000D01*
X74420963Y-90981627D01*
X74369443Y-91151466D01*
X74369442Y-91151468D01*
X74327610Y-91229729D01*
X74285778Y-91307991D01*
X74256448Y-91343729D01*
X74173186Y-91445186D01*
X74071729Y-91528448D01*
X74035991Y-91557778D01*
X73879466Y-91641443D01*
X73709627Y-91692963D01*
X73643442Y-91699482D01*
X73577260Y-91706000D01*
X73488740Y-91706000D01*
X73422558Y-91699482D01*
X73356373Y-91692963D01*
X73186534Y-91641443D01*
X73030009Y-91557778D01*
X72994271Y-91528448D01*
X72892814Y-91445186D01*
X72809552Y-91343729D01*
X72780222Y-91307991D01*
X72738390Y-91229729D01*
X72696558Y-91151468D01*
X72696557Y-91151466D01*
X72645037Y-90981627D01*
X72627641Y-90805000D01*
X72645037Y-90628373D01*
X72696557Y-90458534D01*
X72780222Y-90302009D01*
X72809552Y-90266271D01*
X72892814Y-90164814D01*
X73009440Y-90069103D01*
X73030009Y-90052222D01*
X73186534Y-89968557D01*
X73356373Y-89917037D01*
X73422558Y-89910518D01*
X73488740Y-89904000D01*
X73577260Y-89904000D01*
X73643442Y-89910518D01*
X73643442Y-89910518D01*
G37*
G36*
X94660000Y-90673000D02*
G01*
X92858000Y-90673000D01*
X92858000Y-89921000D01*
X94660000Y-89921000D01*
X94660000Y-90673000D01*
X94660000Y-90673000D01*
G37*
G36*
X101960000Y-90673000D02*
G01*
X100158000Y-90673000D01*
X100158000Y-89921000D01*
X101960000Y-89921000D01*
X101960000Y-90673000D01*
X101960000Y-90673000D01*
G37*
G36*
X112184000Y-90486000D02*
G01*
X111082000Y-90486000D01*
X111082000Y-88584000D01*
X112184000Y-88584000D01*
X112184000Y-90486000D01*
X112184000Y-90486000D01*
G37*
G36*
X109684000Y-90486000D02*
G01*
X108582000Y-90486000D01*
X108582000Y-88584000D01*
X109684000Y-88584000D01*
X109684000Y-90486000D01*
X109684000Y-90486000D01*
G37*
G36*
X106381674Y-88661465D02*
G01*
X106419367Y-88672899D01*
X106454103Y-88691466D01*
X106484548Y-88716452D01*
X106509534Y-88746897D01*
X106528101Y-88781633D01*
X106539535Y-88819326D01*
X106544000Y-88864661D01*
X106544000Y-89951339D01*
X106539535Y-89996674D01*
X106528101Y-90034367D01*
X106509534Y-90069103D01*
X106484548Y-90099548D01*
X106454103Y-90124534D01*
X106419367Y-90143101D01*
X106381674Y-90154535D01*
X106336339Y-90159000D01*
X105499661Y-90159000D01*
X105454326Y-90154535D01*
X105416633Y-90143101D01*
X105381897Y-90124534D01*
X105351452Y-90099548D01*
X105326466Y-90069103D01*
X105307899Y-90034367D01*
X105296465Y-89996674D01*
X105292000Y-89951339D01*
X105292000Y-88864661D01*
X105296465Y-88819326D01*
X105307899Y-88781633D01*
X105326466Y-88746897D01*
X105351452Y-88716452D01*
X105381897Y-88691466D01*
X105416633Y-88672899D01*
X105454326Y-88661465D01*
X105499661Y-88657000D01*
X106336339Y-88657000D01*
X106381674Y-88661465D01*
X106381674Y-88661465D01*
G37*
G36*
X104331674Y-88661465D02*
G01*
X104369367Y-88672899D01*
X104404103Y-88691466D01*
X104434548Y-88716452D01*
X104459534Y-88746897D01*
X104478101Y-88781633D01*
X104489535Y-88819326D01*
X104494000Y-88864661D01*
X104494000Y-89951339D01*
X104489535Y-89996674D01*
X104478101Y-90034367D01*
X104459534Y-90069103D01*
X104434548Y-90099548D01*
X104404103Y-90124534D01*
X104369367Y-90143101D01*
X104331674Y-90154535D01*
X104286339Y-90159000D01*
X103449661Y-90159000D01*
X103404326Y-90154535D01*
X103366633Y-90143101D01*
X103331897Y-90124534D01*
X103301452Y-90099548D01*
X103276466Y-90069103D01*
X103257899Y-90034367D01*
X103246465Y-89996674D01*
X103242000Y-89951339D01*
X103242000Y-88864661D01*
X103246465Y-88819326D01*
X103257899Y-88781633D01*
X103276466Y-88746897D01*
X103301452Y-88716452D01*
X103331897Y-88691466D01*
X103366633Y-88672899D01*
X103404326Y-88661465D01*
X103449661Y-88657000D01*
X104286339Y-88657000D01*
X104331674Y-88661465D01*
X104331674Y-88661465D01*
G37*
G36*
X94660000Y-89403000D02*
G01*
X92858000Y-89403000D01*
X92858000Y-88651000D01*
X94660000Y-88651000D01*
X94660000Y-89403000D01*
X94660000Y-89403000D01*
G37*
G36*
X101960000Y-89403000D02*
G01*
X100158000Y-89403000D01*
X100158000Y-88651000D01*
X101960000Y-88651000D01*
X101960000Y-89403000D01*
X101960000Y-89403000D01*
G37*
G36*
X76183443Y-87370519D02*
G01*
X76249627Y-87377037D01*
X76419466Y-87428557D01*
X76575991Y-87512222D01*
X76611729Y-87541552D01*
X76713186Y-87624814D01*
X76796448Y-87726271D01*
X76825778Y-87762009D01*
X76909443Y-87918534D01*
X76960963Y-88088373D01*
X76978359Y-88265000D01*
X76960963Y-88441627D01*
X76909443Y-88611466D01*
X76909442Y-88611468D01*
X76885104Y-88657000D01*
X76825778Y-88767991D01*
X76814582Y-88781633D01*
X76713186Y-88905186D01*
X76611729Y-88988448D01*
X76575991Y-89017778D01*
X76419466Y-89101443D01*
X76249627Y-89152963D01*
X76183443Y-89159481D01*
X76117260Y-89166000D01*
X76028740Y-89166000D01*
X75962557Y-89159481D01*
X75896373Y-89152963D01*
X75726534Y-89101443D01*
X75570009Y-89017778D01*
X75534271Y-88988448D01*
X75432814Y-88905186D01*
X75331418Y-88781633D01*
X75320222Y-88767991D01*
X75260896Y-88657000D01*
X75236558Y-88611468D01*
X75236557Y-88611466D01*
X75185037Y-88441627D01*
X75167641Y-88265000D01*
X75185037Y-88088373D01*
X75236557Y-87918534D01*
X75320222Y-87762009D01*
X75349552Y-87726271D01*
X75432814Y-87624814D01*
X75534271Y-87541552D01*
X75570009Y-87512222D01*
X75726534Y-87428557D01*
X75896373Y-87377037D01*
X75962557Y-87370519D01*
X76028740Y-87364000D01*
X76117260Y-87364000D01*
X76183443Y-87370519D01*
X76183443Y-87370519D01*
G37*
G36*
X73643443Y-87370519D02*
G01*
X73709627Y-87377037D01*
X73879466Y-87428557D01*
X74035991Y-87512222D01*
X74071729Y-87541552D01*
X74173186Y-87624814D01*
X74256448Y-87726271D01*
X74285778Y-87762009D01*
X74369443Y-87918534D01*
X74420963Y-88088373D01*
X74438359Y-88265000D01*
X74420963Y-88441627D01*
X74369443Y-88611466D01*
X74369442Y-88611468D01*
X74345104Y-88657000D01*
X74285778Y-88767991D01*
X74274582Y-88781633D01*
X74173186Y-88905186D01*
X74071729Y-88988448D01*
X74035991Y-89017778D01*
X73879466Y-89101443D01*
X73709627Y-89152963D01*
X73643443Y-89159481D01*
X73577260Y-89166000D01*
X73488740Y-89166000D01*
X73422557Y-89159481D01*
X73356373Y-89152963D01*
X73186534Y-89101443D01*
X73030009Y-89017778D01*
X72994271Y-88988448D01*
X72892814Y-88905186D01*
X72791418Y-88781633D01*
X72780222Y-88767991D01*
X72720896Y-88657000D01*
X72696558Y-88611468D01*
X72696557Y-88611466D01*
X72645037Y-88441627D01*
X72627641Y-88265000D01*
X72645037Y-88088373D01*
X72696557Y-87918534D01*
X72780222Y-87762009D01*
X72809552Y-87726271D01*
X72892814Y-87624814D01*
X72994271Y-87541552D01*
X73030009Y-87512222D01*
X73186534Y-87428557D01*
X73356373Y-87377037D01*
X73422557Y-87370519D01*
X73488740Y-87364000D01*
X73577260Y-87364000D01*
X73643443Y-87370519D01*
X73643443Y-87370519D01*
G37*
G36*
X76974000Y-86626000D02*
G01*
X75172000Y-86626000D01*
X75172000Y-84824000D01*
X76974000Y-84824000D01*
X76974000Y-86626000D01*
X76974000Y-86626000D01*
G37*
G36*
X73643443Y-84830519D02*
G01*
X73709627Y-84837037D01*
X73879466Y-84888557D01*
X74035991Y-84972222D01*
X74071729Y-85001552D01*
X74173186Y-85084814D01*
X74256448Y-85186271D01*
X74285778Y-85222009D01*
X74369443Y-85378534D01*
X74420963Y-85548373D01*
X74438359Y-85725000D01*
X74420963Y-85901627D01*
X74369443Y-86071466D01*
X74285778Y-86227991D01*
X74256448Y-86263729D01*
X74173186Y-86365186D01*
X74071729Y-86448448D01*
X74035991Y-86477778D01*
X73879466Y-86561443D01*
X73709627Y-86612963D01*
X73643442Y-86619482D01*
X73577260Y-86626000D01*
X73488740Y-86626000D01*
X73422558Y-86619482D01*
X73356373Y-86612963D01*
X73186534Y-86561443D01*
X73030009Y-86477778D01*
X72994271Y-86448448D01*
X72892814Y-86365186D01*
X72809552Y-86263729D01*
X72780222Y-86227991D01*
X72696557Y-86071466D01*
X72645037Y-85901627D01*
X72627641Y-85725000D01*
X72645037Y-85548373D01*
X72696557Y-85378534D01*
X72780222Y-85222009D01*
X72809552Y-85186271D01*
X72892814Y-85084814D01*
X72994271Y-85001552D01*
X73030009Y-84972222D01*
X73186534Y-84888557D01*
X73356373Y-84837037D01*
X73422557Y-84830519D01*
X73488740Y-84824000D01*
X73577260Y-84824000D01*
X73643443Y-84830519D01*
X73643443Y-84830519D01*
G37*
G36*
X94660000Y-85974000D02*
G01*
X92858000Y-85974000D01*
X92858000Y-85222000D01*
X94660000Y-85222000D01*
X94660000Y-85974000D01*
X94660000Y-85974000D01*
G37*
G36*
X101960000Y-85974000D02*
G01*
X100158000Y-85974000D01*
X100158000Y-85222000D01*
X101960000Y-85222000D01*
X101960000Y-85974000D01*
X101960000Y-85974000D01*
G37*
G36*
X88089000Y-85755000D02*
G01*
X81837000Y-85755000D01*
X81837000Y-84153000D01*
X88089000Y-84153000D01*
X88089000Y-85755000D01*
X88089000Y-85755000D01*
G37*
G36*
X101960000Y-84704000D02*
G01*
X100158000Y-84704000D01*
X100158000Y-83952000D01*
X101960000Y-83952000D01*
X101960000Y-84704000D01*
X101960000Y-84704000D01*
G37*
G36*
X94660000Y-84704000D02*
G01*
X92858000Y-84704000D01*
X92858000Y-83952000D01*
X94660000Y-83952000D01*
X94660000Y-84704000D01*
X94660000Y-84704000D01*
G37*
G36*
X112068000Y-84527000D02*
G01*
X110216000Y-84527000D01*
X110216000Y-83875000D01*
X112068000Y-83875000D01*
X112068000Y-84527000D01*
X112068000Y-84527000D01*
G37*
G36*
X104668000Y-84527000D02*
G01*
X102816000Y-84527000D01*
X102816000Y-83875000D01*
X104668000Y-83875000D01*
X104668000Y-84527000D01*
X104668000Y-84527000D01*
G37*
G36*
X101960000Y-83434000D02*
G01*
X100158000Y-83434000D01*
X100158000Y-82682000D01*
X101960000Y-82682000D01*
X101960000Y-83434000D01*
X101960000Y-83434000D01*
G37*
G36*
X94660000Y-83434000D02*
G01*
X92858000Y-83434000D01*
X92858000Y-82682000D01*
X94660000Y-82682000D01*
X94660000Y-83434000D01*
X94660000Y-83434000D01*
G37*
G36*
X112068000Y-83257000D02*
G01*
X110216000Y-83257000D01*
X110216000Y-82605000D01*
X112068000Y-82605000D01*
X112068000Y-83257000D01*
X112068000Y-83257000D01*
G37*
G36*
X104668000Y-83257000D02*
G01*
X102816000Y-83257000D01*
X102816000Y-82605000D01*
X104668000Y-82605000D01*
X104668000Y-83257000D01*
X104668000Y-83257000D01*
G37*
G36*
X89363674Y-81549465D02*
G01*
X89401367Y-81560899D01*
X89436103Y-81579466D01*
X89466548Y-81604452D01*
X89491534Y-81634897D01*
X89510101Y-81669633D01*
X89521535Y-81707326D01*
X89526000Y-81752661D01*
X89526000Y-82839339D01*
X89521535Y-82884674D01*
X89510101Y-82922367D01*
X89491534Y-82957103D01*
X89466548Y-82987548D01*
X89436103Y-83012534D01*
X89401367Y-83031101D01*
X89363674Y-83042535D01*
X89318339Y-83047000D01*
X88481661Y-83047000D01*
X88436326Y-83042535D01*
X88398633Y-83031101D01*
X88363897Y-83012534D01*
X88333452Y-82987548D01*
X88308466Y-82957103D01*
X88289899Y-82922367D01*
X88278465Y-82884674D01*
X88274000Y-82839339D01*
X88274000Y-81752661D01*
X88278465Y-81707326D01*
X88289899Y-81669633D01*
X88308466Y-81634897D01*
X88333452Y-81604452D01*
X88363897Y-81579466D01*
X88398633Y-81560899D01*
X88436326Y-81549465D01*
X88481661Y-81545000D01*
X89318339Y-81545000D01*
X89363674Y-81549465D01*
X89363674Y-81549465D01*
G37*
G36*
X91413674Y-81549465D02*
G01*
X91451367Y-81560899D01*
X91486103Y-81579466D01*
X91516548Y-81604452D01*
X91541534Y-81634897D01*
X91560101Y-81669633D01*
X91571535Y-81707326D01*
X91576000Y-81752661D01*
X91576000Y-82839339D01*
X91571535Y-82884674D01*
X91560101Y-82922367D01*
X91541534Y-82957103D01*
X91516548Y-82987548D01*
X91486103Y-83012534D01*
X91451367Y-83031101D01*
X91413674Y-83042535D01*
X91368339Y-83047000D01*
X90531661Y-83047000D01*
X90486326Y-83042535D01*
X90448633Y-83031101D01*
X90413897Y-83012534D01*
X90383452Y-82987548D01*
X90358466Y-82957103D01*
X90339899Y-82922367D01*
X90328465Y-82884674D01*
X90324000Y-82839339D01*
X90324000Y-81752661D01*
X90328465Y-81707326D01*
X90339899Y-81669633D01*
X90358466Y-81634897D01*
X90383452Y-81604452D01*
X90413897Y-81579466D01*
X90448633Y-81560899D01*
X90486326Y-81549465D01*
X90531661Y-81545000D01*
X91368339Y-81545000D01*
X91413674Y-81549465D01*
X91413674Y-81549465D01*
G37*
G36*
X101960000Y-82164000D02*
G01*
X100158000Y-82164000D01*
X100158000Y-81412000D01*
X101960000Y-81412000D01*
X101960000Y-82164000D01*
X101960000Y-82164000D01*
G37*
G36*
X94660000Y-82164000D02*
G01*
X92858000Y-82164000D01*
X92858000Y-81412000D01*
X94660000Y-81412000D01*
X94660000Y-82164000D01*
X94660000Y-82164000D01*
G37*
G36*
X104668000Y-81987000D02*
G01*
X102816000Y-81987000D01*
X102816000Y-81335000D01*
X104668000Y-81335000D01*
X104668000Y-81987000D01*
X104668000Y-81987000D01*
G37*
G36*
X112068000Y-81987000D02*
G01*
X110216000Y-81987000D01*
X110216000Y-81335000D01*
X112068000Y-81335000D01*
X112068000Y-81987000D01*
X112068000Y-81987000D01*
G37*
G36*
X86570000Y-81642000D02*
G01*
X82968000Y-81642000D01*
X82968000Y-79140000D01*
X86570000Y-79140000D01*
X86570000Y-81642000D01*
X86570000Y-81642000D01*
G37*
G36*
X81370000Y-81642000D02*
G01*
X77768000Y-81642000D01*
X77768000Y-79140000D01*
X81370000Y-79140000D01*
X81370000Y-81642000D01*
X81370000Y-81642000D01*
G37*
G36*
X73643442Y-79369518D02*
G01*
X73709627Y-79376037D01*
X73879466Y-79427557D01*
X74035991Y-79511222D01*
X74071729Y-79540552D01*
X74173186Y-79623814D01*
X74256448Y-79725271D01*
X74285778Y-79761009D01*
X74369443Y-79917534D01*
X74420963Y-80087373D01*
X74438359Y-80264000D01*
X74420963Y-80440627D01*
X74369443Y-80610466D01*
X74285778Y-80766991D01*
X74256448Y-80802729D01*
X74173186Y-80904186D01*
X74071729Y-80987448D01*
X74035991Y-81016778D01*
X73879466Y-81100443D01*
X73709627Y-81151963D01*
X73643443Y-81158481D01*
X73577260Y-81165000D01*
X73488740Y-81165000D01*
X73422557Y-81158481D01*
X73356373Y-81151963D01*
X73186534Y-81100443D01*
X73030009Y-81016778D01*
X72994271Y-80987448D01*
X72892814Y-80904186D01*
X72809552Y-80802729D01*
X72780222Y-80766991D01*
X72696557Y-80610466D01*
X72645037Y-80440627D01*
X72627641Y-80264000D01*
X72645037Y-80087373D01*
X72696557Y-79917534D01*
X72780222Y-79761009D01*
X72809552Y-79725271D01*
X72892814Y-79623814D01*
X72994271Y-79540552D01*
X73030009Y-79511222D01*
X73186534Y-79427557D01*
X73356373Y-79376037D01*
X73422558Y-79369518D01*
X73488740Y-79363000D01*
X73577260Y-79363000D01*
X73643442Y-79369518D01*
X73643442Y-79369518D01*
G37*
G36*
X104668000Y-80717000D02*
G01*
X102816000Y-80717000D01*
X102816000Y-80065000D01*
X104668000Y-80065000D01*
X104668000Y-80717000D01*
X104668000Y-80717000D01*
G37*
G36*
X112068000Y-80717000D02*
G01*
X110216000Y-80717000D01*
X110216000Y-80065000D01*
X112068000Y-80065000D01*
X112068000Y-80717000D01*
X112068000Y-80717000D01*
G37*
G36*
X89363674Y-78628465D02*
G01*
X89401367Y-78639899D01*
X89436103Y-78658466D01*
X89466548Y-78683452D01*
X89491534Y-78713897D01*
X89510101Y-78748633D01*
X89521535Y-78786326D01*
X89526000Y-78831661D01*
X89526000Y-79918339D01*
X89521535Y-79963674D01*
X89510101Y-80001367D01*
X89491534Y-80036103D01*
X89466548Y-80066548D01*
X89436103Y-80091534D01*
X89401367Y-80110101D01*
X89363674Y-80121535D01*
X89318339Y-80126000D01*
X88481661Y-80126000D01*
X88436326Y-80121535D01*
X88398633Y-80110101D01*
X88363897Y-80091534D01*
X88333452Y-80066548D01*
X88308466Y-80036103D01*
X88289899Y-80001367D01*
X88278465Y-79963674D01*
X88274000Y-79918339D01*
X88274000Y-78831661D01*
X88278465Y-78786326D01*
X88289899Y-78748633D01*
X88308466Y-78713897D01*
X88333452Y-78683452D01*
X88363897Y-78658466D01*
X88398633Y-78639899D01*
X88436326Y-78628465D01*
X88481661Y-78624000D01*
X89318339Y-78624000D01*
X89363674Y-78628465D01*
X89363674Y-78628465D01*
G37*
G36*
X91413674Y-78628465D02*
G01*
X91451367Y-78639899D01*
X91486103Y-78658466D01*
X91516548Y-78683452D01*
X91541534Y-78713897D01*
X91560101Y-78748633D01*
X91571535Y-78786326D01*
X91576000Y-78831661D01*
X91576000Y-79918339D01*
X91571535Y-79963674D01*
X91560101Y-80001367D01*
X91541534Y-80036103D01*
X91516548Y-80066548D01*
X91486103Y-80091534D01*
X91451367Y-80110101D01*
X91413674Y-80121535D01*
X91368339Y-80126000D01*
X90531661Y-80126000D01*
X90486326Y-80121535D01*
X90448633Y-80110101D01*
X90413897Y-80091534D01*
X90383452Y-80066548D01*
X90358466Y-80036103D01*
X90339899Y-80001367D01*
X90328465Y-79963674D01*
X90324000Y-79918339D01*
X90324000Y-78831661D01*
X90328465Y-78786326D01*
X90339899Y-78748633D01*
X90358466Y-78713897D01*
X90383452Y-78683452D01*
X90413897Y-78658466D01*
X90448633Y-78639899D01*
X90486326Y-78628465D01*
X90531661Y-78624000D01*
X91368339Y-78624000D01*
X91413674Y-78628465D01*
X91413674Y-78628465D01*
G37*
G36*
X74434000Y-78625000D02*
G01*
X72632000Y-78625000D01*
X72632000Y-76823000D01*
X74434000Y-76823000D01*
X74434000Y-78625000D01*
X74434000Y-78625000D01*
G37*
G36*
X80990674Y-76303465D02*
G01*
X81028367Y-76314899D01*
X81063103Y-76333466D01*
X81093548Y-76358452D01*
X81118534Y-76388897D01*
X81137101Y-76423633D01*
X81148535Y-76461326D01*
X81153000Y-76506661D01*
X81153000Y-77593339D01*
X81148535Y-77638674D01*
X81137101Y-77676367D01*
X81118534Y-77711103D01*
X81093548Y-77741548D01*
X81063103Y-77766534D01*
X81028367Y-77785101D01*
X80990674Y-77796535D01*
X80945339Y-77801000D01*
X80108661Y-77801000D01*
X80063326Y-77796535D01*
X80025633Y-77785101D01*
X79990897Y-77766534D01*
X79960452Y-77741548D01*
X79935466Y-77711103D01*
X79916899Y-77676367D01*
X79905465Y-77638674D01*
X79901000Y-77593339D01*
X79901000Y-76506661D01*
X79905465Y-76461326D01*
X79916899Y-76423633D01*
X79935466Y-76388897D01*
X79960452Y-76358452D01*
X79990897Y-76333466D01*
X80025633Y-76314899D01*
X80063326Y-76303465D01*
X80108661Y-76299000D01*
X80945339Y-76299000D01*
X80990674Y-76303465D01*
X80990674Y-76303465D01*
G37*
G36*
X78940674Y-76303465D02*
G01*
X78978367Y-76314899D01*
X79013103Y-76333466D01*
X79043548Y-76358452D01*
X79068534Y-76388897D01*
X79087101Y-76423633D01*
X79098535Y-76461326D01*
X79103000Y-76506661D01*
X79103000Y-77593339D01*
X79098535Y-77638674D01*
X79087101Y-77676367D01*
X79068534Y-77711103D01*
X79043548Y-77741548D01*
X79013103Y-77766534D01*
X78978367Y-77785101D01*
X78940674Y-77796535D01*
X78895339Y-77801000D01*
X78058661Y-77801000D01*
X78013326Y-77796535D01*
X77975633Y-77785101D01*
X77940897Y-77766534D01*
X77910452Y-77741548D01*
X77885466Y-77711103D01*
X77866899Y-77676367D01*
X77855465Y-77638674D01*
X77851000Y-77593339D01*
X77851000Y-76506661D01*
X77855465Y-76461326D01*
X77866899Y-76423633D01*
X77885466Y-76388897D01*
X77910452Y-76358452D01*
X77940897Y-76333466D01*
X77975633Y-76314899D01*
X78013326Y-76303465D01*
X78058661Y-76299000D01*
X78895339Y-76299000D01*
X78940674Y-76303465D01*
X78940674Y-76303465D01*
G37*
G36*
X99072000Y-77101000D02*
G01*
X97270000Y-77101000D01*
X97270000Y-75299000D01*
X99072000Y-75299000D01*
X99072000Y-77101000D01*
X99072000Y-77101000D01*
G37*
G36*
X100821442Y-75305518D02*
G01*
X100887627Y-75312037D01*
X101057466Y-75363557D01*
X101213991Y-75447222D01*
X101249729Y-75476552D01*
X101351186Y-75559814D01*
X101434448Y-75661271D01*
X101463778Y-75697009D01*
X101547443Y-75853534D01*
X101598963Y-76023373D01*
X101616359Y-76200000D01*
X101598963Y-76376627D01*
X101547443Y-76546466D01*
X101463778Y-76702991D01*
X101434448Y-76738729D01*
X101351186Y-76840186D01*
X101249729Y-76923448D01*
X101213991Y-76952778D01*
X101057466Y-77036443D01*
X100887627Y-77087963D01*
X100821442Y-77094482D01*
X100755260Y-77101000D01*
X100666740Y-77101000D01*
X100600558Y-77094482D01*
X100534373Y-77087963D01*
X100364534Y-77036443D01*
X100208009Y-76952778D01*
X100172271Y-76923448D01*
X100070814Y-76840186D01*
X99987552Y-76738729D01*
X99958222Y-76702991D01*
X99874557Y-76546466D01*
X99823037Y-76376627D01*
X99805641Y-76200000D01*
X99823037Y-76023373D01*
X99874557Y-75853534D01*
X99958222Y-75697009D01*
X99987552Y-75661271D01*
X100070814Y-75559814D01*
X100172271Y-75476552D01*
X100208009Y-75447222D01*
X100364534Y-75363557D01*
X100534373Y-75312037D01*
X100600558Y-75305518D01*
X100666740Y-75299000D01*
X100755260Y-75299000D01*
X100821442Y-75305518D01*
X100821442Y-75305518D01*
G37*
G36*
X105901442Y-75305518D02*
G01*
X105967627Y-75312037D01*
X106137466Y-75363557D01*
X106293991Y-75447222D01*
X106329729Y-75476552D01*
X106431186Y-75559814D01*
X106514448Y-75661271D01*
X106543778Y-75697009D01*
X106627443Y-75853534D01*
X106678963Y-76023373D01*
X106696359Y-76200000D01*
X106678963Y-76376627D01*
X106627443Y-76546466D01*
X106543778Y-76702991D01*
X106514448Y-76738729D01*
X106431186Y-76840186D01*
X106329729Y-76923448D01*
X106293991Y-76952778D01*
X106137466Y-77036443D01*
X105967627Y-77087963D01*
X105901442Y-77094482D01*
X105835260Y-77101000D01*
X105746740Y-77101000D01*
X105680558Y-77094482D01*
X105614373Y-77087963D01*
X105444534Y-77036443D01*
X105288009Y-76952778D01*
X105252271Y-76923448D01*
X105150814Y-76840186D01*
X105067552Y-76738729D01*
X105038222Y-76702991D01*
X104954557Y-76546466D01*
X104903037Y-76376627D01*
X104885641Y-76200000D01*
X104903037Y-76023373D01*
X104954557Y-75853534D01*
X105038222Y-75697009D01*
X105067552Y-75661271D01*
X105150814Y-75559814D01*
X105252271Y-75476552D01*
X105288009Y-75447222D01*
X105444534Y-75363557D01*
X105614373Y-75312037D01*
X105680558Y-75305518D01*
X105746740Y-75299000D01*
X105835260Y-75299000D01*
X105901442Y-75305518D01*
X105901442Y-75305518D01*
G37*
G36*
X103361442Y-75305518D02*
G01*
X103427627Y-75312037D01*
X103597466Y-75363557D01*
X103753991Y-75447222D01*
X103789729Y-75476552D01*
X103891186Y-75559814D01*
X103974448Y-75661271D01*
X104003778Y-75697009D01*
X104087443Y-75853534D01*
X104138963Y-76023373D01*
X104156359Y-76200000D01*
X104138963Y-76376627D01*
X104087443Y-76546466D01*
X104003778Y-76702991D01*
X103974448Y-76738729D01*
X103891186Y-76840186D01*
X103789729Y-76923448D01*
X103753991Y-76952778D01*
X103597466Y-77036443D01*
X103427627Y-77087963D01*
X103361442Y-77094482D01*
X103295260Y-77101000D01*
X103206740Y-77101000D01*
X103140558Y-77094482D01*
X103074373Y-77087963D01*
X102904534Y-77036443D01*
X102748009Y-76952778D01*
X102712271Y-76923448D01*
X102610814Y-76840186D01*
X102527552Y-76738729D01*
X102498222Y-76702991D01*
X102414557Y-76546466D01*
X102363037Y-76376627D01*
X102345641Y-76200000D01*
X102363037Y-76023373D01*
X102414557Y-75853534D01*
X102498222Y-75697009D01*
X102527552Y-75661271D01*
X102610814Y-75559814D01*
X102712271Y-75476552D01*
X102748009Y-75447222D01*
X102904534Y-75363557D01*
X103074373Y-75312037D01*
X103140558Y-75305518D01*
X103206740Y-75299000D01*
X103295260Y-75299000D01*
X103361442Y-75305518D01*
X103361442Y-75305518D01*
G37*
G36*
X92947442Y-75305518D02*
G01*
X93013627Y-75312037D01*
X93183466Y-75363557D01*
X93339991Y-75447222D01*
X93375729Y-75476552D01*
X93477186Y-75559814D01*
X93560448Y-75661271D01*
X93589778Y-75697009D01*
X93673443Y-75853534D01*
X93724963Y-76023373D01*
X93742359Y-76200000D01*
X93724963Y-76376627D01*
X93673443Y-76546466D01*
X93589778Y-76702991D01*
X93560448Y-76738729D01*
X93477186Y-76840186D01*
X93375729Y-76923448D01*
X93339991Y-76952778D01*
X93183466Y-77036443D01*
X93013627Y-77087963D01*
X92947442Y-77094482D01*
X92881260Y-77101000D01*
X92792740Y-77101000D01*
X92726558Y-77094482D01*
X92660373Y-77087963D01*
X92490534Y-77036443D01*
X92334009Y-76952778D01*
X92298271Y-76923448D01*
X92196814Y-76840186D01*
X92113552Y-76738729D01*
X92084222Y-76702991D01*
X92000557Y-76546466D01*
X91949037Y-76376627D01*
X91931641Y-76200000D01*
X91949037Y-76023373D01*
X92000557Y-75853534D01*
X92084222Y-75697009D01*
X92113552Y-75661271D01*
X92196814Y-75559814D01*
X92298271Y-75476552D01*
X92334009Y-75447222D01*
X92490534Y-75363557D01*
X92660373Y-75312037D01*
X92726558Y-75305518D01*
X92792740Y-75299000D01*
X92881260Y-75299000D01*
X92947442Y-75305518D01*
X92947442Y-75305518D01*
G37*
G36*
X90407442Y-75305518D02*
G01*
X90473627Y-75312037D01*
X90643466Y-75363557D01*
X90799991Y-75447222D01*
X90835729Y-75476552D01*
X90937186Y-75559814D01*
X91020448Y-75661271D01*
X91049778Y-75697009D01*
X91133443Y-75853534D01*
X91184963Y-76023373D01*
X91202359Y-76200000D01*
X91184963Y-76376627D01*
X91133443Y-76546466D01*
X91049778Y-76702991D01*
X91020448Y-76738729D01*
X90937186Y-76840186D01*
X90835729Y-76923448D01*
X90799991Y-76952778D01*
X90643466Y-77036443D01*
X90473627Y-77087963D01*
X90407442Y-77094482D01*
X90341260Y-77101000D01*
X90252740Y-77101000D01*
X90186558Y-77094482D01*
X90120373Y-77087963D01*
X89950534Y-77036443D01*
X89794009Y-76952778D01*
X89758271Y-76923448D01*
X89656814Y-76840186D01*
X89573552Y-76738729D01*
X89544222Y-76702991D01*
X89460557Y-76546466D01*
X89409037Y-76376627D01*
X89391641Y-76200000D01*
X89409037Y-76023373D01*
X89460557Y-75853534D01*
X89544222Y-75697009D01*
X89573552Y-75661271D01*
X89656814Y-75559814D01*
X89758271Y-75476552D01*
X89794009Y-75447222D01*
X89950534Y-75363557D01*
X90120373Y-75312037D01*
X90186558Y-75305518D01*
X90252740Y-75299000D01*
X90341260Y-75299000D01*
X90407442Y-75305518D01*
X90407442Y-75305518D01*
G37*
G36*
X87867442Y-75305518D02*
G01*
X87933627Y-75312037D01*
X88103466Y-75363557D01*
X88259991Y-75447222D01*
X88295729Y-75476552D01*
X88397186Y-75559814D01*
X88480448Y-75661271D01*
X88509778Y-75697009D01*
X88593443Y-75853534D01*
X88644963Y-76023373D01*
X88662359Y-76200000D01*
X88644963Y-76376627D01*
X88593443Y-76546466D01*
X88509778Y-76702991D01*
X88480448Y-76738729D01*
X88397186Y-76840186D01*
X88295729Y-76923448D01*
X88259991Y-76952778D01*
X88103466Y-77036443D01*
X87933627Y-77087963D01*
X87867442Y-77094482D01*
X87801260Y-77101000D01*
X87712740Y-77101000D01*
X87646558Y-77094482D01*
X87580373Y-77087963D01*
X87410534Y-77036443D01*
X87254009Y-76952778D01*
X87218271Y-76923448D01*
X87116814Y-76840186D01*
X87033552Y-76738729D01*
X87004222Y-76702991D01*
X86920557Y-76546466D01*
X86869037Y-76376627D01*
X86851641Y-76200000D01*
X86869037Y-76023373D01*
X86920557Y-75853534D01*
X87004222Y-75697009D01*
X87033552Y-75661271D01*
X87116814Y-75559814D01*
X87218271Y-75476552D01*
X87254009Y-75447222D01*
X87410534Y-75363557D01*
X87580373Y-75312037D01*
X87646558Y-75305518D01*
X87712740Y-75299000D01*
X87801260Y-75299000D01*
X87867442Y-75305518D01*
X87867442Y-75305518D01*
G37*
G36*
X86118000Y-77101000D02*
G01*
X84316000Y-77101000D01*
X84316000Y-75299000D01*
X86118000Y-75299000D01*
X86118000Y-77101000D01*
X86118000Y-77101000D01*
G37*
M02*
